<svg width="404" height="64" viewBox="0 0 404 64" fill="none" xmlns="http://www.w3.org/2000/svg">
<path d="M47.4217 1.27728H357.542L380.402 31.6393L357.542 63.0237H47.4217L24.7881 31.6393L47.4217 1.27728Z" fill="#442A29" stroke="white" stroke-width="1.80926" stroke-miterlimit="10"/>
<path d="M13.6375 41.0735C16.1819 36.929 19.489 33.967 23.1553 32.5565L25.2158 31.7645L22.5027 30.5819C19.247 29.1606 16.2992 26.5024 13.9528 22.8786L12.8895 20.1445L12.1416 22.4446C9.59713 26.5892 6.29007 29.5512 2.62371 30.9616L0.56322 31.7536L3.27633 32.9363C6.53205 34.3576 9.47981 37.0157 11.8263 40.6395L12.8895 43.3737L13.6375 41.0735Z" fill="#442A29"/>
<path d="M392.012 40.9035C394.557 36.759 397.864 33.797 401.53 32.3865L403.591 31.5945L400.878 30.4119C397.622 28.9906 394.674 26.3324 392.328 22.7086L391.265 19.9745L390.517 22.2746C387.972 26.4192 384.665 29.3812 380.999 30.7916L378.938 31.5836L381.651 32.7663C384.907 34.1876 387.855 36.8457 390.201 40.4695L391.265 43.2037L392.012 40.9035Z" fill="#442A29"/>
<path d="M176.926 11.6874H52.8848C86.9235 12.4413 160.988 13.0443 165.964 16.2106C173.856 21.2332 155.108 24.8046 146.514 29.3277C155.56 31.5893 173.563 34.846 165.964 42.4449C158.365 50.0438 89.3716 50.7373 52.8848 51.4912H176.926L209.386 31.5893L176.926 11.6874Z" fill="#EBE5D7"/>
<path d="M176.926 11.6874H52.8848C86.9235 12.4413 160.988 13.0443 165.964 16.2106C173.856 21.2332 155.108 24.8046 146.514 29.3277C155.56 31.5893 173.563 34.846 165.964 42.4449C158.365 50.0438 89.3716 50.7373 52.8848 51.4912H176.926L209.386 31.5893L176.926 11.6874Z" fill="#503332"/>
<path d="M106.494 36.4885C114.991 33.906 126.034 32.0604 138.277 31.1815L145.157 30.688L136.097 29.9511C125.226 29.0655 115.382 27.4092 107.547 25.1512L103.996 23.4476L101.499 24.8808C93.0023 27.4633 81.9592 29.3089 69.7163 30.1878L62.8357 30.6813L71.8955 31.4182C82.7672 32.3038 92.6105 33.9601 100.446 36.2181L103.996 37.9217L106.494 36.4885Z" fill="#503332"/>
<path d="M280.183 36.4885C288.68 33.906 299.723 32.0604 311.966 31.1815L318.847 30.688L309.787 29.9511C298.915 29.0655 289.072 27.4092 281.236 25.1512L277.686 23.4476L275.188 24.8808C266.692 27.4633 255.649 29.3089 243.406 30.1878L236.525 30.6813L245.585 31.4182C256.457 32.3038 266.3 33.9601 274.135 36.2181L277.686 37.9217L280.183 36.4885Z" fill="#503332"/>
<path d="M213.802 11.6874H337.844C303.805 12.4413 229.74 13.0443 224.765 16.2106C216.872 21.2332 235.62 24.8046 244.214 29.3277C235.168 31.5893 217.166 34.846 224.765 42.4449C232.364 50.0438 301.357 50.7373 337.844 51.4912H213.802L181.342 31.5893L213.802 11.6874Z" fill="#503332"/>
<path d="M154.847 21.1481H158.459C159.299 21.1481 160.12 21.2414 160.923 21.4281C161.725 21.6148 162.435 21.9134 163.051 22.3241C163.685 22.7348 164.189 23.2761 164.563 23.9481C164.936 24.6201 165.123 25.4508 165.123 26.4401C165.123 27.2241 164.955 28.0081 164.619 28.7921C164.301 29.5574 163.807 30.2201 163.135 30.7801C162.463 31.3214 161.595 31.6481 160.531 31.7601C161.128 31.9468 161.669 32.2828 162.155 32.7681C162.659 33.2534 163.069 33.7388 163.387 34.2241C163.405 34.2614 163.508 34.4294 163.695 34.7281C163.9 35.0268 164.143 35.4001 164.423 35.8481C164.721 36.2774 165.029 36.7161 165.347 37.1641C165.664 37.6121 165.953 38.0041 166.215 38.3401C166.625 38.8441 166.999 39.2548 167.335 39.5721C167.671 39.8708 168.025 40.0948 168.399 40.2441C168.772 40.3748 169.201 40.4494 169.687 40.4681V40.7481H166.943C165.935 40.7481 165.02 40.6641 164.199 40.4961C163.377 40.3094 162.649 40.0014 162.015 39.5721C161.38 39.1428 160.829 38.5641 160.363 37.8361C160.213 37.6121 160.045 37.3321 159.859 36.9961C159.691 36.6414 159.513 36.2681 159.327 35.8761C159.14 35.4841 158.953 35.1108 158.767 34.7561C158.599 34.3828 158.449 34.0468 158.319 33.7481C158.188 33.4494 158.095 33.2161 158.039 33.0481C157.796 32.4508 157.507 32.0028 157.171 31.7041C156.853 31.4054 156.508 31.2281 156.135 31.1721V30.8921C156.191 30.8921 156.303 30.8921 156.471 30.8921C156.639 30.8921 156.816 30.8921 157.003 30.8921C157.507 30.8921 157.992 30.7894 158.459 30.5841C158.944 30.3788 159.373 30.0428 159.747 29.5761C160.12 29.1094 160.381 28.4654 160.531 27.6441C160.568 27.4761 160.596 27.2801 160.615 27.0561C160.652 26.8321 160.661 26.5801 160.643 26.3001C160.587 24.9561 160.251 23.9761 159.635 23.3601C159.019 22.7254 158.253 22.3988 157.339 22.3801C157.077 22.3614 156.788 22.3614 156.471 22.3801C156.172 22.3801 155.892 22.3801 155.631 22.3801C155.388 22.3801 155.22 22.3801 155.127 22.3801C155.127 22.3614 155.099 22.2588 155.043 22.0721C155.005 21.8668 154.959 21.6614 154.903 21.4561C154.865 21.2508 154.847 21.1481 154.847 21.1481ZM155.211 21.1481V40.7481H151.011V21.1481H155.211ZM151.095 38.7041V40.7481H148.855V40.4681C148.873 40.4681 148.929 40.4681 149.023 40.4681C149.135 40.4681 149.2 40.4681 149.219 40.4681C149.704 40.4681 150.115 40.3001 150.451 39.9641C150.805 39.6094 150.992 39.1894 151.011 38.7041H151.095ZM151.095 23.1921H151.011C150.992 22.7068 150.805 22.2961 150.451 21.9601C150.115 21.6054 149.704 21.4281 149.219 21.4281C149.2 21.4281 149.135 21.4281 149.023 21.4281C148.929 21.4281 148.873 21.4281 148.855 21.4281V21.1481H151.095V23.1921ZM155.127 38.7041H155.211C155.211 39.1894 155.388 39.6094 155.743 39.9641C156.097 40.3001 156.517 40.4681 157.003 40.4681C157.04 40.4681 157.105 40.4681 157.199 40.4681C157.292 40.4681 157.339 40.4681 157.339 40.4681V40.7481H155.127V38.7041ZM175.129 23.9481V40.7481H171.097V23.9481H175.129ZM171.181 38.9841V40.7481H169.137V40.4681C169.137 40.4681 169.193 40.4681 169.305 40.4681C169.417 40.4681 169.482 40.4681 169.501 40.4681C169.93 40.4681 170.303 40.3281 170.621 40.0481C170.938 39.7494 171.097 39.3948 171.097 38.9841H171.181ZM175.073 38.9841H175.129C175.147 39.3948 175.306 39.7494 175.605 40.0481C175.922 40.3281 176.305 40.4681 176.753 40.4681C176.753 40.4681 176.799 40.4681 176.893 40.4681C177.005 40.4681 177.07 40.4681 177.089 40.4681V40.7481H175.073V38.9841ZM175.073 25.7121V23.9481H177.089L177.061 24.2281C177.061 24.2281 177.014 24.2281 176.921 24.2281C176.827 24.2281 176.771 24.2281 176.753 24.2281C176.305 24.2281 175.922 24.3681 175.605 24.6481C175.306 24.9281 175.147 25.2828 175.129 25.7121H175.073ZM171.181 25.7121H171.097C171.097 25.2828 170.938 24.9281 170.621 24.6481C170.303 24.3681 169.921 24.2281 169.473 24.2281C169.473 24.2281 169.417 24.2281 169.305 24.2281C169.193 24.2281 169.137 24.2281 169.137 24.2281V23.9481H171.181V25.7121ZM188.444 24.0321V40.7481H184.384V24.0321H188.444ZM194.548 23.9201V25.0401H178.308V23.9201H194.548ZM194.548 24.9561V27.9241H194.24V27.6721C194.259 26.8694 194.035 26.2348 193.568 25.7681C193.12 25.3014 192.495 25.0588 191.692 25.0401V24.9561H194.548ZM194.548 23.5001V24.2001L191.58 23.9201C191.935 23.9201 192.318 23.9014 192.728 23.8641C193.139 23.8081 193.512 23.7521 193.848 23.6961C194.184 23.6214 194.418 23.5561 194.548 23.5001ZM184.44 38.9841V40.7481H182.564V40.4681C182.564 40.4681 182.611 40.4681 182.704 40.4681C182.816 40.4681 182.872 40.4681 182.872 40.4681C183.283 40.4681 183.628 40.3281 183.908 40.0481C184.207 39.7494 184.366 39.3948 184.384 38.9841H184.44ZM188.36 38.9841H188.444C188.444 39.3948 188.594 39.7494 188.892 40.0481C189.191 40.3281 189.555 40.4681 189.984 40.4681C189.984 40.4681 190.031 40.4681 190.124 40.4681C190.236 40.4681 190.292 40.4681 190.292 40.4681V40.7481H188.36V38.9841ZM181.164 24.9561V25.0401C180.343 25.0588 179.708 25.3014 179.26 25.7681C178.831 26.2348 178.616 26.8694 178.616 27.6721V27.9241H178.308V24.9561H181.164ZM178.308 23.5001C178.476 23.5374 178.719 23.5934 179.036 23.6681C179.372 23.7428 179.736 23.8081 180.128 23.8641C180.539 23.9014 180.912 23.9201 181.248 23.9201L178.308 24.2001V23.5001ZM201.422 23.9481V34.5041C201.422 36.2214 201.814 37.5654 202.598 38.5361C203.401 39.5068 204.511 39.9921 205.93 39.9921C207.405 39.9921 208.543 39.5348 209.346 38.6201C210.167 37.7054 210.587 36.4361 210.606 34.8121V23.9481H212.454V34.6441C212.454 36.6414 211.838 38.2188 210.606 39.3761C209.393 40.5334 207.666 41.1121 205.426 41.1121C202.719 41.1121 200.703 40.5428 199.378 39.4041C198.053 38.2468 197.39 36.6694 197.39 34.6721V23.9481H201.422ZM197.446 23.9481V25.4041H197.39C197.371 25.0494 197.241 24.7601 196.998 24.5361C196.755 24.3121 196.457 24.2001 196.102 24.2001C196.102 24.2001 196.037 24.2001 195.906 24.2001C195.775 24.2001 195.71 24.2001 195.71 24.2001V23.9481H197.446ZM203.074 23.9481V24.2001C203.074 24.2001 203.009 24.2001 202.878 24.2001C202.747 24.2001 202.682 24.2001 202.682 24.2001C202.327 24.2001 202.029 24.3121 201.786 24.5361C201.543 24.7601 201.422 25.0494 201.422 25.4041H201.366V23.9481H203.074ZM210.662 23.9481V25.4041H210.606C210.587 25.0494 210.457 24.7601 210.214 24.5361C209.971 24.3121 209.682 24.2001 209.346 24.2001C209.346 24.2001 209.281 24.2001 209.15 24.2001C209.019 24.2001 208.954 24.2001 208.954 24.2001V23.9481H210.662ZM214.106 23.9481V24.2001C214.106 24.2001 214.041 24.2001 213.91 24.2001C213.798 24.2001 213.742 24.2001 213.742 24.2001C213.387 24.2001 213.079 24.3121 212.818 24.5361C212.575 24.7601 212.454 25.0494 212.454 25.4041H212.398V23.9481H214.106ZM222.89 23.1921L231.178 40.6081H226.446L221.238 28.3161L222.89 23.1921ZM217.626 38.9001C217.421 39.4041 217.449 39.7961 217.71 40.0761C217.971 40.3374 218.261 40.4681 218.578 40.4681H218.802V40.7481H213.202V40.4681C213.202 40.4681 213.239 40.4681 213.314 40.4681C213.389 40.4681 213.426 40.4681 213.426 40.4681C213.799 40.4681 214.191 40.3561 214.602 40.1321C215.013 39.8894 215.349 39.4788 215.61 38.9001H217.626ZM222.89 23.1921L222.946 26.5521L216.87 40.6641H214.798L221.35 26.5801C221.387 26.4681 221.471 26.2721 221.602 25.9921C221.733 25.6934 221.873 25.3668 222.022 25.0121C222.171 24.6388 222.311 24.2934 222.442 23.9761C222.573 23.6401 222.647 23.3788 222.666 23.1921H222.89ZM225.326 35.2601V36.3521H218.186V35.2601H225.326ZM225.746 38.9001H230.366C230.646 39.4788 230.991 39.8894 231.402 40.1321C231.813 40.3561 232.205 40.4681 232.578 40.4681C232.578 40.4681 232.615 40.4681 232.69 40.4681C232.765 40.4681 232.802 40.4681 232.802 40.4681V40.7481H224.57V40.4681H224.794C225.111 40.4681 225.401 40.3374 225.662 40.0761C225.923 39.7961 225.951 39.4041 225.746 38.9001ZM238.838 23.9481V40.7481H234.806V23.9481H238.838ZM245.362 39.6281L246.034 40.7481H238.782V39.6281H245.362ZM247.21 35.5961L246.118 40.7481H241.274L242.142 39.6281C242.944 39.6281 243.654 39.4694 244.27 39.1521C244.904 38.8161 245.446 38.3494 245.894 37.7521C246.342 37.1361 246.687 36.4174 246.93 35.5961H247.21ZM234.862 38.9841L235.002 40.7481H232.93V40.4681C232.93 40.4681 232.986 40.4681 233.098 40.4681C233.21 40.4681 233.275 40.4681 233.294 40.4681C233.704 40.4681 234.05 40.3281 234.33 40.0481C234.628 39.7494 234.787 39.3948 234.806 38.9841H234.862ZM238.782 25.7121V23.9481H240.714V24.2281C240.695 24.2281 240.63 24.2281 240.518 24.2281C240.424 24.2281 240.378 24.2281 240.378 24.2281C239.967 24.2281 239.612 24.3681 239.314 24.6481C239.015 24.9281 238.856 25.2828 238.838 25.7121H238.782ZM234.862 25.7121H234.806C234.787 25.2828 234.628 24.9281 234.33 24.6481C234.031 24.3681 233.676 24.2281 233.266 24.2281C233.247 24.2281 233.182 24.2281 233.07 24.2281C232.976 24.2281 232.93 24.2281 232.93 24.2281V23.9481H234.862V25.7121Z" fill="#FCFCFC"/>
<path d="M50.5759 5.37352H355.118L374.508 31.6075L355.118 58.9821L50.5759 60.1227L30.6152 31.6075L50.5759 5.37352Z" stroke="#6D4E4D" stroke-width="1.73297" stroke-miterlimit="10"/>
</svg>
