<svg width="390" height="65" viewBox="0 0 390 65" fill="none" xmlns="http://www.w3.org/2000/svg">
<g clip-path="url(#clip0_85_86)">
<path d="M73.0167 0.836426H315.99C321.135 0.836426 325.305 4.98465 325.305 10.103V11.391L346.524 32.5001L325.305 53.6092V54.8972C325.305 60.0155 321.135 64.1638 315.99 64.1638H73.0167C67.8717 64.1638 63.702 60.0155 63.702 54.8972V53.6092L42.4832 32.5001L63.702 11.391V10.103C63.702 4.98465 67.8717 0.836426 73.0167 0.836426Z" fill="black" fill-opacity="0.37" stroke="url(#paint0_linear_85_86)"/>
<path d="M1.47473 32.5001L16.6742 21.9456L31.8906 32.5001L16.6742 43.0547L1.47473 32.5001Z" stroke="#EDEDED"/>
<path d="M357.133 32.5001L372.333 21.9456L387.532 32.5001L372.333 43.0547L357.133 32.5001Z" stroke="#EDEDED"/>
<path d="M335.915 11.3909L357.133 32.5L335.915 53.6091" stroke="#EDEDED"/>
<path d="M53.1094 53.6091L31.8906 32.5L53.1094 11.3909" stroke="#EDEDED"/>
<path d="M108.218 20.8246C106.183 19.8879 104.014 19.2021 101.745 18.8174C101.711 18.8174 101.661 18.8174 101.644 18.8676C101.358 19.3694 101.055 20.005 100.837 20.5235C98.3987 20.1555 95.9607 20.1555 93.5564 20.5235C93.3378 20.005 93.0184 19.3694 92.7325 18.8676C92.7157 18.8341 92.6653 18.8174 92.6316 18.8174C90.3618 19.2021 88.176 19.8879 86.1584 20.8246C86.1416 20.8246 86.1248 20.8413 86.108 20.858C81.9886 27.0135 80.8453 33.0184 81.4001 38.9563C81.4001 38.9898 81.417 39.0065 81.4338 39.0232C84.1576 41.0137 86.7973 42.2348 89.3866 43.0377C89.4202 43.0377 89.4707 43.0377 89.5043 43.0042C90.1096 42.1679 90.6644 41.2814 91.1352 40.3614C91.1689 40.3112 91.1352 40.2443 91.0848 40.2276C90.2273 39.893 89.3866 39.4916 88.5964 39.04C88.5291 39.0065 88.5291 38.9062 88.5964 38.8727C88.7645 38.7556 88.9326 38.6218 89.084 38.488C89.1176 38.4713 89.1512 38.4545 89.1848 38.488C94.3971 40.8632 100.03 40.8632 105.175 38.488C105.208 38.488 105.242 38.488 105.275 38.488C105.427 38.6218 105.595 38.7556 105.763 38.8727C105.814 38.9229 105.814 39.0065 105.763 39.04C104.973 39.5083 104.149 39.893 103.275 40.2276C103.224 40.2443 103.191 40.3112 103.224 40.3614C103.695 41.2814 104.25 42.1679 104.855 43.0042C104.872 43.0377 104.922 43.0544 104.973 43.0377C107.579 42.2348 110.219 41.0137 112.926 39.0232C112.942 39.0065 112.959 38.9731 112.959 38.9563C113.615 32.0984 111.85 26.1437 108.251 20.858C108.251 20.8413 108.235 20.8246 108.218 20.8246ZM91.9087 35.3434C90.345 35.3434 89.0503 33.9049 89.0503 32.1318C89.0503 30.3588 90.3114 28.9203 91.9087 28.9203C93.5059 28.9203 94.8006 30.3755 94.767 32.1318C94.767 33.9049 93.5059 35.3434 91.9087 35.3434ZM102.484 35.3434C100.921 35.3434 99.6261 33.9049 99.6261 32.1318C99.6261 30.3588 100.887 28.9203 102.484 28.9203C104.082 28.9203 105.376 30.3755 105.343 32.1318C105.343 33.9049 104.082 35.3434 102.484 35.3434Z" fill="white"/>
<path d="M138.468 38.1133C138.468 39.2627 138.307 40.1973 137.996 40.9062C137.684 41.626 137.179 41.9805 136.503 41.9805C136.137 41.9805 135.761 41.8086 135.375 41.4541C134.999 41.0996 134.59 40.9277 134.161 40.9277C133.645 40.9277 133.054 41.25 133.054 41.8408C133.054 42.7432 134.247 43.0762 135.203 43.0762C136.685 43.0762 137.953 42.4316 139.016 41.1318C140.08 39.8428 140.617 38.1025 140.617 35.9004V23.9658C140.617 22.8916 141.154 22.3545 142.228 22.3545H143.088C143.227 22.3545 143.302 22.2686 143.302 22.0859C143.302 21.9033 143.227 21.8174 143.088 21.8174H135.998C135.858 21.8174 135.783 21.9033 135.783 22.0859C135.783 22.2686 135.858 22.3545 135.998 22.3545H136.857C137.931 22.3545 138.468 22.8916 138.468 23.9658V38.1133ZM144.645 33.0967C144.645 35.8789 146.675 38.1455 149.78 38.1455C152.884 38.1455 154.915 35.8789 154.915 33.0967C154.915 30.3145 152.906 28.0479 149.78 28.0479C146.654 28.0479 144.645 30.3145 144.645 33.0967ZM149.382 28.6279C151.316 28.6279 153.239 30.7979 153.239 33.6123C153.239 35.7607 152.004 37.5654 150.177 37.5654C148.244 37.5654 146.321 35.4062 146.321 32.5918C146.321 30.4434 147.556 28.6279 149.382 28.6279ZM160.93 37.9307C161.038 37.9307 161.091 37.8555 161.091 37.7158C161.091 37.4795 160.984 37.4795 160.425 37.3291C159.738 37.1465 159.48 36.7598 159.48 36.1367V28.2734C159.48 28.0049 159.362 27.8867 159.169 27.8867C159.072 27.8867 158.943 27.9189 158.793 27.9834L156.462 29.0361C156.343 29.0898 156.29 29.1865 156.29 29.3369C156.29 29.4766 156.354 29.5732 156.483 29.6055L157.396 29.874C157.708 29.96 157.869 30.1318 157.869 30.4756V36.1367C157.869 36.7598 157.611 37.1465 156.923 37.3291C156.365 37.4795 156.257 37.4795 156.257 37.7158C156.257 37.8555 156.322 37.9307 156.44 37.9307H160.93ZM157.536 23.9658C157.536 24.5889 158.041 25.0938 158.664 25.0938C159.287 25.0938 159.792 24.5889 159.792 23.9658C159.792 23.3428 159.287 22.8379 158.664 22.8379C158.041 22.8379 157.536 23.3428 157.536 23.9658ZM169.277 37.3291C168.718 37.4688 168.611 37.4902 168.611 37.7158C168.611 37.8555 168.675 37.9307 168.794 37.9307H173.821C173.928 37.9307 173.982 37.8555 173.982 37.7158C173.982 37.6191 173.821 37.5439 173.509 37.4902C172.306 37.2861 171.898 37.1572 171.898 36.2227C171.898 35.2129 171.984 34.375 171.984 32.3877C171.984 30.0137 171.006 28.0479 168.912 28.0479C168.396 28.0479 167.816 28.1875 167.247 28.4883L165.807 29.2402C165.711 29.2939 165.635 29.3047 165.571 29.3047C165.442 29.3047 165.388 29.2188 165.388 29.0469V28.2734C165.388 28.0049 165.27 27.8867 165.077 27.8867C164.98 27.8867 164.851 27.9189 164.701 27.9834L162.37 29.0361C162.252 29.0898 162.198 29.1865 162.198 29.3369C162.198 29.4766 162.262 29.5732 162.391 29.6055L163.304 29.874C163.616 29.96 163.777 30.1318 163.777 30.4756V36.1367C163.777 36.7598 163.519 37.1465 162.832 37.3291C162.273 37.4795 162.166 37.4795 162.166 37.7158C162.166 37.8555 162.23 37.9307 162.348 37.9307H166.839C166.946 37.9307 167 37.8555 167 37.7158C167 37.4795 166.892 37.4795 166.334 37.3291C165.646 37.1465 165.388 36.7598 165.388 36.1367V30.3682C165.388 30.207 165.464 30.0889 165.603 30.0244L166.591 29.5732C166.967 29.4121 167.343 29.3369 167.741 29.3369C169.728 29.3369 170.373 30.5938 170.373 32.8174C170.373 34.1816 170.319 35.084 170.255 36.0615C170.201 36.792 169.964 37.1572 169.277 37.3291ZM182.458 33.0967C182.458 35.8789 184.488 38.1455 187.592 38.1455C190.697 38.1455 192.727 35.8789 192.727 33.0967C192.727 30.3145 190.718 28.0479 187.592 28.0479C184.466 28.0479 182.458 30.3145 182.458 33.0967ZM187.195 28.6279C189.129 28.6279 191.051 30.7979 191.051 33.6123C191.051 35.7607 189.816 37.5654 187.99 37.5654C186.056 37.5654 184.133 35.4062 184.133 32.5918C184.133 30.4434 185.369 28.6279 187.195 28.6279ZM197.293 28.2734C197.293 28.0049 197.185 27.876 196.992 27.876C196.884 27.876 196.755 27.9189 196.605 27.9834L194.274 29.0361C194.156 29.0898 194.102 29.1865 194.102 29.3369C194.102 29.4766 194.167 29.5732 194.296 29.6055L195.209 29.874C195.52 29.96 195.681 30.1318 195.681 30.4756V36.2441C195.681 37.5117 196.605 38.1455 198.464 38.1455C199.183 38.1455 199.839 38.0059 200.419 37.7051L201.858 36.9531C201.955 36.8994 202.03 36.8779 202.094 36.8779C202.223 36.8779 202.277 36.9854 202.277 37.1465V37.7695C202.277 38.0381 202.395 38.167 202.589 38.167C202.696 38.167 202.814 38.124 202.964 38.0596L205.296 37.0068C205.414 36.9531 205.467 36.8564 205.467 36.7061C205.467 36.5664 205.403 36.4697 205.274 36.4375L204.361 36.1689C204.049 36.083 203.888 35.9111 203.888 35.5674V28.2734C203.888 28.0049 203.77 27.876 203.577 27.876C203.469 27.876 203.351 27.9189 203.201 27.9834L200.87 29.0361C200.752 29.0898 200.698 29.1865 200.698 29.3369C200.698 29.4766 200.762 29.5732 200.891 29.6055L201.804 29.874C202.116 29.96 202.277 30.1318 202.277 30.4756V35.8037C202.277 35.9648 202.202 36.083 202.062 36.1475L201.074 36.5771C200.698 36.7383 200.161 36.8564 199.441 36.8564C198.012 36.8564 197.293 36.4268 197.293 35.5674V28.2734ZM209.797 31.2383C209.797 30.7119 210.022 30.3145 210.334 29.96C210.667 29.584 211.096 29.3154 211.526 29.3154C211.816 29.3154 212.138 29.4121 212.493 29.5947C212.847 29.7773 213.073 29.8633 213.17 29.8633C213.288 29.8633 213.449 29.6807 213.631 29.3262C213.825 28.9717 213.922 28.7246 213.922 28.6064C213.922 28.4775 213.589 28.2949 213.062 28.0693C212.643 27.8867 212.278 27.8008 211.988 27.8008C211.612 27.8008 211.247 28.0801 210.903 28.4561C210.57 28.832 210.248 29.2939 210.076 29.5518C210.022 29.627 209.958 29.6592 209.915 29.6592C209.839 29.6592 209.797 29.584 209.797 29.4658V28.2734C209.797 28.0049 209.678 27.876 209.485 27.876C209.378 27.876 209.259 27.9189 209.109 27.9834L206.778 29.0361C206.66 29.0898 206.606 29.1865 206.606 29.3369C206.606 29.4766 206.671 29.5732 206.799 29.6055L207.713 29.874C208.024 29.96 208.185 30.1318 208.185 30.4756V36.1367C208.185 36.7705 207.927 37.1572 207.24 37.3291C206.681 37.4688 206.574 37.4902 206.574 37.7158C206.574 37.8555 206.638 37.9307 206.756 37.9307H211.784C211.891 37.9307 211.945 37.8555 211.945 37.7158C211.945 37.6191 211.784 37.5439 211.472 37.4902C211.161 37.4365 210.914 37.3828 210.742 37.3291C210.054 37.125 209.797 36.7705 209.797 36.1367V31.2383ZM226.984 23.1924C226.984 22.8379 227.167 22.6338 227.521 22.5908C228.95 22.4189 229.53 22.3867 230.089 22.3867C232.022 22.3867 233.58 22.7627 234.794 23.6221C236.738 25.0078 238.016 27.4678 238.016 30.3896C238.016 31.7324 237.683 32.9678 237.028 34.085C235.728 36.2871 233.558 37.3398 230.593 37.3398C228.316 37.3398 226.984 37.168 226.984 35.4814V23.1924ZM222.902 21.8174C222.762 21.8174 222.687 21.9033 222.687 22.0859C222.687 22.2686 222.762 22.3545 222.902 22.3545H223.224C224.298 22.3545 224.836 22.8916 224.836 23.9658V35.7822C224.836 36.8564 224.298 37.3936 223.224 37.3936H222.902C222.762 37.3936 222.687 37.4795 222.687 37.6621C222.687 37.8447 222.762 37.9307 222.902 37.9307C226.898 37.9307 228.037 38.1455 231.141 38.1455C233.741 38.1455 235.889 37.3613 237.576 35.8037C239.262 34.2461 240.111 32.2588 240.111 29.8633C240.111 27.4785 239.262 25.502 237.565 23.9443C235.868 22.3867 233.73 21.6025 231.141 21.6025C227.714 21.6025 226.866 21.8174 222.902 21.8174ZM246.18 37.9307C246.288 37.9307 246.341 37.8555 246.341 37.7158C246.341 37.4795 246.234 37.4795 245.675 37.3291C244.988 37.1465 244.73 36.7598 244.73 36.1367V28.2734C244.73 28.0049 244.612 27.8867 244.419 27.8867C244.322 27.8867 244.193 27.9189 244.043 27.9834L241.712 29.0361C241.593 29.0898 241.54 29.1865 241.54 29.3369C241.54 29.4766 241.604 29.5732 241.733 29.6055L242.646 29.874C242.958 29.96 243.119 30.1318 243.119 30.4756V36.1367C243.119 36.7598 242.861 37.1465 242.173 37.3291C241.615 37.4795 241.507 37.4795 241.507 37.7158C241.507 37.8555 241.572 37.9307 241.69 37.9307H246.18ZM242.786 23.9658C242.786 24.5889 243.291 25.0938 243.914 25.0938C244.537 25.0938 245.042 24.5889 245.042 23.9658C245.042 23.3428 244.537 22.8379 243.914 22.8379C243.291 22.8379 242.786 23.3428 242.786 23.9658ZM248.662 37.791C249.231 37.9307 249.768 38.1455 250.359 38.1455C251.992 38.1455 253.431 37.1787 253.431 35.4922C253.431 34.4932 252.991 33.8379 252.357 33.2793C252.046 33 251.519 32.6455 250.176 31.8398C249.489 31.4316 248.726 30.9805 248.726 30.0244C248.726 29.1973 249.381 28.585 250.359 28.585C251.508 28.585 251.917 29.1758 252.153 29.9385C252.379 30.7012 252.336 30.916 252.636 30.916C252.851 30.916 252.926 30.8086 252.916 30.6689L252.701 28.2412C252.69 28.1123 252.615 28.0479 252.454 28.0479C252.024 28.0479 252.046 28.2305 251.895 28.2305C251.713 28.2305 251.412 28.0479 250.563 28.0479C248.898 28.0479 247.609 29.1543 247.609 30.7119C247.609 31.7002 248.092 32.334 248.726 32.8604C249.048 33.1289 249.586 33.5049 250.348 33.9883C251.637 34.8154 251.938 35.1699 251.938 36.0615C251.938 36.9316 251.476 37.6084 250.445 37.6084C249.22 37.6084 248.565 36.9531 248.211 35.9004C248.082 35.5352 248.146 35.3525 247.856 35.3525C247.641 35.3525 247.566 35.4707 247.577 35.5996L247.781 37.9521C247.792 38.0811 247.867 38.1455 248.017 38.1455C248.243 38.1455 248.339 37.7803 248.544 37.7803C248.587 37.7803 248.619 37.7803 248.662 37.791ZM254.946 33.1934C254.946 35.8896 256.708 38.1455 259.458 38.1455C261.187 38.1455 262.401 37.2432 263.658 35.8789C263.701 35.8359 263.722 35.7822 263.722 35.7285C263.722 35.6104 263.55 35.4385 263.432 35.4385C263.379 35.4385 263.325 35.46 263.282 35.5029C262.38 36.3945 261.305 36.749 260.113 36.749C257.997 36.749 256.632 34.8477 256.632 32.5488C256.632 30.7871 257.535 28.6279 259.844 28.6279C260.929 28.6279 261.456 30.1104 262.38 30.1104C262.777 30.1104 263.153 29.874 263.153 29.4766C263.153 28.5635 261.81 28.0479 260.07 28.0479C257.03 28.0479 254.946 30.2285 254.946 33.1934ZM265.151 33.0967C265.151 35.8789 267.181 38.1455 270.286 38.1455C273.39 38.1455 275.421 35.8789 275.421 33.0967C275.421 30.3145 273.412 28.0479 270.286 28.0479C267.16 28.0479 265.151 30.3145 265.151 33.0967ZM269.888 28.6279C271.822 28.6279 273.745 30.7979 273.745 33.6123C273.745 35.7607 272.509 37.5654 270.683 37.5654C268.75 37.5654 266.827 35.4062 266.827 32.5918C266.827 30.4434 268.062 28.6279 269.888 28.6279ZM279.986 31.2383C279.986 30.7119 280.212 30.3145 280.523 29.96C280.856 29.584 281.286 29.3154 281.715 29.3154C282.005 29.3154 282.328 29.4121 282.682 29.5947C283.037 29.7773 283.262 29.8633 283.359 29.8633C283.477 29.8633 283.638 29.6807 283.821 29.3262C284.014 28.9717 284.111 28.7246 284.111 28.6064C284.111 28.4775 283.778 28.2949 283.252 28.0693C282.833 27.8867 282.467 27.8008 282.177 27.8008C281.801 27.8008 281.436 28.0801 281.092 28.4561C280.759 28.832 280.437 29.2939 280.265 29.5518C280.212 29.627 280.147 29.6592 280.104 29.6592C280.029 29.6592 279.986 29.584 279.986 29.4658V28.2734C279.986 28.0049 279.868 27.876 279.674 27.876C279.567 27.876 279.449 27.9189 279.298 27.9834L276.967 29.0361C276.849 29.0898 276.796 29.1865 276.796 29.3369C276.796 29.4766 276.86 29.5732 276.989 29.6055L277.902 29.874C278.214 29.96 278.375 30.1318 278.375 30.4756V36.1367C278.375 36.7705 278.117 37.1572 277.429 37.3291C276.871 37.4688 276.763 37.4902 276.763 37.7158C276.763 37.8555 276.828 37.9307 276.946 37.9307H281.973C282.081 37.9307 282.134 37.8555 282.134 37.7158C282.134 37.6191 281.973 37.5439 281.662 37.4902C281.35 37.4365 281.103 37.3828 280.931 37.3291C280.244 37.125 279.986 36.7705 279.986 36.1367V31.2383ZM292.329 38.0059C292.329 38.1562 292.382 38.2314 292.49 38.2314C292.533 38.2314 292.576 38.21 292.64 38.1885L295.465 36.9531C295.551 36.9209 295.594 36.8564 295.594 36.7812C295.594 36.5879 295.444 36.4375 295.337 36.4375C295.315 36.4375 295.283 36.4482 295.251 36.459L294.907 36.6094C294.746 36.6846 294.606 36.7168 294.488 36.7168C294.123 36.7168 293.94 36.416 293.94 35.9434V21.0225C293.94 20.7539 293.822 20.625 293.629 20.625C293.532 20.625 293.403 20.668 293.253 20.7324L290.922 21.7852C290.803 21.8389 290.75 21.9355 290.75 22.0859C290.75 22.2256 290.814 22.3223 290.943 22.3545L291.856 22.623C292.168 22.7197 292.329 22.8809 292.329 23.2246V27.9727C292.329 28.1445 292.254 28.2627 292.103 28.2627C292.082 28.2627 292.049 28.2627 292.017 28.252C291.448 28.1123 290.879 28.0479 290.363 28.0479C287.13 28.0479 285.089 30.3037 285.089 33.4941C285.089 35.6748 286.41 38.1455 288.805 38.1455C289.332 38.1455 289.89 38.0059 290.47 37.7051L291.91 36.9531C292.006 36.9102 292.082 36.8779 292.146 36.8779C292.264 36.8779 292.329 36.9854 292.329 37.1465V38.0059ZM291.126 36.5771C290.75 36.7383 290.374 36.8135 289.976 36.8135C287.731 36.8135 286.7 34.9121 286.7 32.7744C286.7 30.8623 287.785 28.8857 289.74 28.8857C291.05 28.8857 292.329 29.7988 292.329 31.1631V35.8037C292.329 35.9648 292.254 36.083 292.114 36.1475L291.126 36.5771Z" fill="white"/>
</g>
<defs>
<linearGradient id="paint0_linear_85_86" x1="338.117" y1="7.4285" x2="87.1971" y2="32.3729" gradientUnits="userSpaceOnUse">
<stop stop-color="white"/>
<stop offset="1" stop-color="#969696"/>
</linearGradient>
<clipPath id="clip0_85_86">
<rect width="389" height="65" fill="white" transform="translate(0.0119629)"/>
</clipPath>
</defs>
</svg>
