<svg width="446" height="71" viewBox="0 0 446 71" fill="none" xmlns="http://www.w3.org/2000/svg">
<path d="M52.2531 1.18994H395.067L420.336 34.7528L395.067 69.4458H52.2531L27.2334 34.7528L52.2531 1.18994Z" fill="#E3D9C4" stroke="white" stroke-width="2" stroke-miterlimit="10"/>
<path d="M14.9061 45.1816C17.7188 40.6001 21.3745 37.3259 25.4274 35.7667L27.7051 34.8912L24.706 33.5839C21.107 32.0127 17.8485 29.0743 15.2546 25.0685L14.0793 22.0461L13.2525 24.5888C10.4398 29.1703 6.78414 32.4445 2.73127 34.0037L0.45355 34.8792L3.45268 36.1865C7.05163 37.7576 10.3101 40.696 12.904 44.7019L14.0793 47.7242L14.9061 45.1816Z" fill="#F3F3F3"/>
<path d="M433.17 44.9937C435.983 40.4122 439.638 37.1379 443.691 35.5788L445.969 34.7032L442.97 33.396C439.371 31.8248 436.112 28.8864 433.519 24.8806L432.343 21.8582L431.516 24.4008C428.704 28.9824 425.048 32.2566 420.995 33.8157L418.717 34.6913L421.717 35.9985C425.316 37.5697 428.574 40.5081 431.168 44.5139L432.343 47.5363L433.17 44.9937Z" fill="white"/>
<path d="M195.41 12.6975H58.2917C95.9189 13.5308 177.792 14.1975 183.292 17.6975C192.017 23.2496 171.292 27.1975 161.792 32.1975C171.792 34.6975 191.692 38.2975 183.292 46.6975C174.892 55.0975 98.6251 55.8642 58.2917 56.6975H195.41L231.292 34.6975L195.41 12.6975Z" fill="#EBE5D7"/>
<path d="M195.41 12.6975H58.2917C95.9189 13.5308 177.792 14.1975 183.292 17.6975C192.017 23.2496 171.292 27.1975 161.792 32.1975C171.792 34.6975 191.692 38.2975 183.292 46.6975C174.892 55.0975 98.6251 55.8642 58.2917 56.6975H195.41L231.292 34.6975L195.41 12.6975Z" fill="#EBE5D7"/>
<path d="M117.553 40.1132C126.945 37.2585 139.152 35.2183 152.686 34.2468L160.292 33.7012L150.277 32.8867C138.259 31.9077 127.378 30.0768 118.716 27.5807L114.792 25.6975L112.031 27.2818C102.639 30.1366 90.4313 32.1767 76.8976 33.1482L69.2917 33.6938L79.3066 34.5083C91.3245 35.4873 102.205 37.3182 110.867 39.8143L114.792 41.6975L117.553 40.1132Z" fill="#EBE5D7"/>
<path d="M309.553 40.1132C318.945 37.2585 331.152 35.2183 344.686 34.2468L352.292 33.7012L342.277 32.8867C330.259 31.9077 319.378 30.0768 310.717 27.5807L306.792 25.6975L304.031 27.2818C294.639 30.1366 282.431 32.1767 268.898 33.1482L261.292 33.6938L271.307 34.5083C283.325 35.4873 294.206 37.3182 302.867 39.8143L306.792 41.6975L309.553 40.1132Z" fill="#EBE5D7"/>
<path d="M236.174 12.6975H373.292C335.665 13.5308 253.792 14.1975 248.292 17.6975C239.567 23.2496 260.292 27.1975 269.792 32.1975C259.792 34.6975 239.892 38.2975 248.292 46.6975C256.692 55.0975 332.959 55.8642 373.292 56.6975H236.174L200.292 34.6975L236.174 12.6975Z" fill="#EBE5D7"/>
<path d="M126.408 23.9978V41.4178C126.408 42.3711 126.218 43.2291 125.836 43.9918C125.455 44.7718 124.935 45.4304 124.276 45.9678C123.635 46.5051 122.898 46.8951 122.066 47.1378C121.234 47.3978 120.368 47.4844 119.466 47.3978V47.1638C120.194 46.8518 120.784 46.3838 121.234 45.7598C121.685 45.1531 122.006 44.4598 122.196 43.6798C122.404 42.9171 122.508 42.1371 122.508 41.3398V23.9978H126.408ZM122.586 25.8958H122.508C122.491 25.4451 122.318 25.0638 121.988 24.7518C121.676 24.4224 121.295 24.2578 120.844 24.2578C120.844 24.2578 120.784 24.2578 120.662 24.2578C120.558 24.2578 120.506 24.2578 120.506 24.2578V23.9978H122.586V25.8958ZM126.33 25.8958V23.9978H128.41V24.2578C128.41 24.2578 128.35 24.2578 128.228 24.2578C128.124 24.2578 128.072 24.2578 128.072 24.2578C127.622 24.2578 127.232 24.4224 126.902 24.7518C126.59 25.0638 126.426 25.4451 126.408 25.8958H126.33ZM138.996 26.2598C140.383 26.2598 141.64 26.4504 142.766 26.8318C143.893 27.1958 144.864 27.7331 145.678 28.4438C146.493 29.1544 147.117 30.0124 147.55 31.0178C148.001 32.0231 148.226 33.1584 148.226 34.4238C148.226 35.6718 148.001 36.7984 147.55 37.8038C147.117 38.7918 146.493 39.6411 145.678 40.3518C144.864 41.0624 143.893 41.6084 142.766 41.9898C141.64 42.3538 140.383 42.5358 138.996 42.5358C137.627 42.5358 136.379 42.3538 135.252 41.9898C134.126 41.6084 133.155 41.0624 132.34 40.3518C131.526 39.6411 130.902 38.7918 130.468 37.8038C130.035 36.7984 129.818 35.6718 129.818 34.4238C129.818 33.1584 130.035 32.0231 130.468 31.0178C130.902 30.0124 131.526 29.1544 132.34 28.4438C133.155 27.7331 134.126 27.1958 135.252 26.8318C136.379 26.4504 137.627 26.2598 138.996 26.2598ZM138.996 41.5218C140.054 41.5218 140.972 41.2358 141.752 40.6638C142.55 40.0744 143.156 39.2511 143.572 38.1938C144.006 37.1364 144.222 35.8798 144.222 34.4238C144.222 32.9504 144.006 31.6851 143.572 30.6278C143.156 29.5531 142.55 28.7298 141.752 28.1578C140.972 27.5684 140.054 27.2738 138.996 27.2738C137.956 27.2738 137.046 27.5684 136.266 28.1578C135.486 28.7298 134.88 29.5531 134.446 30.6278C134.013 31.6851 133.796 32.9504 133.796 34.4238C133.796 35.8798 134.013 37.1364 134.446 38.1938C134.88 39.2511 135.486 40.0744 136.266 40.6638C137.046 41.2358 137.956 41.5218 138.996 41.5218ZM155.263 26.5978V42.1978H151.519V26.5978H155.263ZM151.597 40.5598V42.1978H149.699V41.9378C149.699 41.9378 149.751 41.9378 149.855 41.9378C149.959 41.9378 150.019 41.9378 150.037 41.9378C150.435 41.9378 150.782 41.8078 151.077 41.5478C151.371 41.2704 151.519 40.9411 151.519 40.5598H151.597ZM155.211 40.5598H155.263C155.28 40.9411 155.427 41.2704 155.705 41.5478C155.999 41.8078 156.355 41.9378 156.771 41.9378C156.771 41.9378 156.814 41.9378 156.901 41.9378C157.005 41.9378 157.065 41.9378 157.083 41.9378V42.1978H155.211V40.5598ZM155.211 28.2358V26.5978H157.083L157.057 26.8578C157.057 26.8578 157.013 26.8578 156.927 26.8578C156.84 26.8578 156.788 26.8578 156.771 26.8578C156.355 26.8578 155.999 26.9878 155.705 27.2478C155.427 27.5078 155.28 27.8371 155.263 28.2358H155.211ZM151.597 28.2358H151.519C151.519 27.8371 151.371 27.5078 151.077 27.2478C150.782 26.9878 150.427 26.8578 150.011 26.8578C150.011 26.8578 149.959 26.8578 149.855 26.8578C149.751 26.8578 149.699 26.8578 149.699 26.8578V26.5978H151.597V28.2358ZM160.321 26.2338L175.583 39.6498L175.843 42.5358L160.607 29.1198L160.321 26.2338ZM160.425 40.6118V42.1978H158.501V41.9378C158.501 41.9378 158.571 41.9378 158.709 41.9378C158.848 41.9378 158.917 41.9378 158.917 41.9378C159.316 41.9378 159.654 41.8164 159.931 41.5738C160.209 41.3138 160.347 40.9931 160.347 40.6118H160.425ZM163.909 40.6118C163.927 40.9931 164.074 41.3138 164.351 41.5738C164.629 41.8164 164.958 41.9378 165.339 41.9378C165.339 41.9378 165.409 41.9378 165.547 41.9378C165.703 41.9378 165.781 41.9378 165.781 41.9378V42.1978H163.857V40.6118H163.909ZM160.321 26.2338L163.909 30.1338V42.1978H160.347V29.1978C160.347 28.3138 160.304 27.6031 160.217 27.0658C160.131 26.5111 160.087 26.2338 160.087 26.2338H160.321ZM175.817 26.5978V39.4938C175.817 40.1004 175.835 40.6378 175.869 41.1058C175.921 41.5564 175.965 41.9118 175.999 42.1718C176.051 42.4144 176.077 42.5358 176.077 42.5358H175.843L172.255 38.4018V26.5978H175.817ZM175.739 28.1838V26.5978H177.689V26.8578C177.689 26.8578 177.611 26.8578 177.455 26.8578C177.317 26.8578 177.247 26.8578 177.247 26.8578C176.866 26.8578 176.528 26.9878 176.233 27.2478C175.956 27.4904 175.817 27.8024 175.817 28.1838H175.739ZM172.255 28.1838C172.238 27.8024 172.091 27.4904 171.813 27.2478C171.553 26.9878 171.224 26.8578 170.825 26.8578C170.825 26.8578 170.747 26.8578 170.591 26.8578C170.453 26.8578 170.383 26.8578 170.383 26.8578V26.5978H172.307V28.1838H172.255ZM194.805 26.2598C196.192 26.2598 197.448 26.4504 198.575 26.8318C199.702 27.1958 200.672 27.7331 201.487 28.4438C202.302 29.1544 202.926 30.0124 203.359 31.0178C203.81 32.0231 204.035 33.1584 204.035 34.4238C204.035 35.6718 203.81 36.7984 203.359 37.8038C202.926 38.7918 202.302 39.6411 201.487 40.3518C200.672 41.0624 199.702 41.6084 198.575 41.9898C197.448 42.3538 196.192 42.5358 194.805 42.5358C193.436 42.5358 192.188 42.3538 191.061 41.9898C189.934 41.6084 188.964 41.0624 188.149 40.3518C187.334 39.6411 186.71 38.7918 186.277 37.8038C185.844 36.7984 185.627 35.6718 185.627 34.4238C185.627 33.1584 185.844 32.0231 186.277 31.0178C186.71 30.0124 187.334 29.1544 188.149 28.4438C188.964 27.7331 189.934 27.1958 191.061 26.8318C192.188 26.4504 193.436 26.2598 194.805 26.2598ZM194.805 41.5218C195.862 41.5218 196.781 41.2358 197.561 40.6638C198.358 40.0744 198.965 39.2511 199.381 38.1938C199.814 37.1364 200.031 35.8798 200.031 34.4238C200.031 32.9504 199.814 31.6851 199.381 30.6278C198.965 29.5531 198.358 28.7298 197.561 28.1578C196.781 27.5684 195.862 27.2738 194.805 27.2738C193.765 27.2738 192.855 27.5684 192.075 28.1578C191.295 28.7298 190.688 29.5531 190.255 30.6278C189.822 31.6851 189.605 32.9504 189.605 34.4238C189.605 35.8798 189.822 37.1364 190.255 38.1938C190.688 39.2511 191.295 40.0744 192.075 40.6638C192.855 41.2358 193.765 41.5218 194.805 41.5218ZM210.832 26.5978V36.3998C210.832 37.9944 211.196 39.2424 211.924 40.1438C212.67 41.0451 213.701 41.4958 215.018 41.4958C216.388 41.4958 217.445 41.0711 218.19 40.2218C218.953 39.3724 219.343 38.1938 219.36 36.6858V26.5978H221.076V36.5298C221.076 38.3844 220.504 39.8491 219.36 40.9238C218.234 41.9984 216.63 42.5358 214.55 42.5358C212.037 42.5358 210.165 42.0071 208.934 40.9498C207.704 39.8751 207.088 38.4104 207.088 36.5558V26.5978H210.832ZM207.14 26.5978V27.9498H207.088C207.071 27.6204 206.95 27.3518 206.724 27.1438C206.499 26.9358 206.222 26.8318 205.892 26.8318C205.892 26.8318 205.832 26.8318 205.71 26.8318C205.589 26.8318 205.528 26.8318 205.528 26.8318V26.5978H207.14ZM212.366 26.5978V26.8318C212.366 26.8318 212.306 26.8318 212.184 26.8318C212.063 26.8318 212.002 26.8318 212.002 26.8318C211.673 26.8318 211.396 26.9358 211.17 27.1438C210.945 27.3518 210.832 27.6204 210.832 27.9498H210.78V26.5978H212.366ZM219.412 26.5978V27.9498H219.36C219.343 27.6204 219.222 27.3518 218.996 27.1438C218.771 26.9358 218.502 26.8318 218.19 26.8318C218.19 26.8318 218.13 26.8318 218.008 26.8318C217.887 26.8318 217.826 26.8318 217.826 26.8318V26.5978H219.412ZM222.61 26.5978V26.8318C222.61 26.8318 222.55 26.8318 222.428 26.8318C222.324 26.8318 222.272 26.8318 222.272 26.8318C221.943 26.8318 221.657 26.9358 221.414 27.1438C221.189 27.3518 221.076 27.6204 221.076 27.9498H221.024V26.5978H222.61ZM229.424 26.5978H232.232C232.943 26.5978 233.636 26.6758 234.312 26.8318C234.988 26.9704 235.595 27.2044 236.132 27.5338C236.67 27.8458 237.094 28.2791 237.406 28.8338C237.736 29.3711 237.9 30.0471 237.9 30.8618C237.9 31.4684 237.77 32.0751 237.51 32.6818C237.268 33.2711 236.878 33.7824 236.34 34.2158C235.82 34.6491 235.136 34.9351 234.286 35.0738C234.789 35.2298 235.266 35.5331 235.716 35.9838C236.184 36.4344 236.548 36.8591 236.808 37.2578C236.878 37.3964 236.999 37.6218 237.172 37.9338C237.346 38.2284 237.562 38.5751 237.822 38.9738C238.1 39.3551 238.386 39.7538 238.68 40.1698C239.027 40.6378 239.33 41.0018 239.59 41.2618C239.85 41.5044 240.119 41.6778 240.396 41.7818C240.674 41.8858 240.994 41.9378 241.358 41.9378V42.1978H239.174C238.238 42.1978 237.441 42.1284 236.782 41.9898C236.141 41.8511 235.578 41.5998 235.092 41.2358C234.624 40.8544 234.191 40.3431 233.792 39.7018C233.636 39.4764 233.472 39.2078 233.298 38.8958C233.125 38.5664 232.952 38.2371 232.778 37.9078C232.605 37.5784 232.449 37.2578 232.31 36.9458C232.189 36.6338 232.102 36.3738 232.05 36.1658C231.825 35.6111 231.565 35.2124 231.27 34.9698C230.993 34.7098 230.733 34.5798 230.49 34.5798V34.3458C230.49 34.3458 230.551 34.3458 230.672 34.3458C230.794 34.3458 230.95 34.3458 231.14 34.3458C231.504 34.3458 231.86 34.2851 232.206 34.1638C232.57 34.0251 232.9 33.7738 233.194 33.4098C233.489 33.0284 233.706 32.4738 233.844 31.7458C233.879 31.6418 233.905 31.4944 233.922 31.3038C233.957 31.1131 233.966 30.8964 233.948 30.6538C233.914 30.0124 233.792 29.5011 233.584 29.1198C233.394 28.7211 233.151 28.4264 232.856 28.2358C232.562 28.0278 232.258 27.8891 231.946 27.8198C231.652 27.7331 231.392 27.6898 231.166 27.6898C230.837 27.6724 230.534 27.6724 230.256 27.6898C229.996 27.6898 229.797 27.6811 229.658 27.6638C229.641 27.6638 229.615 27.5771 229.58 27.4038C229.546 27.2131 229.511 27.0311 229.476 26.8578C229.442 26.6844 229.424 26.5978 229.424 26.5978ZM229.684 26.5978V42.1978H225.914V26.5978H229.684ZM225.992 40.5598L226.096 42.1978H224.224V41.9378C224.242 41.9378 224.285 41.9378 224.354 41.9378C224.441 41.9378 224.502 41.9378 224.536 41.9378C224.918 41.9378 225.238 41.8078 225.498 41.5478C225.776 41.2704 225.923 40.9411 225.94 40.5598H225.992ZM225.992 28.2098H225.94C225.923 27.8111 225.776 27.4904 225.498 27.2478C225.238 26.9878 224.926 26.8578 224.562 26.8578C224.51 26.8578 224.441 26.8578 224.354 26.8578C224.285 26.8578 224.242 26.8578 224.224 26.8578V26.5978H226.096L225.992 28.2098ZM229.632 40.5598H229.684C229.684 40.9931 229.832 41.3311 230.126 41.5738C230.438 41.8164 230.768 41.9378 231.114 41.9378C231.114 41.9378 231.149 41.9378 231.218 41.9378C231.288 41.9378 231.34 41.9378 231.374 41.9378V42.1978H229.502L229.632 40.5598ZM257.302 23.9978C259.347 23.9978 261.115 24.3704 262.606 25.1158C264.096 25.8438 265.24 26.8924 266.038 28.2618C266.852 29.6138 267.26 31.2258 267.26 33.0978C267.26 34.9698 266.852 36.5904 266.038 37.9598C265.24 39.3118 264.096 40.3604 262.606 41.1058C261.115 41.8338 259.347 42.1978 257.302 42.1978H251.114L251.088 41.1058C251.59 41.1058 252.11 41.1058 252.648 41.1058C253.202 41.1058 253.74 41.1058 254.26 41.1058C254.78 41.1058 255.239 41.1058 255.638 41.1058C256.054 41.1058 256.383 41.1058 256.626 41.1058C256.868 41.1058 256.99 41.1058 256.99 41.1058C258.238 41.1058 259.312 40.7851 260.214 40.1438C261.115 39.4851 261.808 38.5578 262.294 37.3618C262.779 36.1658 263.022 34.7444 263.022 33.0978C263.022 31.4511 262.779 30.0298 262.294 28.8338C261.808 27.6378 261.115 26.7191 260.214 26.0778C259.312 25.4191 258.238 25.0898 256.99 25.0898C256.99 25.0898 256.86 25.0898 256.6 25.0898C256.357 25.0898 256.019 25.0898 255.586 25.0898C255.152 25.0898 254.667 25.0898 254.13 25.0898C253.592 25.0898 253.038 25.0898 252.466 25.0898C251.894 25.0898 251.348 25.0898 250.828 25.0898V23.9978H257.302ZM253.766 23.9978V42.1978H249.866V23.9978H253.766ZM249.944 40.2998V42.1978H247.864V41.9378C247.864 41.9378 247.916 41.9378 248.02 41.9378C248.141 41.9378 248.202 41.9378 248.202 41.9378C248.652 41.9378 249.034 41.7818 249.346 41.4698C249.675 41.1404 249.848 40.7504 249.866 40.2998H249.944ZM249.944 25.8958H249.866C249.866 25.4451 249.701 25.0638 249.372 24.7518C249.042 24.4224 248.652 24.2578 248.202 24.2578C248.202 24.2578 248.15 24.2578 248.046 24.2578C247.942 24.2578 247.89 24.2578 247.89 24.2578L247.864 23.9978H249.944V25.8958ZM274.319 26.5978V42.1978H270.575V26.5978H274.319ZM270.653 40.5598V42.1978H268.755V41.9378C268.755 41.9378 268.807 41.9378 268.911 41.9378C269.015 41.9378 269.076 41.9378 269.093 41.9378C269.492 41.9378 269.839 41.8078 270.133 41.5478C270.428 41.2704 270.575 40.9411 270.575 40.5598H270.653ZM274.267 40.5598H274.319C274.337 40.9411 274.484 41.2704 274.761 41.5478C275.056 41.8078 275.411 41.9378 275.827 41.9378C275.827 41.9378 275.871 41.9378 275.957 41.9378C276.061 41.9378 276.122 41.9378 276.139 41.9378V42.1978H274.267V40.5598ZM274.267 28.2358V26.5978H276.139L276.113 26.8578C276.113 26.8578 276.07 26.8578 275.983 26.8578C275.897 26.8578 275.845 26.8578 275.827 26.8578C275.411 26.8578 275.056 26.9878 274.761 27.2478C274.484 27.5078 274.337 27.8371 274.319 28.2358H274.267ZM270.653 28.2358H270.575C270.575 27.8371 270.428 27.5078 270.133 27.2478C269.839 26.9878 269.483 26.8578 269.067 26.8578C269.067 26.8578 269.015 26.8578 268.911 26.8578C268.807 26.8578 268.755 26.8578 268.755 26.8578V26.5978H270.653V28.2358ZM283.2 26.2598C283.547 26.2598 283.963 26.2771 284.448 26.3118C284.951 26.3464 285.445 26.3898 285.93 26.4418C286.415 26.4764 286.84 26.5284 287.204 26.5978C287.585 26.6498 287.845 26.7018 287.984 26.7538L287.646 29.9258H287.412C287.412 29.1284 287.135 28.4958 286.58 28.0278C286.025 27.5598 285.228 27.3258 284.188 27.3258C283.356 27.3258 282.68 27.5078 282.16 27.8718C281.657 28.2358 281.389 28.7211 281.354 29.3278C281.319 29.6398 281.371 29.9258 281.51 30.1858C281.666 30.4284 281.874 30.6451 282.134 30.8358C282.411 31.0264 282.715 31.2171 283.044 31.4078L287.126 33.9298C287.819 34.2764 288.365 34.7791 288.764 35.4378C289.163 36.0964 289.336 36.8938 289.284 37.8298C289.232 38.8004 288.946 39.6411 288.426 40.3518C287.923 41.0624 287.221 41.6084 286.32 41.9898C285.436 42.3538 284.387 42.5358 283.174 42.5358C282.429 42.5358 281.735 42.4751 281.094 42.3538C280.453 42.2324 279.898 42.0678 279.43 41.8598C278.979 41.6518 278.633 41.4178 278.39 41.1578C278.251 40.8111 278.191 40.3951 278.208 39.9098C278.225 39.4071 278.303 38.9131 278.442 38.4278C278.581 37.9251 278.754 37.5091 278.962 37.1798H279.17C279.118 37.9598 279.257 38.6791 279.586 39.3378C279.933 39.9964 280.435 40.5251 281.094 40.9238C281.753 41.3051 282.541 41.4958 283.46 41.4958C284.465 41.4958 285.219 41.2618 285.722 40.7938C286.225 40.3258 286.476 39.7798 286.476 39.1558C286.476 38.6878 286.32 38.2718 286.008 37.9078C285.713 37.5264 285.219 37.1538 284.526 36.7898L280.834 34.4498C279.967 33.9991 279.335 33.4011 278.936 32.6558C278.555 31.9104 278.416 31.0958 278.52 30.2118C278.607 29.3798 278.849 28.6691 279.248 28.0798C279.664 27.4904 280.21 27.0398 280.886 26.7278C281.562 26.4158 282.333 26.2598 283.2 26.2598ZM287.984 26.4938L287.958 26.9618H285.176V26.4938H287.984ZM307.029 35.6718L307.315 39.5978C306.986 40.1524 306.527 40.6551 305.937 41.1058C305.348 41.5391 304.628 41.8858 303.779 42.1458C302.93 42.4058 301.942 42.5358 300.815 42.5358C298.874 42.5184 297.201 42.1891 295.797 41.5478C294.393 40.9064 293.31 39.9878 292.547 38.7918C291.802 37.5784 291.429 36.1051 291.429 34.3718C291.429 32.6731 291.802 31.2258 292.547 30.0298C293.292 28.8164 294.367 27.8891 295.771 27.2478C297.175 26.5891 298.856 26.2598 300.815 26.2598C301.994 26.2598 303.086 26.3724 304.091 26.5978C305.114 26.8231 305.963 27.1091 306.639 27.4558L306.665 31.5898H306.457C306.024 29.9951 305.339 28.8771 304.403 28.2358C303.467 27.5944 302.358 27.2738 301.075 27.2738C299.81 27.2738 298.752 27.5684 297.903 28.1578C297.071 28.7471 296.438 29.5704 296.005 30.6278C295.589 31.6851 295.381 32.9244 295.381 34.3458C295.381 35.7844 295.589 37.0324 296.005 38.0898C296.438 39.1471 297.062 39.9704 297.877 40.5598C298.692 41.1491 299.671 41.4611 300.815 41.4958C302.046 41.4958 303.06 41.3051 303.857 40.9238C304.672 40.5424 305.313 39.9271 305.781 39.0778C306.266 38.2284 306.613 37.0931 306.821 35.6718H307.029ZM318.787 26.2598C320.174 26.2598 321.431 26.4504 322.557 26.8318C323.684 27.1958 324.655 27.7331 325.469 28.4438C326.284 29.1544 326.908 30.0124 327.341 31.0178C327.792 32.0231 328.017 33.1584 328.017 34.4238C328.017 35.6718 327.792 36.7984 327.341 37.8038C326.908 38.7918 326.284 39.6411 325.469 40.3518C324.655 41.0624 323.684 41.6084 322.557 41.9898C321.431 42.3538 320.174 42.5358 318.787 42.5358C317.418 42.5358 316.17 42.3538 315.043 41.9898C313.917 41.6084 312.946 41.0624 312.131 40.3518C311.317 39.6411 310.693 38.7918 310.259 37.8038C309.826 36.7984 309.609 35.6718 309.609 34.4238C309.609 33.1584 309.826 32.0231 310.259 31.0178C310.693 30.0124 311.317 29.1544 312.131 28.4438C312.946 27.7331 313.917 27.1958 315.043 26.8318C316.17 26.4504 317.418 26.2598 318.787 26.2598ZM318.787 41.5218C319.845 41.5218 320.763 41.2358 321.543 40.6638C322.341 40.0744 322.947 39.2511 323.363 38.1938C323.797 37.1364 324.013 35.8798 324.013 34.4238C324.013 32.9504 323.797 31.6851 323.363 30.6278C322.947 29.5531 322.341 28.7298 321.543 28.1578C320.763 27.5684 319.845 27.2738 318.787 27.2738C317.747 27.2738 316.837 27.5684 316.057 28.1578C315.277 28.7298 314.671 29.5531 314.237 30.6278C313.804 31.6851 313.587 32.9504 313.587 34.4238C313.587 35.8798 313.804 37.1364 314.237 38.1938C314.671 39.2511 315.277 40.0744 316.057 40.6638C316.837 41.2358 317.747 41.5218 318.787 41.5218ZM334.872 26.5978H337.68C338.39 26.5978 339.084 26.6758 339.76 26.8318C340.436 26.9704 341.042 27.2044 341.58 27.5338C342.117 27.8458 342.542 28.2791 342.854 28.8338C343.183 29.3711 343.348 30.0471 343.348 30.8618C343.348 31.4684 343.218 32.0751 342.958 32.6818C342.715 33.2711 342.325 33.7824 341.788 34.2158C341.268 34.6491 340.583 34.9351 339.734 35.0738C340.236 35.2298 340.713 35.5331 341.164 35.9838C341.632 36.4344 341.996 36.8591 342.256 37.2578C342.325 37.3964 342.446 37.6218 342.62 37.9338C342.793 38.2284 343.01 38.5751 343.27 38.9738C343.547 39.3551 343.833 39.7538 344.128 40.1698C344.474 40.6378 344.778 41.0018 345.038 41.2618C345.298 41.5044 345.566 41.6778 345.844 41.7818C346.121 41.8858 346.442 41.9378 346.806 41.9378V42.1978H344.622C343.686 42.1978 342.888 42.1284 342.23 41.9898C341.588 41.8511 341.025 41.5998 340.54 41.2358C340.072 40.8544 339.638 40.3431 339.24 39.7018C339.084 39.4764 338.919 39.2078 338.746 38.8958C338.572 38.5664 338.399 38.2371 338.226 37.9078C338.052 37.5784 337.896 37.2578 337.758 36.9458C337.636 36.6338 337.55 36.3738 337.498 36.1658C337.272 35.6111 337.012 35.2124 336.718 34.9698C336.44 34.7098 336.18 34.5798 335.938 34.5798V34.3458C335.938 34.3458 335.998 34.3458 336.12 34.3458C336.241 34.3458 336.397 34.3458 336.588 34.3458C336.952 34.3458 337.307 34.2851 337.654 34.1638C338.018 34.0251 338.347 33.7738 338.642 33.4098C338.936 33.0284 339.153 32.4738 339.292 31.7458C339.326 31.6418 339.352 31.4944 339.37 31.3038C339.404 31.1131 339.413 30.8964 339.396 30.6538C339.361 30.0124 339.24 29.5011 339.032 29.1198C338.841 28.7211 338.598 28.4264 338.304 28.2358C338.009 28.0278 337.706 27.8891 337.394 27.8198C337.099 27.7331 336.839 27.6898 336.614 27.6898C336.284 27.6724 335.981 27.6724 335.704 27.6898C335.444 27.6898 335.244 27.6811 335.106 27.6638C335.088 27.6638 335.062 27.5771 335.028 27.4038C334.993 27.2131 334.958 27.0311 334.924 26.8578C334.889 26.6844 334.872 26.5978 334.872 26.5978ZM335.132 26.5978V42.1978H331.362V26.5978H335.132ZM331.44 40.5598L331.544 42.1978H329.672V41.9378C329.689 41.9378 329.732 41.9378 329.802 41.9378C329.888 41.9378 329.949 41.9378 329.984 41.9378C330.365 41.9378 330.686 41.8078 330.946 41.5478C331.223 41.2704 331.37 40.9411 331.388 40.5598H331.44ZM331.44 28.2098H331.388C331.37 27.8111 331.223 27.4904 330.946 27.2478C330.686 26.9878 330.374 26.8578 330.01 26.8578C329.958 26.8578 329.888 26.8578 329.802 26.8578C329.732 26.8578 329.689 26.8578 329.672 26.8578V26.5978H331.544L331.44 28.2098ZM335.08 40.5598H335.132C335.132 40.9931 335.279 41.3311 335.574 41.5738C335.886 41.8164 336.215 41.9378 336.562 41.9378C336.562 41.9378 336.596 41.9378 336.666 41.9378C336.735 41.9378 336.787 41.9378 336.822 41.9378V42.1978H334.95L335.08 40.5598ZM355.365 26.5978C357.22 26.5978 358.814 26.9098 360.149 27.5338C361.484 28.1404 362.506 29.0331 363.217 30.2118C363.928 31.3731 364.283 32.7684 364.283 34.3978C364.283 36.0271 363.928 37.4224 363.217 38.5838C362.506 39.7451 361.484 40.6378 360.149 41.2618C358.814 41.8858 357.22 42.1978 355.365 42.1978H349.593L349.541 41.1578C350.858 41.1578 351.916 41.1578 352.713 41.1578C353.528 41.1578 354.117 41.1578 354.481 41.1578C354.862 41.1578 355.053 41.1578 355.053 41.1578C356.682 41.1578 357.965 40.5598 358.901 39.3638C359.837 38.1678 360.305 36.5124 360.305 34.3978C360.305 32.2831 359.837 30.6278 358.901 29.4318C357.965 28.2184 356.682 27.6118 355.053 27.6118C355.053 27.6118 354.862 27.6118 354.481 27.6118C354.1 27.6118 353.484 27.6118 352.635 27.6118C351.786 27.6118 350.668 27.6118 349.281 27.6118V26.5978H355.365ZM352.115 26.5978V42.1978H348.371V26.5978H352.115ZM348.449 40.5338V42.1978H346.577V41.9378C346.577 41.9378 346.629 41.9378 346.733 41.9378C346.837 41.9378 346.898 41.9378 346.915 41.9378C347.314 41.9378 347.652 41.7991 347.929 41.5218C348.224 41.2444 348.371 40.9151 348.371 40.5338H348.449ZM348.423 28.2358H348.371C348.354 27.8371 348.198 27.5078 347.903 27.2478C347.626 26.9878 347.288 26.8578 346.889 26.8578C346.889 26.8578 346.837 26.8578 346.733 26.8578C346.629 26.8578 346.577 26.8578 346.577 26.8578V26.5978H348.423V28.2358Z" fill="#3B4255"/>
<path d="M95.0542 23.9186C92.8418 22.9151 90.4831 22.1803 88.0147 21.7681C87.9781 21.7681 87.9233 21.7681 87.905 21.8219C87.5942 22.3595 87.2651 23.0405 87.0274 23.5961C84.3761 23.2018 81.7249 23.2018 79.1102 23.5961C78.8725 23.0405 78.5251 22.3595 78.2143 21.8219C78.196 21.786 78.1411 21.7681 78.1046 21.7681C75.6362 22.1803 73.2592 22.9151 71.0651 23.9186C71.0468 23.9186 71.0285 23.9366 71.0102 23.9545C66.5305 30.5494 65.2872 36.9829 65.8906 43.3449C65.8906 43.3807 65.9089 43.3986 65.9272 43.4165C68.8892 45.5491 71.7599 46.8573 74.5757 47.7175C74.6123 47.7175 74.6671 47.7175 74.7037 47.6817C75.3619 46.7857 75.9653 45.8359 76.4773 44.8502C76.5138 44.7964 76.4773 44.7248 76.4224 44.7068C75.4899 44.3484 74.5757 43.9183 73.7163 43.4345C73.6432 43.3986 73.6432 43.2911 73.7163 43.2553C73.8992 43.1298 74.082 42.9864 74.2466 42.8431C74.2831 42.8252 74.3197 42.8072 74.3563 42.8431C80.0244 45.3878 86.1497 45.3878 91.7447 42.8431C91.7813 42.8431 91.8179 42.8431 91.8544 42.8431C92.019 42.9864 92.2018 43.1298 92.3847 43.2553C92.4395 43.309 92.4395 43.3986 92.3847 43.4345C91.5253 43.9362 90.6294 44.3484 89.6786 44.7068C89.6237 44.7248 89.5872 44.7964 89.6237 44.8502C90.1357 45.8359 90.7391 46.7857 91.3973 47.6817C91.4156 47.7175 91.4705 47.7355 91.5253 47.7175C94.3594 46.8573 97.2301 45.5491 100.174 43.4165C100.192 43.3986 100.21 43.3628 100.21 43.3449C100.924 35.9973 99.0037 29.6175 95.0908 23.9545C95.0908 23.9366 95.0725 23.9186 95.0542 23.9186ZM77.3183 39.4739C75.6179 39.4739 74.21 37.9328 74.21 36.0331C74.21 34.1335 75.5813 32.5923 77.3183 32.5923C79.0554 32.5923 80.4633 34.1514 80.4267 36.0331C80.4267 37.9328 79.0554 39.4739 77.3183 39.4739ZM88.8192 39.4739C87.1188 39.4739 85.7109 37.9328 85.7109 36.0331C85.7109 34.1335 87.0822 32.5923 88.8192 32.5923C90.5563 32.5923 91.9641 34.1514 91.9276 36.0331C91.9276 37.9328 90.5563 39.4739 88.8192 39.4739Z" fill="#3B4255"/>
<path d="M55.7397 5.71802H392.388L413.822 34.7176L392.388 64.9781L55.7397 66.239L33.6748 34.7176L55.7397 5.71802Z" stroke="#D1B790" stroke-width="1.91567" stroke-miterlimit="10"/>
</svg>
