<svg width="101" height="79" viewBox="0 0 101 79" fill="none" xmlns="http://www.w3.org/2000/svg">
<g filter="url(#filter0_d_247_160)">
<path d="M30.6295 4.94067H69.714L93.6911 36.787L69.714 69.7056H30.6295L6.8894 36.787L30.6295 4.94067Z" fill="black" fill-opacity="0.27" stroke="url(#paint0_linear_247_160)" stroke-width="1.13025" stroke-miterlimit="10"/>
<path d="M65.0074 22.5211C62.3001 21.3002 59.3982 20.3978 56.3635 19.8846C56.3365 19.8794 56.3085 19.8828 56.2835 19.8942C56.2584 19.9056 56.2375 19.9245 56.2237 19.9483C55.8521 20.6013 55.4381 21.4524 55.1479 22.1248C51.9294 21.6439 48.6573 21.6439 45.4388 22.1248C45.1156 21.3796 44.7511 20.653 44.347 19.9483C44.3333 19.9242 44.3126 19.9049 44.2876 19.8929C44.2627 19.8808 44.2346 19.8767 44.2072 19.8811C41.1744 20.3942 38.2724 21.2967 35.5634 22.5194C35.54 22.5291 35.5203 22.5458 35.5067 22.5671C30.0001 30.6625 28.4908 38.5579 29.2322 46.3542C29.2342 46.3733 29.2402 46.3917 29.2496 46.4085C29.259 46.4252 29.2718 46.4398 29.287 46.4515C32.5011 48.7915 36.0859 50.574 39.8915 51.7245C39.918 51.7327 39.9464 51.7327 39.9729 51.7244C39.9994 51.7162 40.0228 51.7002 40.0401 51.6785C40.859 50.5833 41.5847 49.4214 42.2095 48.205C42.2182 48.1884 42.2232 48.1701 42.2242 48.1514C42.2251 48.1326 42.2221 48.1139 42.2152 48.0965C42.2083 48.079 42.1978 48.0632 42.1843 48.0502C42.1708 48.0372 42.1546 48.0272 42.1369 48.021C40.9939 47.5905 39.8863 47.0711 38.8245 46.4674C38.8054 46.4565 38.7893 46.4411 38.7777 46.4224C38.7661 46.4038 38.7592 46.3826 38.7578 46.3606C38.7564 46.3387 38.7605 46.3168 38.7697 46.2968C38.7788 46.2768 38.7928 46.2595 38.8103 46.2462C39.0333 46.0817 39.2562 45.91 39.4686 45.7384C39.4877 45.723 39.5107 45.7131 39.5351 45.71C39.5595 45.7069 39.5842 45.7106 39.6066 45.7207C46.5553 48.842 54.0809 48.842 60.9482 45.7207C60.9707 45.71 60.9957 45.7058 61.0204 45.7086C61.0451 45.7114 61.0685 45.7211 61.088 45.7366C61.3003 45.91 61.5215 46.0817 61.7463 46.2462C61.764 46.2592 61.7782 46.2763 61.7876 46.2961C61.7971 46.3159 61.8015 46.3378 61.8004 46.3597C61.7994 46.3816 61.7929 46.4029 61.7816 46.4217C61.7703 46.4405 61.7545 46.4562 61.7356 46.4674C60.6775 47.0761 59.5769 47.591 58.4214 48.0192C58.4037 48.0257 58.3875 48.0358 58.374 48.049C58.3605 48.0622 58.3499 48.0781 58.3431 48.0957C58.3362 48.1133 58.3332 48.1321 58.3342 48.151C58.3352 48.1698 58.3402 48.1883 58.3489 48.205C58.9859 49.4207 59.7149 50.5779 60.5165 51.6767C60.5331 51.6993 60.5563 51.7161 60.5829 51.725C60.6095 51.7339 60.6382 51.7343 60.6651 51.7263C64.4772 50.579 68.0679 48.7956 71.2855 46.4515C71.3012 46.4405 71.3144 46.4263 71.3241 46.4098C71.3339 46.3933 71.34 46.375 71.3421 46.3559C72.2268 37.3422 69.8593 29.5105 65.0622 22.5707C65.0505 22.5481 65.031 22.5305 65.0074 22.5211ZM43.2482 41.6067C41.1567 41.6067 39.4314 39.7151 39.4314 37.3953C39.4314 35.0738 41.123 33.184 43.2482 33.184C45.3892 33.184 47.0986 35.0897 47.0649 37.3953C47.0649 39.7169 45.3733 41.6067 43.2482 41.6067ZM57.3597 41.6067C55.2664 41.6067 53.543 39.7151 53.543 37.3953C53.543 35.0738 55.2328 33.184 57.3597 33.184C59.5008 33.184 61.2101 35.0897 61.1765 37.3953C61.1765 39.7169 59.5026 41.6067 57.3597 41.6067Z" fill="white"/>
<path d="M31.8781 9.20184H68.3498L88.7388 36.7869L68.3498 65.5713L31.8781 66.7707L10.8894 36.7869L31.8781 9.20184Z" stroke="white" stroke-opacity="0.14" stroke-width="1.08259" stroke-miterlimit="10"/>
</g>
<defs>
<filter id="filter0_d_247_160" x="0.53748" y="0.984805" width="99.508" height="77.1977" filterUnits="userSpaceOnUse" color-interpolation-filters="sRGB">
<feFlood flood-opacity="0" result="BackgroundImageFix"/>
<feColorMatrix in="SourceAlpha" type="matrix" values="0 0 0 0 0 0 0 0 0 0 0 0 0 0 0 0 0 0 127 0" result="hardAlpha"/>
<feOffset dy="2.2605"/>
<feGaussianBlur stdDeviation="2.82562"/>
<feComposite in2="hardAlpha" operator="out"/>
<feColorMatrix type="matrix" values="0 0 0 0 0 0 0 0 0 0 0 0 0 0 0 0 0 0 0.12 0"/>
<feBlend mode="normal" in2="BackgroundImageFix" result="effect1_dropShadow_247_160"/>
<feBlend mode="normal" in="SourceGraphic" in2="effect1_dropShadow_247_160" result="shape"/>
</filter>
<linearGradient id="paint0_linear_247_160" x1="50.2903" y1="-15.3717" x2="50.2903" y2="97.0742" gradientUnits="userSpaceOnUse">
<stop stop-color="white"/>
<stop offset="1" stop-color="#959595"/>
</linearGradient>
</defs>
</svg>
