<svg width="67" height="71" viewBox="0 0 67 71" fill="none" xmlns="http://www.w3.org/2000/svg">
<circle cx="33.234" cy="36.214" r="27.5123" fill="black" fill-opacity="0.27" stroke="#766A95" stroke-width="2" stroke-miterlimit="10"/>
<circle opacity="0.1" cx="33.2339" cy="36.2144" r="21.4971" fill="black" fill-opacity="0.27" stroke="#766A95" stroke-width="2" stroke-miterlimit="10"/>
<path d="M47.3896 10.8662C45.2772 10.4819 41.8496 9.49364 38.2626 6.55627C36.0041 4.68953 34.3567 2.63063 33.2407 0.956055C31.9653 2.65808 30.1586 4.71699 27.7805 6.55627C24.4193 9.16422 21.2574 10.3172 19.0786 10.8662L33.2407 8.87929L47.3896 10.8662Z" fill="#766A95"/>
<path d="M5.7218 30.9725C5.7218 30.9725 1.79616 34.8784 0.121582 35.9943C1.82361 37.2697 5.7218 41.4546 5.7218 41.4546L5.7218 30.9725Z" fill="#766A95"/>
<path d="M60.7465 30.9725C60.7465 30.9725 64.6721 34.8784 66.3467 35.9943C64.6447 37.2697 60.7465 41.4546 60.7465 41.4546L60.7465 30.9725Z" fill="#766A95"/>
<path d="M19.0792 61.0346C21.1915 61.419 24.6191 62.4072 28.2062 65.3446C30.4647 67.2113 32.1121 69.2702 33.228 70.9448C34.5034 69.2428 36.3102 67.1839 38.6883 65.3446C42.0494 62.7367 45.2113 61.5837 47.3901 61.0346L33.228 63.0216L19.0792 61.0346Z" fill="#766A95"/>
<path d="M45.6853 23.7632L20.7837 48.6646" stroke="#D2C8EB" stroke-width="2"/>
<path d="M20.7839 23.7632L45.6855 48.6646" stroke="#D2C8EB" stroke-width="2"/>
</svg>
