<svg width="87" height="93" viewBox="0 0 87 93" fill="none" xmlns="http://www.w3.org/2000/svg">
<circle cx="43.5965" cy="46.7352" r="35.4681" fill="black" fill-opacity="0.27" stroke="white" stroke-width="2" stroke-miterlimit="10"/>
<circle opacity="0.1" cx="43.5962" cy="46.7344" r="27.7134" fill="black" fill-opacity="0.27" stroke="#766A95" stroke-width="2" stroke-miterlimit="10"/>
<path d="M61.3772 15.0967C58.654 14.6012 54.9406 11.6739 50.3163 7.88712C47.4047 5.48057 45.281 2.82629 43.8423 0.66748C42.1981 2.86168 39.8689 5.51596 36.8031 7.88712C32.47 11.2492 28.6244 14.3889 25.8156 15.0967L43.8423 10.8819L61.3772 15.0967Z" fill="white"/>
<path d="M8.12882 39.979C8.12882 39.979 3.06799 45.0143 0.90918 46.453C3.10338 48.0972 8.12882 53.4922 8.12882 53.4922L8.12882 39.979Z" fill="white"/>
<path d="M79.0641 39.979C79.0641 39.979 84.1249 45.0143 86.2837 46.453C84.0895 48.0972 79.0641 53.4922 79.0641 53.4922L79.0641 39.979Z" fill="white"/>
<path d="M25.8243 78.9346C28.5475 79.4301 32.4497 81.6494 37.074 85.4361C39.9856 87.8427 42.1094 90.4969 43.548 92.6558C45.1922 90.4616 47.5215 87.8073 50.5872 85.4361C54.9204 82.074 58.5588 79.6424 61.3677 78.9346L43.548 82.4414L25.8243 78.9346Z" fill="white"/>
<path d="M34.9721 33.0892V33.9222L35.7072 33.5305L36.9598 32.8629C37.0322 32.8244 37.113 32.8042 37.195 32.8042H48.3599L46.2014 37.259C46.1178 37.4315 45.9431 37.541 45.7514 37.541H45.4634V36.8531V35.756L44.6354 36.4758L43.5511 37.4183C43.4601 37.4974 43.3436 37.541 43.223 37.541H31.6143C31.3382 37.541 31.1143 37.3171 31.1143 37.041L31.1143 35.116V35.116L31.1143 33.3042C31.1143 33.0281 31.3382 32.8042 31.6143 32.8042H34.6871C34.8445 32.8042 34.9721 32.9318 34.9721 33.0892ZM56.0795 37.541H47.5496L49.493 32.8042H56.0795V37.541Z" fill="white" stroke="white"/>
<path d="M34.9721 56.2152V57.0482L35.7072 56.6564L36.9598 55.9889C37.0322 55.9504 37.113 55.9302 37.195 55.9302H48.3599L46.2014 60.385C46.1178 60.5574 45.9431 60.667 45.7514 60.667H45.4634V59.9791V58.882L44.6354 59.6018L43.5511 60.5443C43.4601 60.6234 43.3436 60.667 43.223 60.667H31.6143C31.3382 60.667 31.1143 60.4431 31.1143 60.167L31.1143 58.242V58.242L31.1143 56.4302C31.1143 56.154 31.3382 55.9302 31.6143 55.9302H34.6871C34.8445 55.9302 34.9721 56.0578 34.9721 56.2152ZM56.0795 60.667H47.5496L49.493 55.9302H56.0795V60.667Z" fill="white" stroke="white"/>
<path d="M55.9531 48.819V48.1041L55.2815 48.3493L53.2981 49.0737C53.2431 49.0937 53.185 49.104 53.1265 49.104H36.4477L39.6475 44.5786C39.7412 44.446 39.8934 44.3672 40.0558 44.3672H41.1026V45.0551V45.9349L41.8585 45.4846L43.616 44.4377L43.3602 44.0081L43.616 44.4377C43.6934 44.3916 43.7818 44.3672 43.8719 44.3672H61.5419C61.8181 44.3672 62.0419 44.5911 62.0419 44.8672L62.042 46.7922V46.7922L62.0419 48.604C62.0419 48.8802 61.8181 49.104 61.5419 49.104H56.2381C56.0807 49.104 55.9531 48.9764 55.9531 48.819ZM38.0345 44.3672L35.1985 49.104H25.1514V44.3672H38.0345Z" fill="white" stroke="white"/>
</svg>
