<svg width="192" height="74" viewBox="0 0 192 74" fill="none" xmlns="http://www.w3.org/2000/svg">
<path d="M135.917 9.95347H142.187V32.5522L138.666 32.6448L135.917 36.2224V37.8007H155.922V34.1831V32.5522H149.676V9.38741L152.55 9.77929L155.815 6.5136L156.033 4.68481H138.66L135.917 8.34239V9.95347Z" fill="white" fill-opacity="0.48"/>
<path fill-rule="evenodd" clip-rule="evenodd" d="M113.588 4.07758V37.3907H130.273L135.012 31.9644V9.64118L130.754 4.07754L113.588 4.07758ZM120.949 9.52424V31.0648H127.518V9.52424H120.949Z" fill="white" fill-opacity="0.48"/>
<path d="M68.397 5.32923L65.6035 9.45301V38.7793H69.7328L72.9199 34.9933V23.8347H76.8066L81.29 38.1815H84.4781L86.1273 30.6641L82.5644 19.3501L86.7459 7.06012V4.68481H80.0277L76.1018 17.7462H72.9199V5.32923H68.397Z" fill="white" fill-opacity="0.48"/>
<path fill-rule="evenodd" clip-rule="evenodd" d="M41.3696 11.923L45.9443 6.04082L63.5085 5.3396V20.4452L59.2854 25.6429L64.2412 36.0996V38.9985L57.6524 38.9987L52.6151 28.6541H48.6074V38.9986L41.3696 38.9985V35.5724V11.923ZM48.6296 11.0918V23.0479L55.9966 23.2052V11.4409L48.6296 11.0918Z" fill="white" fill-opacity="0.48"/>
<path d="M4.31697 42.4275L15.1178 42.1069L29.6542 14.3117C29.9443 29.6435 29.371 50.6027 30.9242 60.1638C34.051 68.3741 44.4835 72.6455 48.5126 73.9528C46.5246 71.3703 42.1972 64.4564 40.7913 57.4609C38.8368 47.7354 39.1056 19.8626 39.0348 5.42023L27.4089 5.25549L4.31697 42.4275Z" fill="white" fill-opacity="0.48"/>
<path d="M191.76 42.4991L180.96 42.1479L166.502 14.3118C166.169 29.6427 166.683 50.6034 165.103 60.1601C161.953 68.3615 151.508 72.6034 147.476 73.8994C149.471 71.3225 153.818 64.4208 155.243 57.4294C157.225 47.7094 157.035 19.836 157.147 5.39386L168.773 5.26196L191.76 42.4991Z" fill="white" fill-opacity="0.48"/>
<path d="M104.587 0.184814H93.2989C90.3013 13.8179 87.2678 36.3677 83.1351 43.9985C79.0024 51.6294 79.7862 50.3143 78.6973 52.0149C80.7518 51.0833 82.14 50.8323 86.4634 48.6653C90.7868 46.4982 91.2425 45.7448 92.8308 44.5619C92.7235 44.5016 92.4606 44.3044 92.2674 43.9985C92.0743 43.6927 92.0924 42.9988 92.1256 42.6901L99.1187 8.27597C101.44 19.6876 106.071 42.6862 106.024 43.3878C105.978 44.0894 105.486 44.5466 105.245 44.6874C106.485 45.5281 109.382 47.4364 111.046 48.3443C112.711 49.2522 117.225 51.1697 119.275 52.0149C117.413 48.8185 113.473 41.746 112.599 39.0271C111.725 36.3081 106.894 11.9993 104.587 0.184814Z" fill="white" fill-opacity="0.48"/>
</svg>
