<svg width="90" height="68" viewBox="0 0 90 68" fill="none" xmlns="http://www.w3.org/2000/svg">
<path d="M25.138 1.69141H64.2225L88.1996 33.5377L64.2225 66.4563H25.138L1.39795 33.5377L25.138 1.69141Z" fill="black" fill-opacity="0.27" stroke="url(#paint0_linear_145_61)" stroke-width="2" stroke-miterlimit="10"/>
<path d="M26.3864 5.95264H62.8581L83.247 33.5377L62.8581 62.3221L26.3864 63.5214L5.39773 33.5377L26.3864 5.95264Z" stroke="white" stroke-opacity="0.14" stroke-width="1.91567" stroke-miterlimit="10"/>
<path d="M63.5025 23.5133C62.221 24.0812 60.8442 24.4649 59.3969 24.6383C60.8903 23.7447 62.0075 22.3384 62.5402 20.6816C61.1371 21.515 59.6016 22.1016 58.0002 22.4159C56.9234 21.2662 55.4971 20.5041 53.9427 20.248C52.3884 19.9919 50.793 20.2561 49.4042 20.9997C48.0154 21.7432 46.911 22.9245 46.2623 24.3601C45.6137 25.7956 45.4571 27.4052 45.817 28.9388C42.9741 28.7961 40.1929 28.0572 37.654 26.77C35.1152 25.4829 32.8753 23.6762 31.0798 21.4674C30.4659 22.5264 30.1129 23.7543 30.1129 25.0619C30.1122 26.2391 30.4021 27.3983 30.9569 28.4365C31.5116 29.4748 32.3141 30.3601 33.293 31.0139C32.1577 30.9778 31.0474 30.671 30.0546 30.1191V30.2112C30.0545 31.8622 30.6256 33.4625 31.671 34.7404C32.7165 36.0183 34.1718 36.8951 35.7901 37.2222C34.7369 37.5072 33.6327 37.5492 32.5609 37.3449C33.0175 38.7656 33.9069 40.0079 35.1047 40.8979C36.3024 41.7879 37.7484 42.2811 39.2404 42.3085C36.7077 44.2967 33.5799 45.3752 30.36 45.3704C29.7897 45.3706 29.2198 45.3373 28.6533 45.2706C31.9216 47.3721 35.7262 48.4873 39.6118 48.483C52.765 48.483 59.9556 37.589 59.9556 28.1407C59.9556 27.8338 59.9479 27.5237 59.9341 27.2168C61.3328 26.2053 62.5401 24.9528 63.4994 23.5179L63.5025 23.5133Z" fill="white"/>
<defs>
<linearGradient id="paint0_linear_145_61" x1="44.7988" y1="-18.621" x2="44.7988" y2="93.8249" gradientUnits="userSpaceOnUse">
<stop stop-color="white"/>
<stop offset="1" stop-color="#959595"/>
</linearGradient>
</defs>
</svg>
