<svg width="68" height="68" viewBox="0 0 68 68" fill="none" xmlns="http://www.w3.org/2000/svg">
<rect x="1.37061" y="33.8149" width="45.9619" height="45.9619" transform="rotate(-45 1.37061 33.8149)" fill="black" fill-opacity="0.37" stroke="url(#paint0_linear_85_120)"/>
<path d="M44.497 26.9655C43.8406 27.2564 43.1354 27.4529 42.394 27.5418C43.1589 27.084 43.7312 26.3637 44.0041 25.515C43.2854 25.9419 42.4988 26.2424 41.6786 26.4034C41.127 25.8144 40.3964 25.4241 39.6002 25.2929C38.804 25.1617 37.9867 25.2971 37.2754 25.6779C36.564 26.0588 35.9982 26.6639 35.666 27.3992C35.3337 28.1346 35.2535 28.9591 35.4379 29.7446C33.9816 29.6715 32.557 29.293 31.2565 28.6337C29.956 27.9744 28.8087 27.049 27.8889 25.9175C27.5745 26.46 27.3937 27.0889 27.3937 27.7588C27.3933 28.3618 27.5418 28.9555 27.826 29.4874C28.1101 30.0192 28.5212 30.4727 29.0226 30.8076C28.4411 30.7891 27.8723 30.6319 27.3638 30.3492V30.3964C27.3637 31.2421 27.6563 32.0618 28.1918 32.7164C28.7273 33.371 29.4728 33.8202 30.3017 33.9877C29.7622 34.1337 29.1966 34.1552 28.6476 34.0506C28.8815 34.7783 29.3371 35.4146 29.9506 35.8705C30.5641 36.3264 31.3048 36.5791 32.0691 36.5931C30.7717 37.6115 29.1695 38.1639 27.5202 38.1615C27.2281 38.1616 26.9362 38.1445 26.646 38.1104C28.3202 39.1868 30.269 39.7581 32.2593 39.7559C38.9969 39.7559 42.6802 34.1756 42.6802 29.3358C42.6802 29.1786 42.6762 29.0198 42.6692 28.8626C43.3856 28.3444 44.004 27.7029 44.4955 26.9679L44.497 26.9655Z" fill="white"/>
<defs>
<linearGradient id="paint0_linear_85_120" x1="46.0617" y1="38.5994" x2="7.77157" y2="39.3922" gradientUnits="userSpaceOnUse">
<stop stop-color="white"/>
<stop offset="1" stop-color="#969696"/>
</linearGradient>
</defs>
</svg>
