<svg width="418" height="67" viewBox="0 0 418 67" fill="none" xmlns="http://www.w3.org/2000/svg">
<path d="M11.6197 41.7803C13.7944 38.2379 16.6209 35.7064 19.7545 34.5008L21.5156 33.8239L19.1968 32.8131C16.4141 31.5983 13.8947 29.3264 11.8892 26.2292L10.9804 23.8923L10.3412 25.8582C8.16643 29.4006 5.33991 31.9322 2.20629 33.1377L0.445201 33.8146L2.76408 34.8254C5.54673 36.0402 8.06615 38.3121 10.0717 41.4093L10.9804 43.7462L11.6197 41.7803Z" fill="#F3F3F3"/>
<path d="M407.469 40.8533C409.644 37.311 412.47 34.7794 415.604 33.5739L417.365 32.897L415.046 31.8862C412.263 30.6714 409.744 28.3995 407.738 25.3022L406.83 22.9654L406.19 24.9313C404.016 28.4737 401.189 31.0052 398.055 32.2107L396.294 32.8877L398.613 33.8985C401.396 35.1132 403.915 37.3852 405.921 40.4824L406.83 42.8192L407.469 40.8533Z" fill="#F3F3F3"/>
<path d="M47.0365 1.12744H372.317L396.294 32.9737L372.317 65.8923H47.0365L23.2964 32.9737L47.0365 1.12744Z" fill="black" fill-opacity="0.16" stroke="white" stroke-width="2" stroke-miterlimit="10"/>
<path d="M191.473 10.8923H54.355C91.9822 11.7257 173.855 12.3923 179.355 15.8923C188.08 21.4445 167.355 25.3923 157.855 30.3923C167.855 32.8923 187.755 36.4923 179.355 44.8923C170.955 53.2923 94.6883 54.059 54.355 54.8923H191.473L227.355 32.8923L191.473 10.8923Z" fill="#EBE5D7" fill-opacity="0.15"/>
<path d="M113.616 38.308C123.008 35.4533 135.215 33.4131 148.749 32.4416L156.355 31.8961L146.34 31.0815C134.322 30.1025 123.441 28.2716 114.78 25.7756L110.855 23.8923L108.094 25.4766C98.7018 28.3314 86.4945 30.3715 72.9609 31.3431L65.355 31.8886L75.3698 32.7032C87.3877 33.6822 98.2687 35.5131 106.93 38.0091L110.855 39.8923L113.616 38.308Z" fill="#EBE5D7" fill-opacity="0.15"/>
<path d="M305.616 38.308C315.008 35.4533 327.215 33.4131 340.749 32.4416L348.355 31.8961L338.34 31.0815C326.322 30.1025 315.441 28.2716 306.78 25.7756L302.855 23.8923L300.094 25.4766C290.702 28.3314 278.494 30.3715 264.961 31.3431L257.355 31.8886L267.37 32.7032C279.388 33.6822 290.269 35.5131 298.93 38.0091L302.855 39.8923L305.616 38.308Z" fill="#EBE5D7" fill-opacity="0.15"/>
<path d="M232.237 10.8923H369.355C331.728 11.7257 249.855 12.3923 244.355 15.8923C235.63 21.4445 256.355 25.3923 265.855 30.3923C255.855 32.8923 235.955 36.4923 244.355 44.8923C252.755 53.2923 329.022 54.059 369.355 54.8923H232.237L196.355 32.8923L232.237 10.8923Z" fill="white" fill-opacity="0.15"/>
<path d="M50.7264 5.38867H370.953L391.342 32.9737L370.953 61.7581L50.7264 62.9574L29.7378 32.9737L50.7264 5.38867Z" stroke="white" stroke-opacity="0.26" stroke-width="1.91567" stroke-miterlimit="10"/>
<path d="M73.4994 22.9531L82.0014 41.5171H77.3214L71.9134 27.9711L73.4994 22.9531ZM67.9094 39.7751C67.7707 40.1218 67.7447 40.4164 67.8314 40.6591C67.9181 40.9018 68.0654 41.0924 68.2734 41.2311C68.4814 41.3524 68.6894 41.4131 68.8974 41.4131H69.1314V41.6731H63.5674V41.4131C63.5674 41.4131 63.6107 41.4131 63.6974 41.4131C63.7667 41.4131 63.8014 41.4131 63.8014 41.4131C64.2001 41.4131 64.6074 41.2918 65.0234 41.0491C65.4567 40.7891 65.8121 40.3644 66.0894 39.7751H67.9094ZM73.4994 22.9531L73.6034 26.1251L67.1554 41.5951H65.2574L71.9914 26.3591C72.0434 26.2551 72.1301 26.0644 72.2514 25.7871C72.3901 25.4924 72.5287 25.1631 72.6674 24.7991C72.8234 24.4351 72.9621 24.0884 73.0834 23.7591C73.2047 23.4124 73.2654 23.1438 73.2654 22.9531H73.4994ZM76.2294 35.4851V36.5771H68.5854V35.4851H76.2294ZM76.6194 39.7751H81.1694C81.4641 40.3644 81.8194 40.7891 82.2354 41.0491C82.6514 41.2918 83.0587 41.4131 83.4574 41.4131C83.4574 41.4131 83.4921 41.4131 83.5614 41.4131C83.6307 41.4131 83.6654 41.4131 83.6654 41.4131V41.6731H75.3974V41.4131H75.6314C75.9781 41.4131 76.2814 41.2744 76.5414 40.9971C76.8014 40.7024 76.8274 40.2951 76.6194 39.7751ZM89.1981 26.0731H92.0061C92.7168 26.0731 93.4101 26.1511 94.0861 26.3071C94.7621 26.4458 95.3688 26.6798 95.9061 27.0091C96.4435 27.3211 96.8681 27.7544 97.1801 28.3091C97.5095 28.8464 97.6741 29.5224 97.6741 30.3371C97.6741 30.9438 97.5441 31.5504 97.2841 32.1571C97.0415 32.7464 96.6515 33.2578 96.1141 33.6911C95.5941 34.1244 94.9095 34.4104 94.0601 34.5491C94.5628 34.7051 95.0395 35.0084 95.4901 35.4591C95.9581 35.9098 96.3221 36.3344 96.5821 36.7331C96.6515 36.8718 96.7728 37.0971 96.9461 37.4091C97.1195 37.7038 97.3361 38.0504 97.5961 38.4491C97.8735 38.8304 98.1595 39.2291 98.4541 39.6451C98.8008 40.1131 99.1041 40.4771 99.3641 40.7371C99.6241 40.9798 99.8928 41.1531 100.17 41.2571C100.447 41.3611 100.768 41.4131 101.132 41.4131V41.6731H98.9481C98.0121 41.6731 97.2148 41.6038 96.5561 41.4651C95.9148 41.3264 95.3515 41.0751 94.8661 40.7111C94.3981 40.3298 93.9648 39.8184 93.5661 39.1771C93.4101 38.9518 93.2455 38.6831 93.0721 38.3711C92.8988 38.0418 92.7255 37.7124 92.5521 37.3831C92.3788 37.0538 92.2228 36.7331 92.0841 36.4211C91.9628 36.1091 91.8761 35.8491 91.8241 35.6411C91.5988 35.0864 91.3388 34.6878 91.0441 34.4451C90.7668 34.1851 90.5068 34.0551 90.2641 34.0551V33.8211C90.2641 33.8211 90.3248 33.8211 90.4461 33.8211C90.5675 33.8211 90.7235 33.8211 90.9141 33.8211C91.2781 33.8211 91.6335 33.7604 91.9801 33.6391C92.3441 33.5004 92.6735 33.2491 92.9681 32.8851C93.2628 32.5038 93.4795 31.9491 93.6181 31.2211C93.6528 31.1171 93.6788 30.9698 93.6961 30.7791C93.7308 30.5884 93.7395 30.3718 93.7221 30.1291C93.6875 29.4878 93.5661 28.9764 93.3581 28.5951C93.1675 28.1964 92.9248 27.9018 92.6301 27.7111C92.3355 27.5031 92.0321 27.3644 91.7201 27.2951C91.4255 27.2084 91.1655 27.1651 90.9401 27.1651C90.6108 27.1478 90.3075 27.1478 90.0301 27.1651C89.7701 27.1651 89.5708 27.1564 89.4321 27.1391C89.4148 27.1391 89.3888 27.0524 89.3541 26.8791C89.3195 26.6884 89.2848 26.5064 89.2501 26.3331C89.2155 26.1598 89.1981 26.0731 89.1981 26.0731ZM89.4581 26.0731V41.6731H85.6881V26.0731H89.4581ZM85.7661 40.0351L85.8701 41.6731H83.9981V41.4131C84.0155 41.4131 84.0588 41.4131 84.1281 41.4131C84.2148 41.4131 84.2755 41.4131 84.3101 41.4131C84.6915 41.4131 85.0121 41.2831 85.2721 41.0231C85.5495 40.7458 85.6968 40.4164 85.7141 40.0351H85.7661ZM85.7661 27.6851H85.7141C85.6968 27.2864 85.5495 26.9658 85.2721 26.7231C85.0121 26.4631 84.7001 26.3331 84.3361 26.3331C84.2841 26.3331 84.2148 26.3331 84.1281 26.3331C84.0588 26.3331 84.0155 26.3331 83.9981 26.3331V26.0731H85.8701L85.7661 27.6851ZM89.4061 40.0351H89.4581C89.4581 40.4684 89.6055 40.8064 89.9001 41.0491C90.2121 41.2918 90.5415 41.4131 90.8881 41.4131C90.8881 41.4131 90.9228 41.4131 90.9921 41.4131C91.0615 41.4131 91.1135 41.4131 91.1481 41.4131V41.6731H89.2761L89.4061 40.0351ZM109.977 31.8451L115.801 39.9311C116.131 40.4164 116.477 40.7891 116.841 41.0491C117.205 41.2918 117.63 41.4218 118.115 41.4391V41.6731H116.113C115.94 41.6731 115.654 41.6644 115.255 41.6471C114.857 41.6298 114.397 41.5691 113.877 41.4651C113.375 41.3438 112.863 41.1444 112.343 40.8671C111.823 40.5898 111.364 40.1911 110.965 39.6711C110.879 39.5498 110.731 39.3418 110.523 39.0471C110.315 38.7524 110.064 38.4058 109.769 38.0071C109.492 37.6084 109.197 37.2011 108.885 36.7851C108.591 36.3691 108.313 35.9791 108.053 35.6151C107.793 35.2511 107.585 34.9564 107.429 34.7311C107.273 34.5058 107.195 34.3931 107.195 34.3931L109.977 31.8451ZM115.489 26.2291L108.703 34.2371L107.195 34.3931L113.357 26.2291H115.489ZM117.101 26.0471V26.3071H116.997C116.495 26.3071 116.027 26.4024 115.593 26.5931C115.16 26.7838 114.805 27.0438 114.527 27.3731L112.525 27.3211C112.716 27.0784 112.751 26.8531 112.629 26.6451C112.508 26.4198 112.3 26.3071 112.005 26.3071H111.797V26.0471H116.997H117.101ZM106.441 26.0471V41.6731H102.697V26.0471H106.441ZM102.749 40.0351V41.6731H100.981V41.4131C100.981 41.4131 101.016 41.4131 101.085 41.4131C101.172 41.4131 101.224 41.4131 101.241 41.4131C101.64 41.4131 101.978 41.2831 102.255 41.0231C102.533 40.7458 102.68 40.4164 102.697 40.0351H102.749ZM106.363 40.0351H106.441C106.441 40.4164 106.58 40.7458 106.857 41.0231C107.135 41.2831 107.473 41.4131 107.871 41.4131C107.889 41.4131 107.941 41.4131 108.027 41.4131C108.114 41.4131 108.157 41.4131 108.157 41.4131V41.6731H106.363V40.0351ZM106.363 27.7111V26.0471H108.157V26.3071C108.14 26.3071 108.088 26.3071 108.001 26.3071C107.932 26.3071 107.889 26.3071 107.871 26.3071C107.473 26.3071 107.135 26.4458 106.857 26.7231C106.58 26.9831 106.441 27.3124 106.441 27.7111H106.363ZM102.749 27.7111H102.697C102.68 27.3124 102.533 26.9831 102.255 26.7231C101.978 26.4458 101.64 26.3071 101.241 26.3071C101.241 26.3071 101.198 26.3071 101.111 26.3071C101.025 26.3071 100.973 26.3071 100.955 26.3071V26.0471H102.749V27.7111ZM125.834 25.3711L133.53 41.5431H129.136L124.3 30.1291L125.834 25.3711ZM120.946 39.9571C120.755 40.4251 120.781 40.7891 121.024 41.0491C121.266 41.2918 121.535 41.4131 121.83 41.4131H122.038V41.6731H116.838V41.4131C116.838 41.4131 116.872 41.4131 116.942 41.4131C117.011 41.4131 117.046 41.4131 117.046 41.4131C117.392 41.4131 117.756 41.3091 118.138 41.1011C118.519 40.8758 118.831 40.4944 119.074 39.9571H120.946ZM125.834 25.3711L125.886 28.4911L120.244 41.5951H118.32L124.404 28.5171C124.438 28.4131 124.516 28.2311 124.638 27.9711C124.759 27.6938 124.889 27.3904 125.028 27.0611C125.166 26.7144 125.296 26.3938 125.418 26.0991C125.539 25.7871 125.608 25.5444 125.626 25.3711H125.834ZM128.096 36.5771V37.5911H121.466V36.5771H128.096ZM128.486 39.9571H132.776C133.036 40.4944 133.356 40.8758 133.738 41.1011C134.119 41.3091 134.483 41.4131 134.83 41.4131C134.83 41.4131 134.864 41.4131 134.934 41.4131C135.003 41.4131 135.038 41.4131 135.038 41.4131V41.6731H127.394V41.4131H127.602C127.896 41.4131 128.165 41.2918 128.408 41.0491C128.65 40.7891 128.676 40.4251 128.486 39.9571ZM143.918 26.0731C145.773 26.0731 147.367 26.3851 148.702 27.0091C150.037 27.6158 151.059 28.5084 151.77 29.6871C152.481 30.8484 152.836 32.2438 152.836 33.8731C152.836 35.5024 152.481 36.8978 151.77 38.0591C151.059 39.2204 150.037 40.1131 148.702 40.7371C147.367 41.3611 145.773 41.6731 143.918 41.6731H138.146L138.094 40.6331C139.411 40.6331 140.469 40.6331 141.266 40.6331C142.081 40.6331 142.67 40.6331 143.034 40.6331C143.415 40.6331 143.606 40.6331 143.606 40.6331C145.235 40.6331 146.518 40.0351 147.454 38.8391C148.39 37.6431 148.858 35.9878 148.858 33.8731C148.858 31.7584 148.39 30.1031 147.454 28.9071C146.518 27.6938 145.235 27.0871 143.606 27.0871C143.606 27.0871 143.415 27.0871 143.034 27.0871C142.653 27.0871 142.037 27.0871 141.188 27.0871C140.339 27.0871 139.221 27.0871 137.834 27.0871V26.0731H143.918ZM140.668 26.0731V41.6731H136.924V26.0731H140.668ZM137.002 40.0091V41.6731H135.13V41.4131C135.13 41.4131 135.182 41.4131 135.286 41.4131C135.39 41.4131 135.451 41.4131 135.468 41.4131C135.867 41.4131 136.205 41.2744 136.482 40.9971C136.777 40.7198 136.924 40.3904 136.924 40.0091H137.002ZM136.976 27.7111H136.924C136.907 27.3124 136.751 26.9831 136.456 26.7231C136.179 26.4631 135.841 26.3331 135.442 26.3331C135.442 26.3331 135.39 26.3331 135.286 26.3331C135.182 26.3331 135.13 26.3331 135.13 26.3331V26.0731H136.976V27.7111ZM159.865 26.0731V41.6731H156.121V26.0731H159.865ZM156.199 40.0351V41.6731H154.301V41.4131C154.301 41.4131 154.353 41.4131 154.457 41.4131C154.561 41.4131 154.621 41.4131 154.639 41.4131C155.037 41.4131 155.384 41.2831 155.679 41.0231C155.973 40.7458 156.121 40.4164 156.121 40.0351H156.199ZM159.813 40.0351H159.865C159.882 40.4164 160.029 40.7458 160.307 41.0231C160.601 41.2831 160.957 41.4131 161.373 41.4131C161.373 41.4131 161.416 41.4131 161.503 41.4131C161.607 41.4131 161.667 41.4131 161.685 41.4131V41.6731H159.813V40.0351ZM159.813 27.7111V26.0731H161.685L161.659 26.3331C161.659 26.3331 161.615 26.3331 161.529 26.3331C161.442 26.3331 161.39 26.3331 161.373 26.3331C160.957 26.3331 160.601 26.4631 160.307 26.7231C160.029 26.9831 159.882 27.3124 159.865 27.7111H159.813ZM156.199 27.7111H156.121C156.121 27.3124 155.973 26.9831 155.679 26.7231C155.384 26.4631 155.029 26.3331 154.613 26.3331C154.613 26.3331 154.561 26.3331 154.457 26.3331C154.353 26.3331 154.301 26.3331 154.301 26.3331V26.0731H156.199V27.7111ZM170.851 25.3711L178.547 41.5431H174.153L169.317 30.1291L170.851 25.3711ZM165.963 39.9571C165.772 40.4251 165.798 40.7891 166.041 41.0491C166.284 41.2918 166.552 41.4131 166.847 41.4131H167.055V41.6731H161.855V41.4131C161.855 41.4131 161.89 41.4131 161.959 41.4131C162.028 41.4131 162.063 41.4131 162.063 41.4131C162.41 41.4131 162.774 41.3091 163.155 41.1011C163.536 40.8758 163.848 40.4944 164.091 39.9571H165.963ZM170.851 25.3711L170.903 28.4911L165.261 41.5951H163.337L169.421 28.5171C169.456 28.4131 169.534 28.2311 169.655 27.9711C169.776 27.6938 169.906 27.3904 170.045 27.0611C170.184 26.7144 170.314 26.3938 170.435 26.0991C170.556 25.7871 170.626 25.5444 170.643 25.3711H170.851ZM173.113 36.5771V37.5911H166.483V36.5771H173.113ZM173.503 39.9571H177.793C178.053 40.4944 178.374 40.8758 178.755 41.1011C179.136 41.3091 179.5 41.4131 179.847 41.4131C179.847 41.4131 179.882 41.4131 179.951 41.4131C180.02 41.4131 180.055 41.4131 180.055 41.4131V41.6731H172.411V41.4131H172.619C172.914 41.4131 173.182 41.2918 173.425 41.0491C173.668 40.7891 173.694 40.4251 173.503 39.9571ZM186.752 23.6291H190.99L195.15 35.3811L193.59 42.1411L186.752 23.6291ZM199.752 23.0571L200.22 25.6311L194.448 39.2551C194.448 39.2551 194.396 39.4024 194.292 39.6971C194.188 39.9918 194.084 40.3558 193.98 40.7891C193.893 41.2224 193.841 41.6731 193.824 42.1411H193.59L192.862 39.0471L199.518 23.0571H199.752ZM199.752 23.0831L205.472 35.7191L204.224 42.1411L197.958 28.2831L199.752 23.0831ZM209.814 23.6291L204.926 39.2551C204.926 39.2551 204.882 39.4111 204.796 39.7231C204.709 40.0178 204.631 40.3904 204.562 40.8411C204.492 41.2744 204.466 41.7078 204.484 42.1411H204.224L203.496 39.5671L208.046 23.6291H209.814ZM207.552 25.3451C207.69 24.8251 207.647 24.4264 207.422 24.1491C207.196 23.8718 206.91 23.7331 206.564 23.7331H206.33V23.4731H211.764V23.7331C211.764 23.7331 211.729 23.7331 211.66 23.7331C211.59 23.7331 211.556 23.7331 211.556 23.7331C211.157 23.7331 210.724 23.8631 210.256 24.1231C209.788 24.3658 209.458 24.7731 209.268 25.3451H207.552ZM191.64 25.3451H187.402C187.176 24.7731 186.838 24.3658 186.388 24.1231C185.937 23.8631 185.512 23.7331 185.114 23.7331C185.114 23.7331 185.079 23.7331 185.01 23.7331C184.94 23.7331 184.906 23.7331 184.906 23.7331V23.4731H192.836V23.7331H192.602C192.272 23.7331 191.978 23.8718 191.718 24.1491C191.475 24.4264 191.449 24.8251 191.64 25.3451ZM227.649 26.0731V41.6731H223.931V26.0731H227.649ZM217.067 26.0731V41.6731H213.323V26.0731H217.067ZM224.139 33.3791V34.4191H216.833V33.3791H224.139ZM213.401 40.0351V41.6731H211.607V41.4131C211.607 41.4131 211.65 41.4131 211.737 41.4131C211.841 41.4131 211.902 41.4131 211.919 41.4131C212.3 41.4131 212.63 41.2831 212.907 41.0231C213.184 40.7458 213.323 40.4164 213.323 40.0351H213.401ZM217.015 40.0351H217.067C217.084 40.4164 217.232 40.7458 217.509 41.0231C217.786 41.2831 218.116 41.4131 218.497 41.4131C218.497 41.4131 218.54 41.4131 218.627 41.4131C218.731 41.4131 218.783 41.4131 218.783 41.4131V41.6731H217.015V40.0351ZM217.015 27.7111V26.0731H218.783V26.3331C218.783 26.3331 218.731 26.3331 218.627 26.3331C218.54 26.3331 218.497 26.3331 218.497 26.3331C218.116 26.3331 217.786 26.4631 217.509 26.7231C217.232 26.9831 217.084 27.3124 217.067 27.7111H217.015ZM213.401 27.7111H213.323C213.323 27.3124 213.184 26.9831 212.907 26.7231C212.63 26.4631 212.3 26.3331 211.919 26.3331C211.902 26.3331 211.841 26.3331 211.737 26.3331C211.65 26.3331 211.607 26.3331 211.607 26.3331V26.0731H213.401V27.7111ZM223.983 40.0351V41.6731H222.215V41.4131C222.215 41.4131 222.258 41.4131 222.345 41.4131C222.449 41.4131 222.501 41.4131 222.501 41.4131C222.882 41.4131 223.212 41.2831 223.489 41.0231C223.766 40.7458 223.905 40.4164 223.905 40.0351H223.983ZM227.571 40.0351H227.649C227.666 40.4164 227.805 40.7458 228.065 41.0231C228.342 41.2831 228.68 41.4131 229.079 41.4131C229.079 41.4131 229.122 41.4131 229.209 41.4131C229.313 41.4131 229.365 41.4131 229.365 41.4131V41.6731H227.571V40.0351ZM227.597 27.7111V26.0731H229.391V26.3331C229.391 26.3331 229.339 26.3331 229.235 26.3331C229.131 26.3331 229.079 26.3331 229.079 26.3331C228.68 26.3331 228.342 26.4631 228.065 26.7231C227.805 26.9831 227.675 27.3124 227.675 27.7111H227.597ZM223.983 27.7111H223.905C223.905 27.3124 223.766 26.9831 223.489 26.7231C223.212 26.4631 222.882 26.3331 222.501 26.3331C222.501 26.3331 222.449 26.3331 222.345 26.3331C222.258 26.3331 222.215 26.3331 222.215 26.3331V26.0731H223.983V27.7111ZM236.544 26.0731V41.6731H232.8V26.0731H236.544ZM232.878 40.0351V41.6731H230.98V41.4131C230.98 41.4131 231.032 41.4131 231.136 41.4131C231.24 41.4131 231.301 41.4131 231.318 41.4131C231.717 41.4131 232.064 41.2831 232.358 41.0231C232.653 40.7458 232.8 40.4164 232.8 40.0351H232.878ZM236.492 40.0351H236.544C236.562 40.4164 236.709 40.7458 236.986 41.0231C237.281 41.2831 237.636 41.4131 238.052 41.4131C238.052 41.4131 238.096 41.4131 238.182 41.4131C238.286 41.4131 238.347 41.4131 238.364 41.4131V41.6731H236.492V40.0351ZM236.492 27.7111V26.0731H238.364L238.338 26.3331C238.338 26.3331 238.295 26.3331 238.208 26.3331C238.122 26.3331 238.07 26.3331 238.052 26.3331C237.636 26.3331 237.281 26.4631 236.986 26.7231C236.709 26.9831 236.562 27.3124 236.544 27.7111H236.492ZM232.878 27.7111H232.8C232.8 27.3124 232.653 26.9831 232.358 26.7231C232.064 26.4631 231.708 26.3331 231.292 26.3331C231.292 26.3331 231.24 26.3331 231.136 26.3331C231.032 26.3331 230.98 26.3331 230.98 26.3331V26.0731H232.878V27.7111ZM248.909 26.1511V41.6731H245.139V26.1511H248.909ZM254.577 26.0471V27.0871H239.497V26.0471H254.577ZM254.577 27.0091V29.7651H254.291V29.5311C254.308 28.7858 254.1 28.1964 253.667 27.7631C253.251 27.3298 252.67 27.1044 251.925 27.0871V27.0091H254.577ZM254.577 25.6571V26.3071L251.821 26.0471C252.15 26.0471 252.505 26.0298 252.887 25.9951C253.268 25.9431 253.615 25.8911 253.927 25.8391C254.239 25.7698 254.455 25.7091 254.577 25.6571ZM245.191 40.0351V41.6731H243.449V41.4131C243.449 41.4131 243.492 41.4131 243.579 41.4131C243.683 41.4131 243.735 41.4131 243.735 41.4131C244.116 41.4131 244.437 41.2831 244.697 41.0231C244.974 40.7458 245.121 40.4164 245.139 40.0351H245.191ZM248.831 40.0351H248.909C248.909 40.4164 249.047 40.7458 249.325 41.0231C249.602 41.2831 249.94 41.4131 250.339 41.4131C250.339 41.4131 250.382 41.4131 250.469 41.4131C250.573 41.4131 250.625 41.4131 250.625 41.4131V41.6731H248.831V40.0351ZM242.149 27.0091V27.0871C241.386 27.1044 240.797 27.3298 240.381 27.7631C239.982 28.1964 239.783 28.7858 239.783 29.5311V29.7651H239.497V27.0091H242.149ZM239.497 25.6571C239.653 25.6918 239.878 25.7438 240.173 25.8131C240.485 25.8824 240.823 25.9431 241.187 25.9951C241.568 26.0298 241.915 26.0471 242.227 26.0471L239.497 26.3071V25.6571ZM261.4 26.0731V41.6731H257.656V26.0731H261.4ZM267.484 40.6331L268.082 41.6731H261.348V40.6331H267.484ZM266.6 33.4311V34.4711H261.348V33.4311H266.6ZM267.77 26.0731V27.1131H261.348V26.0731H267.77ZM269.148 36.8891L268.16 41.6731H263.662L264.468 40.6331C265.213 40.6331 265.872 40.4858 266.444 40.1911C267.033 39.8791 267.536 39.4458 267.952 38.8911C268.368 38.3191 268.688 37.6518 268.914 36.8891H269.148ZM266.6 34.4191V36.7071H266.34V36.4991C266.34 35.9271 266.158 35.4504 265.794 35.0691C265.447 34.6878 264.97 34.4884 264.364 34.4711V34.4191H266.6ZM266.6 31.1951V33.4831H264.364V33.4311C264.97 33.4138 265.447 33.2144 265.794 32.8331C266.158 32.4344 266.34 31.9491 266.34 31.3771V31.1951H266.6ZM267.77 27.0611V29.8171H267.51V29.5831C267.51 28.8204 267.302 28.2224 266.886 27.7891C266.487 27.3558 265.906 27.1304 265.144 27.1131V27.0611H267.77ZM267.77 25.6831V26.3071L265.04 26.0731C265.542 26.0731 266.071 26.0298 266.626 25.9431C267.18 25.8391 267.562 25.7524 267.77 25.6831ZM257.708 40.0351L257.838 41.6731H255.914V41.4131C255.914 41.4131 255.966 41.4131 256.07 41.4131C256.174 41.4131 256.234 41.4131 256.252 41.4131C256.633 41.4131 256.954 41.2831 257.214 41.0231C257.491 40.7458 257.638 40.4164 257.656 40.0351H257.708ZM257.708 27.7111H257.656C257.638 27.3124 257.491 26.9831 257.214 26.7231C256.954 26.4631 256.633 26.3331 256.252 26.3331C256.234 26.3331 256.174 26.3331 256.07 26.3331C255.966 26.3331 255.914 26.3331 255.914 26.3331V26.0731H257.838L257.708 27.7111ZM282.94 23.4731H286.06C287.55 23.4731 288.755 23.6898 289.674 24.1231C290.61 24.5564 291.303 25.1544 291.754 25.9171C292.222 26.6624 292.473 27.5118 292.508 28.4651C292.542 29.3491 292.395 30.1551 292.066 30.8831C291.736 31.6111 291.286 32.2178 290.714 32.7031C290.142 33.1884 289.483 33.5438 288.738 33.7691C288.01 33.9771 287.247 34.0291 286.45 33.9251C285.67 33.8038 284.907 33.5004 284.162 33.0151V32.7551C284.162 32.7551 284.266 32.7551 284.474 32.7551C284.699 32.7551 284.976 32.7204 285.306 32.6511C285.652 32.5818 286.008 32.4518 286.372 32.2611C286.753 32.0704 287.108 31.7758 287.438 31.3771C287.767 30.9784 288.018 30.4498 288.192 29.7911C288.261 29.5658 288.304 29.3144 288.322 29.0371C288.356 28.7424 288.365 28.4738 288.348 28.2311C288.33 27.1218 288.027 26.2378 287.438 25.5791C286.866 24.9031 286.051 24.5651 284.994 24.5651H283.2C283.2 24.5651 283.174 24.4784 283.122 24.3051C283.087 24.1144 283.044 23.9324 282.992 23.7591C282.957 23.5684 282.94 23.4731 282.94 23.4731ZM283.278 23.4731V41.6731H279.378V23.4731H283.278ZM279.456 39.7751V41.6731H277.376V41.4131C277.393 41.4131 277.445 41.4131 277.532 41.4131C277.636 41.4131 277.696 41.4131 277.714 41.4131C278.164 41.4131 278.546 41.2571 278.858 40.9451C279.187 40.6158 279.36 40.2258 279.378 39.7751H279.456ZM279.456 25.3711H279.378C279.378 24.9204 279.213 24.5391 278.884 24.2271C278.554 23.8978 278.164 23.7331 277.714 23.7331C277.696 23.7331 277.644 23.7331 277.558 23.7331C277.471 23.7331 277.419 23.7331 277.402 23.7331L277.376 23.4731H279.456V25.3711ZM283.2 39.7751H283.278C283.295 40.2258 283.46 40.6158 283.772 40.9451C284.101 41.2571 284.491 41.4131 284.942 41.4131C284.959 41.4131 285.011 41.4131 285.098 41.4131C285.202 41.4131 285.262 41.4131 285.28 41.4131V41.6731H283.2V39.7751ZM299.378 25.3711L307.074 41.5431H302.68L297.844 30.1291L299.378 25.3711ZM294.49 39.9571C294.3 40.4251 294.326 40.7891 294.568 41.0491C294.811 41.2918 295.08 41.4131 295.374 41.4131H295.582V41.6731H290.382V41.4131C290.382 41.4131 290.417 41.4131 290.486 41.4131C290.556 41.4131 290.59 41.4131 290.59 41.4131C290.937 41.4131 291.301 41.3091 291.682 41.1011C292.064 40.8758 292.376 40.4944 292.618 39.9571H294.49ZM299.378 25.3711L299.43 28.4911L293.788 41.5951H291.864L297.948 28.5171C297.983 28.4131 298.061 28.2311 298.182 27.9711C298.304 27.6938 298.434 27.3904 298.572 27.0611C298.711 26.7144 298.841 26.3938 298.962 26.0991C299.084 25.7871 299.153 25.5444 299.17 25.3711H299.378ZM301.64 36.5771V37.5911H295.01V36.5771H301.64ZM302.03 39.9571H306.32C306.58 40.4944 306.901 40.8758 307.282 41.1011C307.664 41.3091 308.028 41.4131 308.374 41.4131C308.374 41.4131 308.409 41.4131 308.478 41.4131C308.548 41.4131 308.582 41.4131 308.582 41.4131V41.6731H300.938V41.4131H301.146C301.441 41.4131 301.71 41.2918 301.952 41.0491C302.195 40.7891 302.221 40.4251 302.03 39.9571ZM313.901 26.0731H316.397C317.801 26.0731 318.936 26.2638 319.803 26.6451C320.67 27.0264 321.32 27.5464 321.753 28.2051C322.186 28.8464 322.42 29.5744 322.455 30.3891C322.49 31.4118 322.282 32.3044 321.831 33.0671C321.398 33.8298 320.808 34.4104 320.063 34.8091C319.318 35.2078 318.503 35.3898 317.619 35.3551C316.735 35.3031 315.86 34.9911 314.993 34.4191V34.1851C314.993 34.1851 315.08 34.1851 315.253 34.1851C315.444 34.1851 315.678 34.1591 315.955 34.1071C316.232 34.0378 316.518 33.9164 316.813 33.7431C317.125 33.5698 317.42 33.3098 317.697 32.9631C317.974 32.6164 318.191 32.1484 318.347 31.5591C318.399 31.3511 318.434 31.1258 318.451 30.8831C318.486 30.6231 318.494 30.3978 318.477 30.2071C318.46 29.2538 318.174 28.4998 317.619 27.9451C317.082 27.3731 316.328 27.0871 315.357 27.0871H314.135C314.135 27.0871 314.118 27.0091 314.083 26.8531C314.048 26.6798 314.005 26.5064 313.953 26.3331C313.918 26.1598 313.901 26.0731 313.901 26.0731ZM314.187 26.0731V41.6731H310.443V26.0731H314.187ZM310.495 40.0351L310.599 41.6731H308.727V41.4131C308.744 41.4131 308.796 41.4131 308.883 41.4131C308.97 41.4131 309.022 41.4131 309.039 41.4131C309.42 41.4131 309.741 41.2831 310.001 41.0231C310.278 40.7458 310.426 40.4164 310.443 40.0351H310.495ZM310.495 27.6851H310.443C310.426 27.2864 310.278 26.9658 310.001 26.7231C309.741 26.4631 309.42 26.3331 309.039 26.3331C309.004 26.3331 308.944 26.3331 308.857 26.3331C308.788 26.3331 308.736 26.3331 308.701 26.3331V26.0731H310.599L310.495 27.6851ZM314.135 40.0351H314.187C314.204 40.4164 314.343 40.7458 314.603 41.0231C314.863 41.2831 315.192 41.4131 315.591 41.4131C315.626 41.4131 315.678 41.4131 315.747 41.4131C315.834 41.4131 315.886 41.4131 315.903 41.4131V41.6731H314.005L314.135 40.0351ZM329.421 26.0731V41.6731H325.677V26.0731H329.421ZM335.505 40.6331L336.103 41.6731H329.369V40.6331H335.505ZM334.621 33.4311V34.4711H329.369V33.4311H334.621ZM335.791 26.0731V27.1131H329.369V26.0731H335.791ZM337.169 36.8891L336.181 41.6731H331.683L332.489 40.6331C333.235 40.6331 333.893 40.4858 334.465 40.1911C335.055 39.8791 335.557 39.4458 335.973 38.8911C336.389 38.3191 336.71 37.6518 336.935 36.8891H337.169ZM334.621 34.4191V36.7071H334.361V36.4991C334.361 35.9271 334.179 35.4504 333.815 35.0691C333.469 34.6878 332.992 34.4884 332.385 34.4711V34.4191H334.621ZM334.621 31.1951V33.4831H332.385V33.4311C332.992 33.4138 333.469 33.2144 333.815 32.8331C334.179 32.4344 334.361 31.9491 334.361 31.3771V31.1951H334.621ZM335.791 27.0611V29.8171H335.531V29.5831C335.531 28.8204 335.323 28.2224 334.907 27.7891C334.509 27.3558 333.928 27.1304 333.165 27.1131V27.0611H335.791ZM335.791 25.6831V26.3071L333.061 26.0731C333.564 26.0731 334.093 26.0298 334.647 25.9431C335.202 25.8391 335.583 25.7524 335.791 25.6831ZM325.729 40.0351L325.859 41.6731H323.935V41.4131C323.935 41.4131 323.987 41.4131 324.091 41.4131C324.195 41.4131 324.256 41.4131 324.273 41.4131C324.655 41.4131 324.975 41.2831 325.235 41.0231C325.513 40.7458 325.66 40.4164 325.677 40.0351H325.729ZM325.729 27.7111H325.677C325.66 27.3124 325.513 26.9831 325.235 26.7231C324.975 26.4631 324.655 26.3331 324.273 26.3331C324.256 26.3331 324.195 26.3331 324.091 26.3331C323.987 26.3331 323.935 26.3331 323.935 26.3331V26.0731H325.859L325.729 27.7111ZM343.891 26.0731H346.699C347.41 26.0731 348.103 26.1511 348.779 26.3071C349.455 26.4458 350.062 26.6798 350.599 27.0091C351.137 27.3211 351.561 27.7544 351.873 28.3091C352.203 28.8464 352.367 29.5224 352.367 30.3371C352.367 30.9438 352.237 31.5504 351.977 32.1571C351.735 32.7464 351.345 33.2578 350.807 33.6911C350.287 34.1244 349.603 34.4104 348.753 34.5491C349.256 34.7051 349.733 35.0084 350.183 35.4591C350.651 35.9098 351.015 36.3344 351.275 36.7331C351.345 36.8718 351.466 37.0971 351.639 37.4091C351.813 37.7038 352.029 38.0504 352.289 38.4491C352.567 38.8304 352.853 39.2291 353.147 39.6451C353.494 40.1131 353.797 40.4771 354.057 40.7371C354.317 40.9798 354.586 41.1531 354.863 41.2571C355.141 41.3611 355.461 41.4131 355.825 41.4131V41.6731H353.641C352.705 41.6731 351.908 41.6038 351.249 41.4651C350.608 41.3264 350.045 41.0751 349.559 40.7111C349.091 40.3298 348.658 39.8184 348.259 39.1771C348.103 38.9518 347.939 38.6831 347.765 38.3711C347.592 38.0418 347.419 37.7124 347.245 37.3831C347.072 37.0538 346.916 36.7331 346.777 36.4211C346.656 36.1091 346.569 35.8491 346.517 35.6411C346.292 35.0864 346.032 34.6878 345.737 34.4451C345.46 34.1851 345.2 34.0551 344.957 34.0551V33.8211C344.957 33.8211 345.018 33.8211 345.139 33.8211C345.261 33.8211 345.417 33.8211 345.607 33.8211C345.971 33.8211 346.327 33.7604 346.673 33.6391C347.037 33.5004 347.367 33.2491 347.661 32.8851C347.956 32.5038 348.173 31.9491 348.311 31.2211C348.346 31.1171 348.372 30.9698 348.389 30.7791C348.424 30.5884 348.433 30.3718 348.415 30.1291C348.381 29.4878 348.259 28.9764 348.051 28.5951C347.861 28.1964 347.618 27.9018 347.323 27.7111C347.029 27.5031 346.725 27.3644 346.413 27.2951C346.119 27.2084 345.859 27.1651 345.633 27.1651C345.304 27.1478 345.001 27.1478 344.723 27.1651C344.463 27.1651 344.264 27.1564 344.125 27.1391C344.108 27.1391 344.082 27.0524 344.047 26.8791C344.013 26.6884 343.978 26.5064 343.943 26.3331C343.909 26.1598 343.891 26.0731 343.891 26.0731ZM344.151 26.0731V41.6731H340.381V26.0731H344.151ZM340.459 40.0351L340.563 41.6731H338.691V41.4131C338.709 41.4131 338.752 41.4131 338.821 41.4131C338.908 41.4131 338.969 41.4131 339.003 41.4131C339.385 41.4131 339.705 41.2831 339.965 41.0231C340.243 40.7458 340.39 40.4164 340.407 40.0351H340.459ZM340.459 27.6851H340.407C340.39 27.2864 340.243 26.9658 339.965 26.7231C339.705 26.4631 339.393 26.3331 339.029 26.3331C338.977 26.3331 338.908 26.3331 338.821 26.3331C338.752 26.3331 338.709 26.3331 338.691 26.3331V26.0731H340.563L340.459 27.6851ZM344.099 40.0351H344.151C344.151 40.4684 344.299 40.8064 344.593 41.0491C344.905 41.2918 345.235 41.4131 345.581 41.4131C345.581 41.4131 345.616 41.4131 345.685 41.4131C345.755 41.4131 345.807 41.4131 345.841 41.4131V41.6731H343.969L344.099 40.0351Z" fill="white"/>
</svg>
