<svg width="422" height="66" viewBox="0 0 422 66" fill="none" xmlns="http://www.w3.org/2000/svg">
<g clip-path="url(#clip0_85_130)">
<path d="M81.9196 2.10706H304.893C310.038 2.10706 314.208 6.25528 314.208 11.3737V12.6616L335.427 33.7707L314.208 54.8798V56.1678C314.208 61.2862 310.038 65.4344 304.893 65.4344H81.9196C76.7747 65.4344 72.6049 61.2862 72.6049 56.1678V54.8798L51.3861 33.7707L72.6049 12.6616V11.3737C72.6049 6.25528 76.7747 2.10706 81.9196 2.10706Z" fill="#633769" fill-opacity="0.63" stroke="url(#paint0_linear_85_130)" stroke-width="1.5"/>
<path d="M10.3777 33.7707L25.5772 23.2162L40.7935 33.7707L25.5772 44.3253L10.3777 33.7707Z" stroke="#EDEDED" stroke-width="1.5"/>
<path d="M346.036 33.7707L361.236 23.2162L376.435 33.7707L361.236 44.3253L346.036 33.7707Z" stroke="#EDEDED" stroke-width="1.5"/>
<path d="M324.818 12.6616L346.036 33.7707L324.818 54.8798" stroke="#EDEDED" stroke-width="1.5"/>
<path d="M62.0124 54.8798L40.7936 33.7707L62.0124 12.6616" stroke="#EDEDED" stroke-width="1.5"/>
<path d="M150.699 26.8059C151.15 25.7317 151.687 25.1946 152.31 25.1946H152.836C152.976 25.1946 153.051 25.1086 153.051 24.926C153.051 24.7434 152.976 24.6575 152.836 24.6575H148.54C148.4 24.6575 148.325 24.7434 148.325 24.926C148.325 25.1086 148.4 25.1946 148.54 25.1946H149.399C149.689 25.1946 149.829 25.3557 149.829 25.6672C149.829 25.9358 149.721 26.3225 149.517 26.8059L147.938 30.5227C147.841 30.7375 147.755 30.8342 147.669 30.8342C147.583 30.8342 147.487 30.7375 147.401 30.5227L145.833 26.8059C145.618 26.3118 145.51 25.9358 145.51 25.6672C145.51 25.3557 145.661 25.1946 145.951 25.1946H146.81C146.95 25.1946 147.025 25.1086 147.025 24.926C147.025 24.7434 146.95 24.6575 146.81 24.6575H141.149C141.009 24.6575 140.934 24.7434 140.934 24.926C140.934 25.1086 141.009 25.1946 141.149 25.1946H142.008C142.545 25.1946 143.029 25.7317 143.491 26.8059L146.241 33.2834C146.327 33.4983 146.38 33.7024 146.38 33.9172C146.38 34.1321 146.327 34.3469 146.241 34.551L144.339 39.0413C144.253 39.2346 144.178 39.3206 144.092 39.3206C144.006 39.3206 143.942 39.2346 143.856 39.0413L138.667 26.8059C138.453 26.3118 138.345 25.9358 138.345 25.6672C138.345 25.3557 138.496 25.1946 138.786 25.1946H139.645C139.785 25.1946 139.86 25.1086 139.86 24.926C139.86 24.7434 139.785 24.6575 139.645 24.6575H133.984C133.844 24.6575 133.769 24.7434 133.769 24.926C133.769 25.1086 133.844 25.1946 133.984 25.1946H134.843C135.38 25.1946 135.864 25.7317 136.326 26.8059L142.169 40.5559C142.288 40.8459 142.502 40.9856 142.803 40.9856H144.221C144.522 40.9856 144.726 40.8459 144.855 40.5559L146.821 35.926C146.907 35.7219 147.003 35.6145 147.089 35.6145C147.165 35.6145 147.272 35.7219 147.358 35.926L149.334 40.5559C149.453 40.8459 149.667 40.9856 149.968 40.9856H151.386C151.687 40.9856 151.891 40.8459 152.02 40.5559L157.864 26.8059C158.315 25.7317 158.852 25.1946 159.475 25.1946H159.873C160.012 25.1946 160.087 25.1086 160.087 24.926C160.087 24.7434 160.012 24.6575 159.873 24.6575H155.705C155.565 24.6575 155.49 24.7434 155.49 24.926C155.49 25.1086 155.565 25.1946 155.705 25.1946H156.564C156.854 25.1946 156.994 25.3557 156.994 25.6672C156.994 25.9358 156.886 26.3225 156.682 26.8059L151.504 39.0413C151.418 39.2346 151.343 39.3206 151.257 39.3206C151.171 39.3206 151.107 39.2346 151.021 39.0413L148.529 33.176C148.443 32.9719 148.389 32.7571 148.389 32.5422C148.389 32.3381 148.432 32.1233 148.529 31.9084L150.699 26.8059ZM164.384 23.8625C164.384 23.594 164.266 23.4758 164.073 23.4758C163.976 23.4758 163.847 23.5081 163.697 23.5725L161.366 24.6252C161.248 24.679 161.194 24.7756 161.194 24.926C161.194 25.0657 161.258 25.1624 161.387 25.1946L162.3 25.4631C162.612 25.5491 162.773 25.7209 162.773 26.0647V38.9768C162.773 39.5999 162.515 39.9866 161.828 40.1692C161.269 40.3196 161.162 40.3196 161.162 40.5559C161.162 40.6956 161.226 40.7708 161.344 40.7708H165.834C165.942 40.7708 165.996 40.6956 165.996 40.5559C165.996 40.3196 165.888 40.3196 165.33 40.1692C164.642 39.9866 164.384 39.5999 164.384 38.9768V33.2083C164.384 33.0471 164.459 32.929 164.599 32.8645L165.587 32.4133C165.963 32.2522 166.339 32.177 166.737 32.177C168.724 32.177 169.369 33.4338 169.369 35.6575C169.369 37.0217 169.315 37.9241 169.25 38.9016C169.197 39.6213 168.96 39.9866 168.273 40.1692C167.714 40.3196 167.607 40.3196 167.607 40.5559C167.607 40.6956 167.671 40.7708 167.79 40.7708H172.817C172.924 40.7708 172.978 40.6956 172.978 40.5559C172.978 40.4592 172.817 40.384 172.505 40.3303C171.302 40.1262 170.894 39.9973 170.894 39.0627C170.894 38.2463 170.98 37.4514 170.98 35.2278C170.98 32.8538 170.002 30.8879 167.908 30.8879C167.392 30.8879 166.812 31.0276 166.243 31.3284L164.803 32.0803C164.707 32.134 164.631 32.1448 164.567 32.1448C164.438 32.1448 164.384 32.0588 164.384 31.887V23.8625ZM178.338 40.7708C178.446 40.7708 178.5 40.6956 178.5 40.5559C178.5 40.3196 178.392 40.3196 177.833 40.1692C177.146 39.9866 176.888 39.5999 176.888 38.9768V31.1135C176.888 30.845 176.77 30.7268 176.577 30.7268C176.48 30.7268 176.351 30.759 176.201 30.8235L173.87 31.8762C173.751 31.9299 173.698 32.0266 173.698 32.177C173.698 32.3167 173.762 32.4133 173.891 32.4456L174.804 32.7141C175.116 32.8 175.277 32.9719 175.277 33.3157V38.9768C175.277 39.5999 175.019 39.9866 174.332 40.1692C173.773 40.3196 173.666 40.3196 173.666 40.5559C173.666 40.6956 173.73 40.7708 173.848 40.7708H178.338ZM174.944 26.8059C174.944 27.429 175.449 27.9338 176.072 27.9338C176.695 27.9338 177.2 27.429 177.2 26.8059C177.2 26.1829 176.695 25.678 176.072 25.678C175.449 25.678 174.944 26.1829 174.944 26.8059ZM181.185 38.3967C181.185 40.0295 181.969 40.9856 183.591 40.9856C184.375 40.9856 185.267 40.4807 185.955 39.3528C186.051 39.1917 186.105 39.0627 186.105 38.9875C186.105 38.9446 186.073 38.9124 186.03 38.9124C185.922 38.9124 184.934 39.675 184.182 39.675C183.441 39.675 182.796 39.2668 182.796 37.7952V32.8752C182.796 32.6282 182.925 32.4993 183.172 32.4993H185.45C185.589 32.4993 185.665 32.4456 185.665 32.3167C185.665 32.2952 185.654 32.2629 185.654 32.2307L185.514 31.3284C185.493 31.178 185.396 31.1028 185.267 31.1028H183.172C182.925 31.1028 182.796 30.9739 182.796 30.7268V29.3625C182.796 29.1907 182.743 29.0725 182.657 29.0725C182.592 29.0725 182.485 29.137 182.388 29.2874C181.679 30.3723 180.809 31.2317 179.778 31.8762C179.66 31.9514 179.606 32.0588 179.606 32.177C179.606 32.3918 179.724 32.4993 179.95 32.4993H180.809C181.056 32.4993 181.185 32.6282 181.185 32.8752V38.3967ZM192.722 30.8879C189.865 30.8879 187.899 33.3372 187.899 36.1516C187.899 38.7834 189.747 40.9856 192.411 40.9856C194.14 40.9856 195.408 40.1262 196.611 38.719C196.654 38.676 196.675 38.6331 196.675 38.5793C196.675 38.4504 196.503 38.2786 196.375 38.2786C196.321 38.2786 196.278 38.3 196.235 38.343C195.247 39.3098 194.376 39.5891 192.991 39.5891C191.003 39.5891 189.51 37.8167 189.51 35.7649C189.51 35.4856 189.51 34.8948 189.65 34.7122C189.714 34.6262 189.822 34.5833 189.951 34.5833H196.536C196.675 34.5833 196.75 34.4973 196.75 34.3147C196.75 34.0569 196.536 34.0784 196.493 33.8743C196.052 31.9836 194.806 30.8879 192.722 30.8879ZM192.454 31.5325C193.807 31.5325 194.624 32.4885 194.624 33.7776C194.624 33.9602 194.527 34.0461 194.344 34.0461H190.187C189.994 34.0461 189.897 33.9817 189.897 33.8206C189.897 33.3264 190.67 31.5325 192.454 31.5325ZM206.365 24.6575C206.225 24.6575 206.15 24.7434 206.15 24.926C206.15 25.1086 206.225 25.1946 206.365 25.1946H206.687C207.761 25.1946 208.298 25.7317 208.298 26.8059V38.6223C208.298 39.6965 207.761 40.2336 206.687 40.2336H206.365C206.225 40.2336 206.15 40.3196 206.15 40.5022C206.15 40.6848 206.225 40.7708 206.365 40.7708H212.38C212.52 40.7708 212.595 40.6848 212.595 40.5022C212.595 40.3196 212.52 40.2336 212.38 40.2336H212.058C210.984 40.2336 210.447 39.6965 210.447 38.6223V33.885C210.447 33.552 210.608 33.3909 210.919 33.3909C211.167 33.3909 211.51 33.4553 212.241 33.4553C215.614 33.4553 217.966 31.7366 217.966 29.2229C217.966 27.9231 217.526 26.8704 216.634 26.054C215.431 24.9583 213.959 24.6575 211.661 24.6575C211.145 24.6575 210.522 24.6897 209.319 24.6897C208.524 24.6897 207.536 24.6682 206.365 24.6575ZM210.447 26.0002C210.447 25.6565 210.629 25.4631 210.984 25.4631H212.08C214.647 25.4631 215.818 26.7415 215.818 29.1799C215.818 31.4573 214.196 32.5745 211.886 32.5745C211.424 32.5745 210.447 32.5208 210.447 31.9192V26.0002ZM220.953 40.9856C221.458 40.9856 221.866 40.8997 222.36 40.5344L223.681 39.5569C223.703 39.5354 223.724 39.5247 223.746 39.5247C223.767 39.5247 223.789 39.5569 223.799 39.6213C223.853 39.9651 223.993 40.9856 224.895 40.9856C225.292 40.9856 225.765 40.7385 226.023 40.5559L227.054 39.804C227.215 39.6858 227.269 39.6213 227.269 39.3743C227.269 39.3098 227.258 39.1702 227.194 39.1702C227.108 39.1702 226.603 39.5354 226.195 39.5354C225.679 39.5354 225.357 39.2561 225.357 38.6868V33.9709C225.357 31.6829 223.95 30.8879 222.714 30.8879C222.338 30.8879 221.973 30.9417 221.619 31.0276C220.598 31.2854 219.019 32.467 219.019 33.7561C219.019 33.9172 219.03 34.1213 219.191 34.1213C219.32 34.1213 219.846 33.9602 220.716 33.5413C220.759 33.5198 220.781 33.4661 220.781 33.3909C220.781 33.3586 220.727 33.1975 220.727 32.9504C220.727 32.0159 221.576 31.6292 222.081 31.6292C223.112 31.6292 223.746 32.4348 223.746 33.6057V34.9055C223.746 35.3459 223.606 35.636 223.327 35.7542L221.243 36.6672C219.556 37.4084 218.783 37.8918 218.783 38.9016C218.783 40.1907 219.878 40.9856 220.953 40.9856ZM220.469 38.6331C220.469 37.9885 220.824 37.4407 221.415 37.1829L223.402 36.3127C223.456 36.2913 223.499 36.2805 223.552 36.2805C223.66 36.2805 223.746 36.3557 223.746 36.5168V38.5579C223.746 38.762 223.649 38.9446 223.466 39.0735L222.908 39.4817C222.521 39.761 222.177 39.8899 221.887 39.8899C220.996 39.8899 220.469 39.3313 220.469 38.6331ZM238.162 35.5178C238.162 33.1438 236.658 30.8879 234.445 30.8879C233.918 30.8879 233.36 31.0276 232.78 31.3284L231.34 32.0803C231.244 32.134 231.168 32.1555 231.104 32.1555C230.975 32.1555 230.921 32.0588 230.921 31.887V31.1135C230.921 30.845 230.803 30.7161 230.61 30.7161C230.513 30.7161 230.384 30.759 230.234 30.8235L227.903 31.8762C227.785 31.9299 227.731 32.0266 227.731 32.177C227.731 32.3167 227.795 32.4133 227.924 32.4456L228.837 32.7141C229.149 32.8108 229.31 32.9719 229.31 33.3157V46.4963C229.31 47.1301 229.052 47.5168 228.365 47.6887C227.806 47.8284 227.699 47.8499 227.699 48.0754C227.699 48.2151 227.763 48.2903 227.881 48.2903H232.909C233.016 48.2903 233.07 48.2151 233.07 48.0754C233.07 47.9788 232.909 47.8928 232.597 47.8391C231.34 47.6243 230.921 47.3557 230.921 46.4963V40.9641C230.921 40.76 230.975 40.6418 231.093 40.6418C231.115 40.6418 231.158 40.6526 231.158 40.6526C231.781 40.8352 232.361 40.9856 232.887 40.9856C236.078 40.9856 238.162 38.762 238.162 35.5178ZM232.125 32.4563C232.5 32.2952 232.876 32.22 233.274 32.22C235.261 32.22 236.55 33.7991 236.55 36.2375C236.55 38.676 235.003 40.1477 233.51 40.1477C232.178 40.1477 230.921 39.2561 230.921 37.8704V33.2297C230.921 33.0686 230.997 32.9504 231.136 32.886L232.125 32.4563ZM244.607 30.8879C241.75 30.8879 239.784 33.3372 239.784 36.1516C239.784 38.7834 241.631 40.9856 244.295 40.9856C246.025 40.9856 247.292 40.1262 248.496 38.719C248.539 38.676 248.56 38.6331 248.56 38.5793C248.56 38.4504 248.388 38.2786 248.259 38.2786C248.206 38.2786 248.163 38.3 248.12 38.343C247.131 39.3098 246.261 39.5891 244.875 39.5891C242.888 39.5891 241.395 37.8167 241.395 35.7649C241.395 35.4856 241.395 34.8948 241.535 34.7122C241.599 34.6262 241.707 34.5833 241.835 34.5833H248.42C248.56 34.5833 248.635 34.4973 248.635 34.3147C248.635 34.0569 248.42 34.0784 248.377 33.8743C247.937 31.9836 246.691 30.8879 244.607 30.8879ZM244.338 31.5325C245.692 31.5325 246.508 32.4885 246.508 33.7776C246.508 33.9602 246.412 34.0461 246.229 34.0461H242.072C241.878 34.0461 241.782 33.9817 241.782 33.8206C241.782 33.3264 242.555 31.5325 244.338 31.5325ZM253.201 34.0784C253.201 33.552 253.426 33.1545 253.738 32.8C254.071 32.4241 254.5 32.1555 254.93 32.1555C255.22 32.1555 255.542 32.2522 255.897 32.4348C256.251 32.6174 256.477 32.7034 256.574 32.7034C256.692 32.7034 256.853 32.5208 257.036 32.1663C257.229 31.8118 257.326 31.5647 257.326 31.4465C257.326 31.3176 256.993 31.135 256.466 30.9094C256.047 30.7268 255.682 30.6409 255.392 30.6409C255.016 30.6409 254.651 30.9202 254.307 31.2961C253.974 31.6721 253.652 32.134 253.48 32.3918C253.426 32.467 253.362 32.4993 253.319 32.4993C253.244 32.4993 253.201 32.4241 253.201 32.3059V31.1135C253.201 30.845 253.083 30.7161 252.889 30.7161C252.782 30.7161 252.664 30.759 252.513 30.8235L250.182 31.8762C250.064 31.9299 250.01 32.0266 250.01 32.177C250.01 32.3167 250.075 32.4133 250.204 32.4456L251.117 32.7141C251.428 32.8 251.589 32.9719 251.589 33.3157V38.9768C251.589 39.6106 251.332 39.9973 250.644 40.1692C250.085 40.3088 249.978 40.3303 249.978 40.5559C249.978 40.6956 250.042 40.7708 250.161 40.7708H255.188C255.295 40.7708 255.349 40.6956 255.349 40.5559C255.349 40.4592 255.188 40.384 254.876 40.3303C254.565 40.2766 254.318 40.2229 254.146 40.1692C253.458 39.9651 253.201 39.6106 253.201 38.9768V34.0784Z" fill="white"/>
</g>
<path d="M2.10107 33.7707L17.3006 23.2162L32.5001 33.7707L17.3006 44.3253L2.10107 33.7707Z" stroke="#EDEDED" stroke-width="1.5"/>
<defs>
<linearGradient id="paint0_linear_85_130" x1="347.02" y1="8.69916" x2="73.9555" y2="14.523" gradientUnits="userSpaceOnUse">
<stop stop-color="white"/>
<stop offset="1" stop-color="#92D1F4"/>
</linearGradient>
<clipPath id="clip0_85_130">
<rect width="389" height="65" fill="white" transform="translate(32.5 0.434326)"/>
</clipPath>
</defs>
</svg>
