<svg width="427" height="67" viewBox="0 0 427 67" fill="none" xmlns="http://www.w3.org/2000/svg">
<path d="M15.3387 44.1767C18.1514 39.5952 21.8071 36.321 25.86 34.7618L28.1377 33.8863L25.1386 32.579C21.5396 31.0079 18.2811 28.0694 15.6873 24.0636L14.5119 21.0413L13.6851 23.5839C10.8724 28.1654 7.21676 31.4396 3.16388 32.9988L0.886167 33.8743L3.88529 35.1816C7.48425 36.7527 10.7428 39.6911 13.3366 43.697L14.5119 46.7193L15.3387 44.1767Z" fill="#F3F3F3"/>
<path d="M413.523 42.9775C416.336 38.396 419.992 35.1218 424.045 33.5626L426.322 32.6871L423.323 31.3798C419.724 29.8086 416.466 26.8702 413.872 22.8644L412.697 19.842L411.87 22.3847C409.057 26.9662 405.401 30.2404 401.348 31.7996L399.071 32.6751L402.07 33.9824C405.669 35.5535 408.927 38.4919 411.521 42.4978L412.697 45.5201L413.523 42.9775Z" fill="white"/>
<path d="M50.5677 1.18848H375.848L399.825 33.0348L375.848 65.9534H50.5677L26.8276 33.0348L50.5677 1.18848Z" fill="black" fill-opacity="0.16" stroke="white" stroke-width="2" stroke-miterlimit="10"/>
<path d="M195.005 10.9534H57.8862C95.5134 11.7867 177.386 12.4534 182.886 15.9534C191.611 21.5055 170.886 25.4534 161.386 30.4534C171.386 32.9534 191.286 36.5534 182.886 44.9534C174.486 53.3534 98.2196 54.12 57.8862 54.9534H195.005L230.886 32.9534L195.005 10.9534Z" fill="#EBE5D7" fill-opacity="0.15"/>
<path d="M117.147 38.3691C126.539 35.5143 138.747 33.4742 152.28 32.5026L159.886 31.9571L149.871 31.1425C137.854 30.1636 126.972 28.3326 118.311 25.8366L114.386 23.9534L111.625 25.5377C102.233 28.3924 90.0257 30.4326 76.4921 31.4041L68.8862 31.9496L78.9011 32.7642C90.9189 33.7432 101.8 35.5741 110.461 38.0701L114.386 39.9534L117.147 38.3691Z" fill="#EBE5D7" fill-opacity="0.15"/>
<path d="M309.147 38.3691C318.54 35.5143 330.747 33.4742 344.281 32.5026L351.886 31.9571L341.872 31.1425C329.854 30.1636 318.973 28.3326 310.311 25.8366L306.386 23.9534L303.626 25.5377C294.233 28.3924 282.026 30.4326 268.492 31.4041L260.886 31.9496L270.901 32.7642C282.919 33.7432 293.8 35.5741 302.462 38.0701L306.386 39.9534L309.147 38.3691Z" fill="#EBE5D7" fill-opacity="0.15"/>
<path d="M235.768 10.9534H372.886C335.259 11.7867 253.386 12.4534 247.886 15.9534C239.162 21.5055 259.886 25.4534 269.386 30.4534C259.386 32.9534 239.486 36.5534 247.886 44.9534C256.286 53.3534 332.553 54.12 372.886 54.9534H235.768L199.886 32.9534L235.768 10.9534Z" fill="white" fill-opacity="0.15"/>
<path d="M54.2577 5.44971H374.484L394.873 33.0347L374.484 61.8191L54.2577 63.0185L33.269 33.0347L54.2577 5.44971Z" stroke="white" stroke-opacity="0.26" stroke-width="1.91567" stroke-miterlimit="10"/>
<path d="M133.978 23.6901H138.216L142.376 35.4421L140.816 42.2021L133.978 23.6901ZM146.978 23.1181L147.446 25.6921L141.674 39.3161C141.674 39.3161 141.622 39.4635 141.518 39.7581C141.414 40.0528 141.31 40.4168 141.206 40.8501C141.119 41.2835 141.067 41.7341 141.05 42.2021H140.816L140.088 39.1081L146.744 23.1181H146.978ZM146.978 23.1441L152.698 35.7801L151.45 42.2021L145.184 28.3441L146.978 23.1441ZM157.04 23.6901L152.152 39.3161C152.152 39.3161 152.109 39.4721 152.022 39.7841C151.935 40.0788 151.857 40.4515 151.788 40.9021C151.719 41.3355 151.693 41.7688 151.71 42.2021H151.45L150.722 39.6281L155.272 23.6901H157.04ZM154.778 25.4061C154.917 24.8861 154.873 24.4875 154.648 24.2101C154.423 23.9328 154.137 23.7941 153.79 23.7941H153.556V23.5341H158.99V23.7941C158.99 23.7941 158.955 23.7941 158.886 23.7941C158.817 23.7941 158.782 23.7941 158.782 23.7941C158.383 23.7941 157.95 23.9241 157.482 24.1841C157.014 24.4268 156.685 24.8341 156.494 25.4061H154.778ZM138.866 25.4061H134.628C134.403 24.8341 134.065 24.4268 133.614 24.1841C133.163 23.9241 132.739 23.7941 132.34 23.7941C132.34 23.7941 132.305 23.7941 132.236 23.7941C132.167 23.7941 132.132 23.7941 132.132 23.7941V23.5341H140.062V23.7941H139.828C139.499 23.7941 139.204 23.9328 138.944 24.2101C138.701 24.4875 138.675 24.8861 138.866 25.4061ZM174.876 26.1341V41.7341H171.158V26.1341H174.876ZM164.294 26.1341V41.7341H160.55V26.1341H164.294ZM171.366 33.4401V34.4801H164.06V33.4401H171.366ZM160.628 40.0961V41.7341H158.834V41.4741C158.834 41.4741 158.877 41.4741 158.964 41.4741C159.068 41.4741 159.128 41.4741 159.146 41.4741C159.527 41.4741 159.856 41.3441 160.134 41.0841C160.411 40.8068 160.55 40.4775 160.55 40.0961H160.628ZM164.242 40.0961H164.294C164.311 40.4775 164.458 40.8068 164.736 41.0841C165.013 41.3441 165.342 41.4741 165.724 41.4741C165.724 41.4741 165.767 41.4741 165.854 41.4741C165.958 41.4741 166.01 41.4741 166.01 41.4741V41.7341H164.242V40.0961ZM164.242 27.7721V26.1341H166.01V26.3941C166.01 26.3941 165.958 26.3941 165.854 26.3941C165.767 26.3941 165.724 26.3941 165.724 26.3941C165.342 26.3941 165.013 26.5241 164.736 26.7841C164.458 27.0441 164.311 27.3735 164.294 27.7721H164.242ZM160.628 27.7721H160.55C160.55 27.3735 160.411 27.0441 160.134 26.7841C159.856 26.5241 159.527 26.3941 159.146 26.3941C159.128 26.3941 159.068 26.3941 158.964 26.3941C158.877 26.3941 158.834 26.3941 158.834 26.3941V26.1341H160.628V27.7721ZM171.21 40.0961V41.7341H169.442V41.4741C169.442 41.4741 169.485 41.4741 169.572 41.4741C169.676 41.4741 169.728 41.4741 169.728 41.4741C170.109 41.4741 170.438 41.3441 170.716 41.0841C170.993 40.8068 171.132 40.4775 171.132 40.0961H171.21ZM174.798 40.0961H174.876C174.893 40.4775 175.032 40.8068 175.292 41.0841C175.569 41.3441 175.907 41.4741 176.306 41.4741C176.306 41.4741 176.349 41.4741 176.436 41.4741C176.54 41.4741 176.592 41.4741 176.592 41.4741V41.7341H174.798V40.0961ZM174.824 27.7721V26.1341H176.618V26.3941C176.618 26.3941 176.566 26.3941 176.462 26.3941C176.358 26.3941 176.306 26.3941 176.306 26.3941C175.907 26.3941 175.569 26.5241 175.292 26.7841C175.032 27.0441 174.902 27.3735 174.902 27.7721H174.824ZM171.21 27.7721H171.132C171.132 27.3735 170.993 27.0441 170.716 26.7841C170.438 26.5241 170.109 26.3941 169.728 26.3941C169.728 26.3941 169.676 26.3941 169.572 26.3941C169.485 26.3941 169.442 26.3941 169.442 26.3941V26.1341H171.21V27.7721ZM183.771 26.1341V41.7341H180.027V26.1341H183.771ZM180.105 40.0961V41.7341H178.207V41.4741C178.207 41.4741 178.259 41.4741 178.363 41.4741C178.467 41.4741 178.527 41.4741 178.545 41.4741C178.943 41.4741 179.29 41.3441 179.585 41.0841C179.879 40.8068 180.027 40.4775 180.027 40.0961H180.105ZM183.719 40.0961H183.771C183.788 40.4775 183.935 40.8068 184.213 41.0841C184.507 41.3441 184.863 41.4741 185.279 41.4741C185.279 41.4741 185.322 41.4741 185.409 41.4741C185.513 41.4741 185.573 41.4741 185.591 41.4741V41.7341H183.719V40.0961ZM183.719 27.7721V26.1341H185.591L185.565 26.3941C185.565 26.3941 185.521 26.3941 185.435 26.3941C185.348 26.3941 185.296 26.3941 185.279 26.3941C184.863 26.3941 184.507 26.5241 184.213 26.7841C183.935 27.0441 183.788 27.3735 183.771 27.7721H183.719ZM180.105 27.7721H180.027C180.027 27.3735 179.879 27.0441 179.585 26.7841C179.29 26.5241 178.935 26.3941 178.519 26.3941C178.519 26.3941 178.467 26.3941 178.363 26.3941C178.259 26.3941 178.207 26.3941 178.207 26.3941V26.1341H180.105V27.7721ZM196.135 26.2121V41.7341H192.365V26.2121H196.135ZM201.803 26.1081V27.1481H186.723V26.1081H201.803ZM201.803 27.0701V29.8261H201.517V29.5921C201.535 28.8468 201.327 28.2575 200.893 27.8241C200.477 27.3908 199.897 27.1655 199.151 27.1481V27.0701H201.803ZM201.803 25.7181V26.3681L199.047 26.1081C199.377 26.1081 199.732 26.0908 200.113 26.0561C200.495 26.0041 200.841 25.9521 201.153 25.9001C201.465 25.8308 201.682 25.7701 201.803 25.7181ZM192.417 40.0961V41.7341H190.675V41.4741C190.675 41.4741 190.719 41.4741 190.805 41.4741C190.909 41.4741 190.961 41.4741 190.961 41.4741C191.343 41.4741 191.663 41.3441 191.923 41.0841C192.201 40.8068 192.348 40.4775 192.365 40.0961H192.417ZM196.057 40.0961H196.135C196.135 40.4775 196.274 40.8068 196.551 41.0841C196.829 41.3441 197.167 41.4741 197.565 41.4741C197.565 41.4741 197.609 41.4741 197.695 41.4741C197.799 41.4741 197.851 41.4741 197.851 41.4741V41.7341H196.057V40.0961ZM189.375 27.0701V27.1481C188.613 27.1655 188.023 27.3908 187.607 27.8241C187.209 28.2575 187.009 28.8468 187.009 29.5921V29.8261H186.723V27.0701H189.375ZM186.723 25.7181C186.879 25.7528 187.105 25.8048 187.399 25.8741C187.711 25.9435 188.049 26.0041 188.413 26.0561C188.795 26.0908 189.141 26.1081 189.453 26.1081L186.723 26.3681V25.7181ZM208.626 26.1341V41.7341H204.882V26.1341H208.626ZM214.71 40.6941L215.308 41.7341H208.574V40.6941H214.71ZM213.826 33.4921V34.5321H208.574V33.4921H213.826ZM214.996 26.1341V27.1741H208.574V26.1341H214.996ZM216.374 36.9501L215.386 41.7341H210.888L211.694 40.6941C212.44 40.6941 213.098 40.5468 213.67 40.2521C214.26 39.9401 214.762 39.5068 215.178 38.9521C215.594 38.3801 215.915 37.7128 216.14 36.9501H216.374ZM213.826 34.4801V36.7681H213.566V36.5601C213.566 35.9881 213.384 35.5115 213.02 35.1301C212.674 34.7488 212.197 34.5495 211.59 34.5321V34.4801H213.826ZM213.826 31.2561V33.5441H211.59V33.4921C212.197 33.4748 212.674 33.2755 213.02 32.8941C213.384 32.4955 213.566 32.0101 213.566 31.4381V31.2561H213.826ZM214.996 27.1221V29.8781H214.736V29.6441C214.736 28.8815 214.528 28.2835 214.112 27.8501C213.714 27.4168 213.133 27.1915 212.37 27.1741V27.1221H214.996ZM214.996 25.7441V26.3681L212.266 26.1341C212.769 26.1341 213.298 26.0908 213.852 26.0041C214.407 25.9001 214.788 25.8135 214.996 25.7441ZM204.934 40.0961L205.064 41.7341H203.14V41.4741C203.14 41.4741 203.192 41.4741 203.296 41.4741C203.4 41.4741 203.461 41.4741 203.478 41.4741C203.86 41.4741 204.18 41.3441 204.44 41.0841C204.718 40.8068 204.865 40.4775 204.882 40.0961H204.934ZM204.934 27.7721H204.882C204.865 27.3735 204.718 27.0441 204.44 26.7841C204.18 26.5241 203.86 26.3941 203.478 26.3941C203.461 26.3941 203.4 26.3941 203.296 26.3941C203.192 26.3941 203.14 26.3941 203.14 26.3941V26.1341H205.064L204.934 27.7721ZM230.166 23.5341H233.286C234.777 23.5341 235.981 23.7508 236.9 24.1841C237.836 24.6175 238.529 25.2155 238.98 25.9781C239.448 26.7235 239.699 27.5728 239.734 28.5261C239.769 29.4101 239.621 30.2161 239.292 30.9441C238.963 31.6721 238.512 32.2788 237.94 32.7641C237.368 33.2495 236.709 33.6048 235.964 33.8301C235.236 34.0381 234.473 34.0901 233.676 33.9861C232.896 33.8648 232.133 33.5615 231.388 33.0761V32.8161C231.388 32.8161 231.492 32.8161 231.7 32.8161C231.925 32.8161 232.203 32.7815 232.532 32.7121C232.879 32.6428 233.234 32.5128 233.598 32.3221C233.979 32.1315 234.335 31.8368 234.664 31.4381C234.993 31.0395 235.245 30.5108 235.418 29.8521C235.487 29.6268 235.531 29.3755 235.548 29.0981C235.583 28.8035 235.591 28.5348 235.574 28.2921C235.557 27.1828 235.253 26.2988 234.664 25.6401C234.092 24.9641 233.277 24.6261 232.22 24.6261H230.426C230.426 24.6261 230.4 24.5395 230.348 24.3661C230.313 24.1755 230.27 23.9935 230.218 23.8201C230.183 23.6295 230.166 23.5341 230.166 23.5341ZM230.504 23.5341V41.7341H226.604V23.5341H230.504ZM226.682 39.8361V41.7341H224.602V41.4741C224.619 41.4741 224.671 41.4741 224.758 41.4741C224.862 41.4741 224.923 41.4741 224.94 41.4741C225.391 41.4741 225.772 41.3181 226.084 41.0061C226.413 40.6768 226.587 40.2868 226.604 39.8361H226.682ZM226.682 25.4321H226.604C226.604 24.9815 226.439 24.6001 226.11 24.2881C225.781 23.9588 225.391 23.7941 224.94 23.7941C224.923 23.7941 224.871 23.7941 224.784 23.7941C224.697 23.7941 224.645 23.7941 224.628 23.7941L224.602 23.5341H226.682V25.4321ZM230.426 39.8361H230.504C230.521 40.2868 230.686 40.6768 230.998 41.0061C231.327 41.3181 231.717 41.4741 232.168 41.4741C232.185 41.4741 232.237 41.4741 232.324 41.4741C232.428 41.4741 232.489 41.4741 232.506 41.4741V41.7341H230.426V39.8361ZM246.605 25.4321L254.301 41.6041H249.907L245.071 30.1901L246.605 25.4321ZM241.717 40.0181C241.526 40.4861 241.552 40.8501 241.795 41.1101C242.038 41.3528 242.306 41.4741 242.601 41.4741H242.809V41.7341H237.609V41.4741C237.609 41.4741 237.644 41.4741 237.713 41.4741C237.782 41.4741 237.817 41.4741 237.817 41.4741C238.164 41.4741 238.528 41.3701 238.909 41.1621C239.29 40.9368 239.602 40.5555 239.845 40.0181H241.717ZM246.605 25.4321L246.657 28.5521L241.015 41.6561H239.091L245.175 28.5781C245.21 28.4741 245.288 28.2921 245.409 28.0321C245.53 27.7548 245.66 27.4515 245.799 27.1221C245.938 26.7755 246.068 26.4548 246.189 26.1601C246.31 25.8481 246.38 25.6055 246.397 25.4321H246.605ZM248.867 36.6381V37.6521H242.237V36.6381H248.867ZM249.257 40.0181H253.547C253.807 40.5555 254.128 40.9368 254.509 41.1621C254.89 41.3701 255.254 41.4741 255.601 41.4741C255.601 41.4741 255.636 41.4741 255.705 41.4741C255.774 41.4741 255.809 41.4741 255.809 41.4741V41.7341H248.165V41.4741H248.373C248.668 41.4741 248.936 41.3528 249.179 41.1101C249.422 40.8501 249.448 40.4861 249.257 40.0181ZM261.127 26.1341H263.623C265.027 26.1341 266.163 26.3248 267.029 26.7061C267.896 27.0875 268.546 27.6075 268.979 28.2661C269.413 28.9075 269.647 29.6355 269.681 30.4501C269.716 31.4728 269.508 32.3655 269.057 33.1281C268.624 33.8908 268.035 34.4715 267.289 34.8701C266.544 35.2688 265.729 35.4508 264.845 35.4161C263.961 35.3641 263.086 35.0521 262.219 34.4801V34.2461C262.219 34.2461 262.306 34.2461 262.479 34.2461C262.67 34.2461 262.904 34.2201 263.181 34.1681C263.459 34.0988 263.745 33.9775 264.039 33.8041C264.351 33.6308 264.646 33.3708 264.923 33.0241C265.201 32.6775 265.417 32.2095 265.573 31.6201C265.625 31.4121 265.66 31.1868 265.677 30.9441C265.712 30.6841 265.721 30.4588 265.703 30.2681C265.686 29.3148 265.4 28.5608 264.845 28.0061C264.308 27.4341 263.554 27.1481 262.583 27.1481H261.361C261.361 27.1481 261.344 27.0701 261.309 26.9141C261.275 26.7408 261.231 26.5675 261.179 26.3941C261.145 26.2208 261.127 26.1341 261.127 26.1341ZM261.413 26.1341V41.7341H257.669V26.1341H261.413ZM257.721 40.0961L257.825 41.7341H255.953V41.4741C255.971 41.4741 256.023 41.4741 256.109 41.4741C256.196 41.4741 256.248 41.4741 256.265 41.4741C256.647 41.4741 256.967 41.3441 257.227 41.0841C257.505 40.8068 257.652 40.4775 257.669 40.0961H257.721ZM257.721 27.7461H257.669C257.652 27.3475 257.505 27.0268 257.227 26.7841C256.967 26.5241 256.647 26.3941 256.265 26.3941C256.231 26.3941 256.17 26.3941 256.083 26.3941C256.014 26.3941 255.962 26.3941 255.927 26.3941V26.1341H257.825L257.721 27.7461ZM261.361 40.0961H261.413C261.431 40.4775 261.569 40.8068 261.829 41.0841C262.089 41.3441 262.419 41.4741 262.817 41.4741C262.852 41.4741 262.904 41.4741 262.973 41.4741C263.06 41.4741 263.112 41.4741 263.129 41.4741V41.7341H261.231L261.361 40.0961ZM276.648 26.1341V41.7341H272.904V26.1341H276.648ZM282.732 40.6941L283.33 41.7341H276.596V40.6941H282.732ZM281.848 33.4921V34.5321H276.596V33.4921H281.848ZM283.018 26.1341V27.1741H276.596V26.1341H283.018ZM284.396 36.9501L283.408 41.7341H278.91L279.716 40.6941C280.461 40.6941 281.12 40.5468 281.692 40.2521C282.281 39.9401 282.784 39.5068 283.2 38.9521C283.616 38.3801 283.936 37.7128 284.162 36.9501H284.396ZM281.848 34.4801V36.7681H281.588V36.5601C281.588 35.9881 281.406 35.5115 281.042 35.1301C280.695 34.7488 280.218 34.5495 279.612 34.5321V34.4801H281.848ZM281.848 31.2561V33.5441H279.612V33.4921C280.218 33.4748 280.695 33.2755 281.042 32.8941C281.406 32.4955 281.588 32.0101 281.588 31.4381V31.2561H281.848ZM283.018 27.1221V29.8781H282.758V29.6441C282.758 28.8815 282.55 28.2835 282.134 27.8501C281.735 27.4168 281.154 27.1915 280.392 27.1741V27.1221H283.018ZM283.018 25.7441V26.3681L280.288 26.1341C280.79 26.1341 281.319 26.0908 281.874 26.0041C282.428 25.9001 282.81 25.8135 283.018 25.7441ZM272.956 40.0961L273.086 41.7341H271.162V41.4741C271.162 41.4741 271.214 41.4741 271.318 41.4741C271.422 41.4741 271.482 41.4741 271.5 41.4741C271.881 41.4741 272.202 41.3441 272.462 41.0841C272.739 40.8068 272.886 40.4775 272.904 40.0961H272.956ZM272.956 27.7721H272.904C272.886 27.3735 272.739 27.0441 272.462 26.7841C272.202 26.5241 271.881 26.3941 271.5 26.3941C271.482 26.3941 271.422 26.3941 271.318 26.3941C271.214 26.3941 271.162 26.3941 271.162 26.3941V26.1341H273.086L272.956 27.7721ZM291.118 26.1341H293.926C294.637 26.1341 295.33 26.2121 296.006 26.3681C296.682 26.5068 297.289 26.7408 297.826 27.0701C298.363 27.3821 298.788 27.8155 299.1 28.3701C299.429 28.9075 299.594 29.5835 299.594 30.3981C299.594 31.0048 299.464 31.6115 299.204 32.2181C298.961 32.8075 298.571 33.3188 298.034 33.7521C297.514 34.1855 296.829 34.4715 295.98 34.6101C296.483 34.7661 296.959 35.0695 297.41 35.5201C297.878 35.9708 298.242 36.3955 298.502 36.7941C298.571 36.9328 298.693 37.1581 298.866 37.4701C299.039 37.7648 299.256 38.1115 299.516 38.5101C299.793 38.8915 300.079 39.2901 300.374 39.7061C300.721 40.1741 301.024 40.5381 301.284 40.7981C301.544 41.0408 301.813 41.2141 302.09 41.3181C302.367 41.4221 302.688 41.4741 303.052 41.4741V41.7341H300.868C299.932 41.7341 299.135 41.6648 298.476 41.5261C297.835 41.3875 297.271 41.1361 296.786 40.7721C296.318 40.3908 295.885 39.8795 295.486 39.2381C295.33 39.0128 295.165 38.7441 294.992 38.4321C294.819 38.1028 294.645 37.7735 294.472 37.4441C294.299 37.1148 294.143 36.7941 294.004 36.4821C293.883 36.1701 293.796 35.9101 293.744 35.7021C293.519 35.1475 293.259 34.7488 292.964 34.5061C292.687 34.2461 292.427 34.1161 292.184 34.1161V33.8821C292.184 33.8821 292.245 33.8821 292.366 33.8821C292.487 33.8821 292.643 33.8821 292.834 33.8821C293.198 33.8821 293.553 33.8215 293.9 33.7001C294.264 33.5615 294.593 33.3101 294.888 32.9461C295.183 32.5648 295.399 32.0101 295.538 31.2821C295.573 31.1781 295.599 31.0308 295.616 30.8401C295.651 30.6495 295.659 30.4328 295.642 30.1901C295.607 29.5488 295.486 29.0375 295.278 28.6561C295.087 28.2575 294.845 27.9628 294.55 27.7721C294.255 27.5641 293.952 27.4255 293.64 27.3561C293.345 27.2695 293.085 27.2261 292.86 27.2261C292.531 27.2088 292.227 27.2088 291.95 27.2261C291.69 27.2261 291.491 27.2175 291.352 27.2001C291.335 27.2001 291.309 27.1135 291.274 26.9401C291.239 26.7495 291.205 26.5675 291.17 26.3941C291.135 26.2208 291.118 26.1341 291.118 26.1341ZM291.378 26.1341V41.7341H287.608V26.1341H291.378ZM287.686 40.0961L287.79 41.7341H285.918V41.4741C285.935 41.4741 285.979 41.4741 286.048 41.4741C286.135 41.4741 286.195 41.4741 286.23 41.4741C286.611 41.4741 286.932 41.3441 287.192 41.0841C287.469 40.8068 287.617 40.4775 287.634 40.0961H287.686ZM287.686 27.7461H287.634C287.617 27.3475 287.469 27.0268 287.192 26.7841C286.932 26.5241 286.62 26.3941 286.256 26.3941C286.204 26.3941 286.135 26.3941 286.048 26.3941C285.979 26.3941 285.935 26.3941 285.918 26.3941V26.1341H287.79L287.686 27.7461ZM291.326 40.0961H291.378C291.378 40.5295 291.525 40.8675 291.82 41.1101C292.132 41.3528 292.461 41.4741 292.808 41.4741C292.808 41.4741 292.843 41.4741 292.912 41.4741C292.981 41.4741 293.033 41.4741 293.068 41.4741V41.7341H291.196L291.326 40.0961Z" fill="white"/>
</svg>
