<svg width="768" height="505" viewBox="0 0 768 505" fill="none" xmlns="http://www.w3.org/2000/svg">
<path d="M722.858 17.1349C725.025 14.1039 727.843 11.9377 730.967 10.9062L732.723 10.327L730.411 9.46215C727.637 8.42272 725.125 6.47875 723.126 3.82861L722.22 1.8291L721.583 3.51123C719.415 6.54223 716.597 8.70836 713.474 9.73985L711.718 10.3191L714.03 11.1839C716.804 12.2234 719.315 14.1673 721.314 16.8175L722.22 18.817L722.858 17.1349Z" fill="#DDDCE4"/>
<path d="M44.67 17.1344C46.838 14.1034 49.6557 11.9372 52.7796 10.9057L54.5352 10.3265L52.2235 9.46166C49.4495 8.42223 46.938 6.47826 44.9387 3.82812L44.0328 1.82861L43.3955 3.51074C41.2276 6.54174 38.4099 8.70787 35.286 9.73937L33.5304 10.3186L35.842 11.1835C38.616 12.2229 41.1276 14.1668 43.1269 16.817L44.0328 18.8165L44.67 17.1344Z" fill="#DDDCE4"/>
<path d="M722.858 502.914C725.025 499.883 727.843 497.717 730.967 496.685L732.723 496.106L730.411 495.241C727.637 494.202 725.125 492.258 723.126 489.607L722.22 487.608L721.583 489.29C719.415 492.321 716.597 494.487 713.474 495.519L711.718 496.098L714.03 496.963C716.804 498.002 719.315 499.946 721.314 502.596L722.22 504.596L722.858 502.914Z" fill="white"/>
<path d="M44.67 502.913C46.838 499.882 49.6557 497.716 52.7796 496.685L54.5352 496.105L52.2235 495.24C49.4495 494.201 46.938 492.257 44.9387 489.607L44.0328 487.607L43.3955 489.29C41.2276 492.321 38.4099 494.487 35.286 495.518L33.5304 496.097L35.842 496.962C38.616 498.002 41.1276 499.946 43.1269 502.596L44.0328 504.595L44.67 502.913Z" fill="white"/>
<g style="mix-blend-mode:multiply" opacity="0.2">
<rect x="0.686523" y="10.3223" width="766.362" height="485.779" fill="url(#paint0_linear_477_6)"/>
</g>
<path d="M38.9609 10.3228H713.969" stroke="#DDDCE4" stroke-width="2"/>
<path d="M38.9609 496.102H713.969" stroke="white" stroke-width="2"/>
<rect x="1.70855" y="0.00504607" width="16.7094" height="16.6523" transform="matrix(0.85581 -0.517291 0.852739 0.522337 382.831 11.1772)" fill="#B3B8E9" stroke="white" stroke-width="2"/>
<rect x="1.70856" y="5.96046e-08" width="16.6809" height="16.6809" transform="matrix(0.85428 -0.519812 0.85428 0.519812 355.034 11.2114)" fill="#B3B8E9" stroke="white" stroke-width="2"/>
<path d="M339.572 10.3234L347.179 7.10938L354.785 10.3234L347.179 13.5373L339.572 10.3234Z" stroke="white" stroke-width="2"/>
<path d="M413.215 10.3238L420.821 7.10986L428.428 10.3238L420.821 13.5378L413.215 10.3238Z" stroke="white" stroke-width="2"/>
<path d="M376.031 85.1582L384.601 70.8794L393.227 85.1582L384.601 90.3422L376.031 85.1582Z" stroke="white" stroke-width="2"/>
<path d="M136.529 60.1802C136.705 60.6636 136.544 60.9126 136.061 60.9126H129.908C129.425 60.9126 129.264 60.6636 129.483 60.1802L132.97 52.3726C133.116 52.0356 133.233 51.8599 133.336 51.8599C133.438 51.8599 133.57 52.0356 133.688 52.3726L136.529 60.1802ZM132.442 48.9448C132.574 49.311 132.589 49.6333 132.472 49.897L124.503 67.7827C123.844 69.2476 122.936 69.98 121.764 69.98H121.046C120.855 69.98 120.753 70.0972 120.753 70.3462C120.753 70.5952 120.855 70.7124 121.046 70.7124H127.638C127.828 70.7124 127.931 70.5952 127.931 70.3462C127.931 70.0972 127.828 69.98 127.638 69.98H126.466C125.572 69.98 125.367 69.4526 125.836 68.3979L128.355 62.7437C128.575 62.2603 128.927 62.0112 129.41 62.0112H136.456C136.939 62.0112 137.291 62.2603 137.467 62.7437L139.547 68.4712C139.913 69.4819 139.723 69.98 138.99 69.98H137.818C137.628 69.98 137.525 70.0972 137.525 70.3462C137.525 70.5952 137.628 70.7124 137.818 70.7124H145.567C145.758 70.7124 145.86 70.5952 145.86 70.3462C145.86 70.0972 145.758 69.98 145.567 69.98H144.322C143.59 69.98 142.945 69.2476 142.418 67.7827L135.592 49.0327C135.445 48.6372 135.167 48.4468 134.757 48.4468H132.853C132.457 48.4468 132.325 48.6079 132.442 48.9448ZM151.515 61.5864C151.515 60.8687 151.822 60.3267 152.247 59.8433C152.701 59.3306 153.287 58.9644 153.873 58.9644C154.269 58.9644 154.708 59.0962 155.191 59.3452C155.675 59.5942 155.982 59.7114 156.114 59.7114C156.275 59.7114 156.495 59.4624 156.744 58.979C157.008 58.4956 157.14 58.1587 157.14 57.9976C157.14 57.8218 156.686 57.5728 155.968 57.2651C155.396 57.0161 154.898 56.8989 154.503 56.8989C153.99 56.8989 153.492 57.2798 153.023 57.7925C152.569 58.3052 152.13 58.9351 151.896 59.2866C151.822 59.3892 151.734 59.4331 151.676 59.4331C151.573 59.4331 151.515 59.3306 151.515 59.1694V57.5435C151.515 57.1772 151.354 57.0015 151.09 57.0015C150.943 57.0015 150.782 57.0601 150.577 57.1479L147.398 58.5835C147.237 58.6567 147.164 58.7886 147.164 58.9937C147.164 59.1841 147.252 59.3159 147.428 59.3599L148.673 59.7261C149.098 59.8433 149.317 60.0776 149.317 60.5464V68.2661C149.317 69.1304 148.966 69.6577 148.028 69.8921C147.267 70.0825 147.12 70.1118 147.12 70.4194C147.12 70.6099 147.208 70.7124 147.369 70.7124H154.225C154.371 70.7124 154.444 70.6099 154.444 70.4194C154.444 70.2876 154.225 70.1851 153.8 70.1118C153.375 70.0386 153.038 69.9653 152.804 69.8921C151.866 69.6138 151.515 69.1304 151.515 68.2661V61.5864ZM162.501 63.8569C162.501 63.7251 162.545 63.6812 162.604 63.6812C162.633 63.6812 162.677 63.6958 162.706 63.7251L167.203 68.5298C167.481 68.8374 167.657 69.1743 167.657 69.4233C167.657 69.6284 167.452 69.8042 167.071 69.8921C166.31 70.0825 166.163 70.1118 166.163 70.4194C166.163 70.6099 166.251 70.7124 166.412 70.7124H173.268C173.414 70.7124 173.487 70.6099 173.487 70.4194C173.487 70.1118 173.341 70.0825 172.579 69.8921C171.554 69.6284 170.953 69.3208 170.719 69.0718L164.889 62.8169C164.801 62.7144 164.742 62.6118 164.742 62.5239C164.742 62.436 164.786 62.3188 164.918 62.2603C165.694 61.894 167.936 60.1069 168.521 59.4624C169.386 58.5249 170.455 58.3784 171.378 58.2612C171.832 58.2026 172.066 58.0708 172.066 57.8657C172.066 57.646 171.949 57.5288 171.7 57.5288H165.738C165.489 57.5288 165.372 57.646 165.372 57.8657C165.372 58.2905 167.306 58.4663 167.306 58.8325C167.306 60.0776 163.497 62.1577 163.131 62.1577C162.794 62.1577 162.501 61.9087 162.501 61.4399V47.6558C162.501 47.2896 162.34 47.1284 162.076 47.1284C161.944 47.1284 161.769 47.1724 161.563 47.2603L158.385 48.6958C158.224 48.769 158.15 48.9009 158.15 49.106C158.15 49.2964 158.238 49.4282 158.414 49.4722L159.659 49.8384C160.084 49.9556 160.304 50.1899 160.304 50.6587V68.2661C160.304 69.1157 159.952 69.6431 159.015 69.8921C158.253 70.0972 158.106 70.0972 158.106 70.4194C158.106 70.6099 158.194 70.7124 158.355 70.7124H164.479C164.625 70.7124 164.698 70.6099 164.698 70.4194C164.698 70.0972 164.552 70.0972 163.79 69.8921C162.853 69.6431 162.501 69.1157 162.501 68.2661V63.8569ZM177.472 71.0054C178.16 71.0054 178.717 70.8882 179.391 70.3901L181.192 69.0571C181.222 69.0278 181.251 69.0132 181.28 69.0132C181.31 69.0132 181.339 69.0571 181.354 69.145C181.427 69.6138 181.617 71.0054 182.848 71.0054C183.39 71.0054 184.034 70.6685 184.386 70.4194L185.792 69.394C186.012 69.2329 186.085 69.145 186.085 68.8081C186.085 68.7202 186.07 68.5298 185.982 68.5298C185.865 68.5298 185.177 69.0278 184.62 69.0278C183.917 69.0278 183.478 68.647 183.478 67.8706V61.4399C183.478 58.3198 181.559 57.2358 179.874 57.2358C179.361 57.2358 178.863 57.3091 178.38 57.4263C176.988 57.7778 174.835 59.3892 174.835 61.147C174.835 61.3667 174.85 61.645 175.069 61.645C175.245 61.645 175.963 61.4253 177.149 60.854C177.208 60.8247 177.237 60.7515 177.237 60.6489C177.237 60.605 177.164 60.3853 177.164 60.0483C177.164 58.7739 178.321 58.2466 179.01 58.2466C180.416 58.2466 181.28 59.3452 181.28 60.9419V62.7144C181.28 63.3149 181.09 63.7104 180.709 63.8716L177.867 65.1167C175.567 66.1274 174.513 66.7866 174.513 68.1636C174.513 69.9214 176.007 71.0054 177.472 71.0054ZM176.812 67.7974C176.812 66.9185 177.296 66.1714 178.102 65.8198L180.812 64.6333C180.885 64.604 180.943 64.5894 181.017 64.5894C181.163 64.5894 181.28 64.6919 181.28 64.9116V67.6948C181.28 67.9731 181.148 68.2222 180.899 68.3979L180.138 68.9546C179.61 69.3354 179.142 69.5112 178.746 69.5112C177.53 69.5112 176.812 68.7495 176.812 67.7974ZM196.91 70.8149C196.91 71.02 196.983 71.1226 197.13 71.1226C197.188 71.1226 197.247 71.0933 197.335 71.064L201.188 69.3794C201.305 69.3354 201.363 69.2476 201.363 69.145C201.363 68.8813 201.158 68.6763 201.012 68.6763C200.982 68.6763 200.938 68.6909 200.895 68.7056L200.426 68.9106C200.206 69.0132 200.016 69.0571 199.854 69.0571C199.356 69.0571 199.107 68.647 199.107 68.0024V47.6558C199.107 47.2896 198.946 47.1138 198.683 47.1138C198.551 47.1138 198.375 47.1724 198.17 47.2603L194.991 48.6958C194.83 48.769 194.757 48.9009 194.757 49.106C194.757 49.2964 194.845 49.4282 195.021 49.4722L196.266 49.8384C196.69 49.9702 196.91 50.1899 196.91 50.6587V57.1333C196.91 57.3677 196.808 57.5288 196.603 57.5288C196.573 57.5288 196.529 57.5288 196.485 57.5142C195.709 57.3237 194.933 57.2358 194.229 57.2358C189.82 57.2358 187.037 60.312 187.037 64.6626C187.037 67.6362 188.839 71.0054 192.105 71.0054C192.823 71.0054 193.585 70.8149 194.376 70.4048L196.339 69.3794C196.471 69.3208 196.573 69.2769 196.661 69.2769C196.822 69.2769 196.91 69.4233 196.91 69.6431V70.8149ZM195.27 68.8667C194.757 69.0864 194.244 69.189 193.702 69.189C190.641 69.189 189.234 66.5962 189.234 63.6812C189.234 61.0737 190.714 58.3784 193.38 58.3784C195.167 58.3784 196.91 59.6235 196.91 61.4839V67.812C196.91 68.0317 196.808 68.1929 196.617 68.2808L195.27 68.8667ZM209.156 70.7124C209.303 70.7124 209.376 70.6099 209.376 70.4194C209.376 70.0972 209.229 70.0972 208.468 69.8921C207.53 69.6431 207.179 69.1157 207.179 68.2661V57.5435C207.179 57.1772 207.018 57.0161 206.754 57.0161C206.622 57.0161 206.446 57.0601 206.241 57.1479L203.062 58.5835C202.901 58.6567 202.828 58.7886 202.828 58.9937C202.828 59.1841 202.916 59.3159 203.092 59.3599L204.337 59.7261C204.762 59.8433 204.981 60.0776 204.981 60.5464V68.2661C204.981 69.1157 204.63 69.6431 203.692 69.8921C202.931 70.0972 202.784 70.0972 202.784 70.4194C202.784 70.6099 202.872 70.7124 203.033 70.7124H209.156ZM204.527 51.6694C204.527 52.519 205.216 53.2075 206.065 53.2075C206.915 53.2075 207.604 52.519 207.604 51.6694C207.604 50.8198 206.915 50.1313 206.065 50.1313C205.216 50.1313 204.527 50.8198 204.527 51.6694ZM214.093 71.0054C214.781 71.0054 215.338 70.8882 216.012 70.3901L217.813 69.0571C217.843 69.0278 217.872 69.0132 217.901 69.0132C217.931 69.0132 217.96 69.0571 217.975 69.145C218.048 69.6138 218.238 71.0054 219.469 71.0054C220.011 71.0054 220.655 70.6685 221.007 70.4194L222.413 69.394C222.633 69.2329 222.706 69.145 222.706 68.8081C222.706 68.7202 222.691 68.5298 222.604 68.5298C222.486 68.5298 221.798 69.0278 221.241 69.0278C220.538 69.0278 220.099 68.647 220.099 67.8706V61.4399C220.099 58.3198 218.18 57.2358 216.495 57.2358C215.982 57.2358 215.484 57.3091 215.001 57.4263C213.609 57.7778 211.456 59.3892 211.456 61.147C211.456 61.3667 211.471 61.645 211.69 61.645C211.866 61.645 212.584 61.4253 213.771 60.854C213.829 60.8247 213.858 60.7515 213.858 60.6489C213.858 60.605 213.785 60.3853 213.785 60.0483C213.785 58.7739 214.942 58.2466 215.631 58.2466C217.037 58.2466 217.901 59.3452 217.901 60.9419V62.7144C217.901 63.3149 217.711 63.7104 217.33 63.8716L214.488 65.1167C212.188 66.1274 211.134 66.7866 211.134 68.1636C211.134 69.9214 212.628 71.0054 214.093 71.0054ZM213.434 67.7974C213.434 66.9185 213.917 66.1714 214.723 65.8198L217.433 64.6333C217.506 64.604 217.564 64.5894 217.638 64.5894C217.784 64.5894 217.901 64.6919 217.901 64.9116V67.6948C217.901 67.9731 217.77 68.2222 217.521 68.3979L216.759 68.9546C216.231 69.3354 215.763 69.5112 215.367 69.5112C214.151 69.5112 213.434 68.7495 213.434 67.7974ZM232.989 69.8921C232.228 70.0825 232.081 70.1118 232.081 70.4194C232.081 70.6099 232.169 70.7124 232.33 70.7124H239.186C239.332 70.7124 239.405 70.6099 239.405 70.4194C239.405 70.2876 239.186 70.1851 238.761 70.1118C237.12 69.8335 236.563 69.6577 236.563 68.3833C236.563 67.0063 236.681 65.8638 236.681 63.1538C236.681 59.9165 235.348 57.2358 232.491 57.2358C231.788 57.2358 230.997 57.4263 230.221 57.8364L228.258 58.8618C228.126 58.9351 228.023 58.9497 227.936 58.9497C227.76 58.9497 227.687 58.8325 227.687 58.5981V57.5435C227.687 57.1772 227.525 57.0161 227.262 57.0161C227.13 57.0161 226.954 57.0601 226.749 57.1479L223.57 58.5835C223.409 58.6567 223.336 58.7886 223.336 58.9937C223.336 59.1841 223.424 59.3159 223.6 59.3599L224.845 59.7261C225.27 59.8433 225.489 60.0776 225.489 60.5464V68.2661C225.489 69.1157 225.138 69.6431 224.2 69.8921C223.438 70.0972 223.292 70.0972 223.292 70.4194C223.292 70.6099 223.38 70.7124 223.541 70.7124H229.664C229.811 70.7124 229.884 70.6099 229.884 70.4194C229.884 70.0972 229.737 70.0972 228.976 69.8921C228.038 69.6431 227.687 69.1157 227.687 68.2661V60.3999C227.687 60.1802 227.789 60.019 227.979 59.9312L229.327 59.3159C229.84 59.0962 230.353 58.9937 230.895 58.9937C233.604 58.9937 234.483 60.7075 234.483 63.7397C234.483 65.6001 234.41 66.8306 234.322 68.1636C234.249 69.1597 233.927 69.6577 232.989 69.8921ZM242.042 70.522C242.818 70.7124 243.551 71.0054 244.356 71.0054C246.583 71.0054 248.546 69.687 248.546 67.3872C248.546 66.0249 247.945 65.1313 247.081 64.3696C246.656 63.9888 245.938 63.5054 244.107 62.4067C243.17 61.8501 242.13 61.2349 242.13 59.9312C242.13 58.8032 243.023 57.9683 244.356 57.9683C245.924 57.9683 246.48 58.7739 246.803 59.814C247.11 60.854 247.052 61.147 247.462 61.147C247.755 61.147 247.857 61.0005 247.843 60.8101L247.55 57.4995C247.535 57.3237 247.433 57.2358 247.213 57.2358C246.627 57.2358 246.656 57.4849 246.451 57.4849C246.202 57.4849 245.792 57.2358 244.635 57.2358C242.364 57.2358 240.606 58.7446 240.606 60.8687C240.606 62.2163 241.266 63.0806 242.13 63.7983C242.569 64.1646 243.302 64.6772 244.342 65.3364C246.1 66.4644 246.51 66.9478 246.51 68.1636C246.51 69.3501 245.88 70.2729 244.474 70.2729C242.804 70.2729 241.91 69.3794 241.427 67.9438C241.251 67.4458 241.339 67.1968 240.943 67.1968C240.65 67.1968 240.548 67.3579 240.562 67.5337L240.841 70.7417C240.855 70.9175 240.958 71.0054 241.163 71.0054C241.471 71.0054 241.603 70.5073 241.881 70.5073C241.939 70.5073 241.983 70.5073 242.042 70.522Z" fill="#383976"/>
<path d="M97.5953 68.0631C99.4667 65.0147 101.899 62.8361 104.596 61.7987L106.111 61.2162L104.116 60.3463C101.721 59.3009 99.553 57.3458 97.8272 54.6804L97.0451 52.6694L96.495 54.3612C94.6235 57.4096 92.1911 59.5882 89.4945 60.6256L87.9789 61.2082L89.9745 62.078C92.3691 63.1234 94.5372 65.0785 96.2631 67.7439L97.0451 69.7549L97.5953 68.0631Z" fill="#FF77A6"/>
<path d="M509.139 60.1802C509.314 60.6636 509.153 60.9126 508.67 60.9126H502.518C502.034 60.9126 501.873 60.6636 502.093 60.1802L505.579 52.3726C505.726 52.0356 505.843 51.8599 505.945 51.8599C506.048 51.8599 506.18 52.0356 506.297 52.3726L509.139 60.1802ZM505.052 48.9448C505.184 49.311 505.198 49.6333 505.081 49.897L497.112 67.7827C496.453 69.2476 495.545 69.98 494.373 69.98H493.655C493.465 69.98 493.362 70.0972 493.362 70.3462C493.362 70.5952 493.465 70.7124 493.655 70.7124H500.247C500.438 70.7124 500.54 70.5952 500.54 70.3462C500.54 70.0972 500.438 69.98 500.247 69.98H499.075C498.182 69.98 497.977 69.4526 498.445 68.3979L500.965 62.7437C501.185 62.2603 501.536 62.0112 502.02 62.0112H509.065C509.549 62.0112 509.9 62.2603 510.076 62.7437L512.156 68.4712C512.522 69.4819 512.332 69.98 511.6 69.98H510.428C510.237 69.98 510.135 70.0972 510.135 70.3462C510.135 70.5952 510.237 70.7124 510.428 70.7124H518.177C518.367 70.7124 518.47 70.5952 518.47 70.3462C518.47 70.0972 518.367 69.98 518.177 69.98H516.932C516.199 69.98 515.555 69.2476 515.027 67.7827L508.201 49.0327C508.055 48.6372 507.776 48.4468 507.366 48.4468H505.462C505.066 48.4468 504.935 48.6079 505.052 48.9448ZM521.927 67.4751C521.927 69.7017 522.996 71.0054 525.208 71.0054C526.277 71.0054 527.493 70.3169 528.431 68.7788C528.562 68.5591 528.636 68.3833 528.636 68.2808C528.636 68.2222 528.592 68.1782 528.533 68.1782C528.387 68.1782 527.039 69.2183 526.014 69.2183C525.003 69.2183 524.124 68.6616 524.124 66.6548V59.9458C524.124 59.6089 524.3 59.4331 524.637 59.4331H527.742C527.933 59.4331 528.035 59.3599 528.035 59.1841C528.035 59.1548 528.021 59.1108 528.021 59.0669L527.83 57.8364C527.801 57.6313 527.669 57.5288 527.493 57.5288H524.637C524.3 57.5288 524.124 57.353 524.124 57.0161V55.1558C524.124 54.9214 524.051 54.7603 523.934 54.7603C523.846 54.7603 523.699 54.8481 523.567 55.0532C522.601 56.5327 521.414 57.7046 520.008 58.5835C519.847 58.686 519.773 58.8325 519.773 58.9937C519.773 59.2866 519.935 59.4331 520.242 59.4331H521.414C521.751 59.4331 521.927 59.6089 521.927 59.9458V67.4751ZM532.913 67.4751C532.913 69.7017 533.982 71.0054 536.194 71.0054C537.264 71.0054 538.479 70.3169 539.417 68.7788C539.549 68.5591 539.622 68.3833 539.622 68.2808C539.622 68.2222 539.578 68.1782 539.52 68.1782C539.373 68.1782 538.025 69.2183 537 69.2183C535.989 69.2183 535.11 68.6616 535.11 66.6548V59.9458C535.11 59.6089 535.286 59.4331 535.623 59.4331H538.729C538.919 59.4331 539.021 59.3599 539.021 59.1841C539.021 59.1548 539.007 59.1108 539.007 59.0669L538.816 57.8364C538.787 57.6313 538.655 57.5288 538.479 57.5288H535.623C535.286 57.5288 535.11 57.353 535.11 57.0161V55.1558C535.11 54.9214 535.037 54.7603 534.92 54.7603C534.832 54.7603 534.686 54.8481 534.554 55.0532C533.587 56.5327 532.4 57.7046 530.994 58.5835C530.833 58.686 530.76 58.8325 530.76 58.9937C530.76 59.2866 530.921 59.4331 531.229 59.4331H532.4C532.737 59.4331 532.913 59.6089 532.913 59.9458V67.4751ZM546.097 61.5864C546.097 60.8687 546.404 60.3267 546.829 59.8433C547.283 59.3306 547.869 58.9644 548.455 58.9644C548.851 58.9644 549.29 59.0962 549.773 59.3452C550.257 59.5942 550.564 59.7114 550.696 59.7114C550.857 59.7114 551.077 59.4624 551.326 58.979C551.59 58.4956 551.722 58.1587 551.722 57.9976C551.722 57.8218 551.268 57.5728 550.55 57.2651C549.979 57.0161 549.48 56.8989 549.085 56.8989C548.572 56.8989 548.074 57.2798 547.605 57.7925C547.151 58.3052 546.712 58.9351 546.478 59.2866C546.404 59.3892 546.316 59.4331 546.258 59.4331C546.155 59.4331 546.097 59.3306 546.097 59.1694V57.5435C546.097 57.1772 545.936 57.0015 545.672 57.0015C545.525 57.0015 545.364 57.0601 545.159 57.1479L541.98 58.5835C541.819 58.6567 541.746 58.7886 541.746 58.9937C541.746 59.1841 541.834 59.3159 542.01 59.3599L543.255 59.7261C543.68 59.8433 543.899 60.0776 543.899 60.5464V68.2661C543.899 69.1304 543.548 69.6577 542.61 69.8921C541.849 70.0825 541.702 70.1118 541.702 70.4194C541.702 70.6099 541.79 70.7124 541.951 70.7124H548.807C548.953 70.7124 549.026 70.6099 549.026 70.4194C549.026 70.2876 548.807 70.1851 548.382 70.1118C547.957 70.0386 547.62 69.9653 547.386 69.8921C546.448 69.6138 546.097 69.1304 546.097 68.2661V61.5864ZM555.94 71.0054C556.629 71.0054 557.186 70.8882 557.859 70.3901L559.661 69.0571C559.69 69.0278 559.72 69.0132 559.749 69.0132C559.778 69.0132 559.808 69.0571 559.822 69.145C559.896 69.6138 560.086 71.0054 561.316 71.0054C561.858 71.0054 562.503 70.6685 562.854 70.4194L564.261 69.394C564.48 69.2329 564.554 69.145 564.554 68.8081C564.554 68.7202 564.539 68.5298 564.451 68.5298C564.334 68.5298 563.646 69.0278 563.089 69.0278C562.386 69.0278 561.946 68.647 561.946 67.8706V61.4399C561.946 58.3198 560.027 57.2358 558.343 57.2358C557.83 57.2358 557.332 57.3091 556.849 57.4263C555.457 57.7778 553.304 59.3892 553.304 61.147C553.304 61.3667 553.318 61.645 553.538 61.645C553.714 61.645 554.432 61.4253 555.618 60.854C555.677 60.8247 555.706 60.7515 555.706 60.6489C555.706 60.605 555.633 60.3853 555.633 60.0483C555.633 58.7739 556.79 58.2466 557.479 58.2466C558.885 58.2466 559.749 59.3452 559.749 60.9419V62.7144C559.749 63.3149 559.559 63.7104 559.178 63.8716L556.336 65.1167C554.036 66.1274 552.981 66.7866 552.981 68.1636C552.981 69.9214 554.476 71.0054 555.94 71.0054ZM555.281 67.7974C555.281 66.9185 555.765 66.1714 556.57 65.8198L559.28 64.6333C559.354 64.604 559.412 64.5894 559.485 64.5894C559.632 64.5894 559.749 64.6919 559.749 64.9116V67.6948C559.749 67.9731 559.617 68.2222 559.368 68.3979L558.606 68.9546C558.079 69.3354 557.61 69.5112 557.215 69.5112C555.999 69.5112 555.281 68.7495 555.281 67.7974ZM565.506 64.2524C565.506 67.9292 567.908 71.0054 571.658 71.0054C574.017 71.0054 575.672 69.7749 577.386 67.9146C577.444 67.856 577.474 67.7827 577.474 67.7095C577.474 67.5483 577.239 67.314 577.078 67.314C577.005 67.314 576.932 67.3433 576.873 67.4019C575.643 68.6177 574.178 69.1011 572.552 69.1011C569.666 69.1011 567.806 66.5083 567.806 63.3735C567.806 60.9712 569.036 58.0269 572.186 58.0269C573.665 58.0269 574.383 60.0483 575.643 60.0483C576.185 60.0483 576.697 59.7261 576.697 59.1841C576.697 57.939 574.866 57.2358 572.493 57.2358C568.348 57.2358 565.506 60.2095 565.506 64.2524ZM581.253 67.4751C581.253 69.7017 582.322 71.0054 584.534 71.0054C585.604 71.0054 586.819 70.3169 587.757 68.7788C587.889 68.5591 587.962 68.3833 587.962 68.2808C587.962 68.2222 587.918 68.1782 587.859 68.1782C587.713 68.1782 586.365 69.2183 585.34 69.2183C584.329 69.2183 583.45 68.6616 583.45 66.6548V59.9458C583.45 59.6089 583.626 59.4331 583.963 59.4331H587.068C587.259 59.4331 587.361 59.3599 587.361 59.1841C587.361 59.1548 587.347 59.1108 587.347 59.0669L587.156 57.8364C587.127 57.6313 586.995 57.5288 586.819 57.5288H583.963C583.626 57.5288 583.45 57.353 583.45 57.0161V55.1558C583.45 54.9214 583.377 54.7603 583.26 54.7603C583.172 54.7603 583.025 54.8481 582.894 55.0532C581.927 56.5327 580.74 57.7046 579.334 58.5835C579.173 58.686 579.1 58.8325 579.1 58.9937C579.1 59.2866 579.261 59.4331 579.568 59.4331H580.74C581.077 59.4331 581.253 59.6089 581.253 59.9458V67.4751ZM596.414 70.7124C596.561 70.7124 596.634 70.6099 596.634 70.4194C596.634 70.0972 596.487 70.0972 595.726 69.8921C594.788 69.6431 594.437 69.1157 594.437 68.2661V57.5435C594.437 57.1772 594.275 57.0161 594.012 57.0161C593.88 57.0161 593.704 57.0601 593.499 57.1479L590.32 58.5835C590.159 58.6567 590.086 58.7886 590.086 58.9937C590.086 59.1841 590.174 59.3159 590.35 59.3599L591.595 59.7261C592.02 59.8433 592.239 60.0776 592.239 60.5464V68.2661C592.239 69.1157 591.888 69.6431 590.95 69.8921C590.188 70.0972 590.042 70.0972 590.042 70.4194C590.042 70.6099 590.13 70.7124 590.291 70.7124H596.414ZM591.785 51.6694C591.785 52.519 592.474 53.2075 593.323 53.2075C594.173 53.2075 594.861 52.519 594.861 51.6694C594.861 50.8198 594.173 50.1313 593.323 50.1313C592.474 50.1313 591.785 50.8198 591.785 51.6694ZM598.465 64.1206C598.465 67.9146 601.233 71.0054 605.467 71.0054C609.7 71.0054 612.469 67.9146 612.469 64.1206C612.469 60.3267 609.729 57.2358 605.467 57.2358C601.204 57.2358 598.465 60.3267 598.465 64.1206ZM604.925 58.0269C607.562 58.0269 610.184 60.9858 610.184 64.8237C610.184 67.7534 608.499 70.2144 606.009 70.2144C603.372 70.2144 600.75 67.27 600.75 63.4321C600.75 60.5024 602.435 58.0269 604.925 58.0269ZM623.997 69.8921C623.235 70.0825 623.089 70.1118 623.089 70.4194C623.089 70.6099 623.177 70.7124 623.338 70.7124H630.193C630.34 70.7124 630.413 70.6099 630.413 70.4194C630.413 70.2876 630.193 70.1851 629.769 70.1118C628.128 69.8335 627.571 69.6577 627.571 68.3833C627.571 67.0063 627.688 65.8638 627.688 63.1538C627.688 59.9165 626.355 57.2358 623.499 57.2358C622.796 57.2358 622.005 57.4263 621.229 57.8364L619.266 58.8618C619.134 58.9351 619.031 58.9497 618.943 58.9497C618.768 58.9497 618.694 58.8325 618.694 58.5981V57.5435C618.694 57.1772 618.533 57.0161 618.27 57.0161C618.138 57.0161 617.962 57.0601 617.757 57.1479L614.578 58.5835C614.417 58.6567 614.344 58.7886 614.344 58.9937C614.344 59.1841 614.432 59.3159 614.607 59.3599L615.853 59.7261C616.277 59.8433 616.497 60.0776 616.497 60.5464V68.2661C616.497 69.1157 616.146 69.6431 615.208 69.8921C614.446 70.0972 614.3 70.0972 614.3 70.4194C614.3 70.6099 614.388 70.7124 614.549 70.7124H620.672C620.818 70.7124 620.892 70.6099 620.892 70.4194C620.892 70.0972 620.745 70.0972 619.983 69.8921C619.046 69.6431 618.694 69.1157 618.694 68.2661V60.3999C618.694 60.1802 618.797 60.019 618.987 59.9312L620.335 59.3159C620.848 59.0962 621.36 58.9937 621.902 58.9937C624.612 58.9937 625.491 60.7075 625.491 63.7397C625.491 65.6001 625.418 66.8306 625.33 68.1636C625.257 69.1597 624.935 69.6577 623.997 69.8921ZM633.05 70.522C633.826 70.7124 634.559 71.0054 635.364 71.0054C637.591 71.0054 639.554 69.687 639.554 67.3872C639.554 66.0249 638.953 65.1313 638.089 64.3696C637.664 63.9888 636.946 63.5054 635.115 62.4067C634.178 61.8501 633.138 61.2349 633.138 59.9312C633.138 58.8032 634.031 57.9683 635.364 57.9683C636.932 57.9683 637.488 58.7739 637.811 59.814C638.118 60.854 638.06 61.147 638.47 61.147C638.763 61.147 638.865 61.0005 638.851 60.8101L638.558 57.4995C638.543 57.3237 638.44 57.2358 638.221 57.2358C637.635 57.2358 637.664 57.4849 637.459 57.4849C637.21 57.4849 636.8 57.2358 635.643 57.2358C633.372 57.2358 631.614 58.7446 631.614 60.8687C631.614 62.2163 632.273 63.0806 633.138 63.7983C633.577 64.1646 634.31 64.6772 635.35 65.3364C637.107 66.4644 637.518 66.9478 637.518 68.1636C637.518 69.3501 636.888 70.2729 635.481 70.2729C633.812 70.2729 632.918 69.3794 632.435 67.9438C632.259 67.4458 632.347 67.1968 631.951 67.1968C631.658 67.1968 631.556 67.3579 631.57 67.5337L631.849 70.7417C631.863 70.9175 631.966 71.0054 632.171 71.0054C632.479 71.0054 632.61 70.5073 632.889 70.5073C632.947 70.5073 632.991 70.5073 633.05 70.522Z" fill="#383976"/>
<path d="M468.035 68.0631C469.906 65.0147 472.339 62.8361 475.035 61.7987L476.551 61.2162L474.555 60.3463C472.161 59.3009 469.992 57.3458 468.267 54.6804L467.485 52.6694L466.934 54.3612C465.063 57.4096 462.631 59.5882 459.934 60.6256L458.418 61.2082L460.414 62.078C462.809 63.1234 464.977 65.0785 466.703 67.7439L467.485 69.7549L468.035 68.0631Z" fill="#FF77A6"/>
<path d="M130.74 262.009C130.96 262.009 131.136 262.039 131.268 262.083C133.04 262.698 134.432 263.005 135.442 263.005C139.31 263.005 142.063 260.72 142.063 257.117C142.063 253.865 139.734 252.239 136.717 250.144C132.996 247.566 131.985 246.218 131.985 244.563C131.985 242.996 133.055 241.545 135.501 241.545C138.636 241.545 140.35 244.138 140.599 245.881C140.628 246.042 140.716 246.13 140.892 246.13C141.214 246.13 141.331 245.984 141.331 245.779L140.745 241.604C140.716 241.414 140.599 241.296 140.394 241.296C140.276 241.296 140.071 241.34 139.91 241.34C139.69 241.34 139.471 241.311 139.266 241.238C137.713 240.71 136.424 240.447 135.413 240.447C132.22 240.447 129.744 242.644 129.744 245.588C129.744 248.108 131.077 249.602 133.802 251.594C136.175 253.337 137.742 254.626 138.489 255.461C139.251 256.311 139.632 257.249 139.632 258.303C139.632 260.339 138.533 261.907 135.501 261.907C133.963 261.907 132.659 261.394 131.575 260.354C130.491 259.314 129.876 258.245 129.715 257.117C129.686 256.956 129.598 256.868 129.422 256.868C129.085 256.868 128.982 257.014 128.982 257.219L129.642 261.863C129.671 262.053 129.744 262.141 129.891 262.141C130.081 262.141 130.506 262.009 130.74 262.009ZM144.202 256.121C144.202 259.915 146.971 263.005 151.204 263.005C155.438 263.005 158.206 259.915 158.206 256.121C158.206 252.327 155.467 249.236 151.204 249.236C146.941 249.236 144.202 252.327 144.202 256.121ZM150.662 250.027C153.299 250.027 155.921 252.986 155.921 256.824C155.921 259.753 154.236 262.214 151.746 262.214C149.109 262.214 146.487 259.27 146.487 255.432C146.487 252.502 148.172 250.027 150.662 250.027ZM164.432 249.543C164.432 249.177 164.285 249.001 164.021 249.001C163.875 249.001 163.699 249.06 163.494 249.148L160.315 250.583C160.154 250.657 160.081 250.789 160.081 250.994C160.081 251.184 160.169 251.316 160.345 251.36L161.59 251.726C162.015 251.843 162.234 252.078 162.234 252.546V260.413C162.234 262.141 163.494 263.005 166.028 263.005C167.01 263.005 167.903 262.815 168.694 262.405L170.657 261.379C170.789 261.306 170.892 261.277 170.979 261.277C171.155 261.277 171.229 261.423 171.229 261.643V262.493C171.229 262.859 171.39 263.035 171.653 263.035C171.8 263.035 171.961 262.976 172.166 262.888L175.345 261.453C175.506 261.379 175.579 261.248 175.579 261.042C175.579 260.852 175.491 260.72 175.315 260.676L174.07 260.31C173.646 260.193 173.426 259.958 173.426 259.49V249.543C173.426 249.177 173.265 249.001 173.001 249.001C172.854 249.001 172.693 249.06 172.488 249.148L169.31 250.583C169.148 250.657 169.075 250.789 169.075 250.994C169.075 251.184 169.163 251.316 169.339 251.36L170.584 251.726C171.009 251.843 171.229 252.078 171.229 252.546V259.812C171.229 260.032 171.126 260.193 170.936 260.281L169.588 260.867C169.075 261.086 168.343 261.248 167.361 261.248C165.413 261.248 164.432 260.662 164.432 259.49V249.543ZM182.962 262.712C183.064 262.976 183.24 263.108 183.489 263.108H184.192C184.427 263.108 184.603 262.976 184.705 262.698C185.774 259.827 186.595 257.834 187.049 256.663C187.503 255.491 188.016 253.997 188.719 252.239C188.88 251.843 189.056 251.462 189.261 251.096C189.847 250.042 191.18 250.408 191.18 249.822C191.18 249.631 191.092 249.529 190.931 249.529H187.298C187.151 249.529 187.078 249.631 187.078 249.822C187.078 250.408 188.338 250.071 188.338 250.906C188.338 251.067 188.294 251.272 188.206 251.521L184.881 260.178C184.808 260.369 184.705 260.471 184.603 260.471C184.515 260.471 184.427 260.398 184.354 260.222L180.999 251.506C180.926 251.316 180.896 251.155 180.896 251.023C180.896 250.085 182.171 250.422 182.171 249.822C182.171 249.631 182.083 249.529 181.922 249.529H176.722C176.575 249.529 176.502 249.631 176.502 249.822C176.502 250.129 176.648 250.173 177.41 250.349C178.333 250.569 178.597 251.316 178.89 252.092L182.962 262.712ZM199.002 249.236C195.105 249.236 192.425 252.576 192.425 256.414C192.425 260.002 194.944 263.005 198.577 263.005C200.936 263.005 202.664 261.833 204.305 259.915C204.363 259.856 204.393 259.797 204.393 259.724C204.393 259.548 204.158 259.314 203.982 259.314C203.909 259.314 203.851 259.343 203.792 259.402C202.444 260.72 201.258 261.101 199.368 261.101C196.658 261.101 194.622 258.684 194.622 255.886C194.622 255.505 194.622 254.7 194.812 254.451C194.9 254.333 195.047 254.275 195.223 254.275H204.202C204.393 254.275 204.495 254.158 204.495 253.909C204.495 253.557 204.202 253.586 204.144 253.308C203.543 250.73 201.844 249.236 199.002 249.236ZM198.636 250.115C200.481 250.115 201.595 251.418 201.595 253.176C201.595 253.425 201.463 253.542 201.214 253.542H195.545C195.281 253.542 195.149 253.455 195.149 253.235C195.149 252.561 196.204 250.115 198.636 250.115ZM216.023 261.892C215.262 262.083 215.115 262.112 215.115 262.419C215.115 262.61 215.203 262.712 215.364 262.712H222.22C222.366 262.712 222.439 262.61 222.439 262.419C222.439 262.288 222.22 262.185 221.795 262.112C220.154 261.833 219.598 261.658 219.598 260.383C219.598 259.006 219.715 257.864 219.715 255.154C219.715 251.917 218.382 249.236 215.525 249.236C214.822 249.236 214.031 249.426 213.255 249.836L211.292 250.862C211.16 250.935 211.058 250.95 210.97 250.95C210.794 250.95 210.721 250.833 210.721 250.598V249.543C210.721 249.177 210.56 249.016 210.296 249.016C210.164 249.016 209.988 249.06 209.783 249.148L206.604 250.583C206.443 250.657 206.37 250.789 206.37 250.994C206.37 251.184 206.458 251.316 206.634 251.36L207.879 251.726C208.304 251.843 208.523 252.078 208.523 252.546V260.266C208.523 261.116 208.172 261.643 207.234 261.892C206.473 262.097 206.326 262.097 206.326 262.419C206.326 262.61 206.414 262.712 206.575 262.712H212.698C212.845 262.712 212.918 262.61 212.918 262.419C212.918 262.097 212.771 262.097 212.01 261.892C211.072 261.643 210.721 261.116 210.721 260.266V252.4C210.721 252.18 210.823 252.019 211.014 251.931L212.361 251.316C212.874 251.096 213.387 250.994 213.929 250.994C216.639 250.994 217.518 252.708 217.518 255.74C217.518 257.6 217.444 258.831 217.356 260.164C217.283 261.16 216.961 261.658 216.023 261.892ZM229.749 262.712C229.896 262.712 229.969 262.61 229.969 262.419C229.969 262.097 229.822 262.097 229.061 261.892C228.123 261.643 227.771 261.116 227.771 260.266V249.543C227.771 249.177 227.61 249.016 227.347 249.016C227.215 249.016 227.039 249.06 226.834 249.148L223.655 250.583C223.494 250.657 223.421 250.789 223.421 250.994C223.421 251.184 223.509 251.316 223.685 251.36L224.93 251.726C225.354 251.843 225.574 252.078 225.574 252.546V260.266C225.574 261.116 225.223 261.643 224.285 261.892C223.523 262.097 223.377 262.097 223.377 262.419C223.377 262.61 223.465 262.712 223.626 262.712H229.749ZM225.12 243.669C225.12 244.519 225.809 245.208 226.658 245.208C227.508 245.208 228.196 244.519 228.196 243.669C228.196 242.82 227.508 242.131 226.658 242.131C225.809 242.131 225.12 242.82 225.12 243.669ZM235.828 253.586C235.828 252.869 236.136 252.327 236.561 251.843C237.015 251.331 237.601 250.964 238.187 250.964C238.582 250.964 239.021 251.096 239.505 251.345C239.988 251.594 240.296 251.711 240.428 251.711C240.589 251.711 240.809 251.462 241.058 250.979C241.321 250.496 241.453 250.159 241.453 249.998C241.453 249.822 240.999 249.573 240.281 249.265C239.71 249.016 239.212 248.899 238.816 248.899C238.304 248.899 237.806 249.28 237.337 249.792C236.883 250.305 236.443 250.935 236.209 251.287C236.136 251.389 236.048 251.433 235.989 251.433C235.887 251.433 235.828 251.331 235.828 251.169V249.543C235.828 249.177 235.667 249.001 235.403 249.001C235.257 249.001 235.096 249.06 234.891 249.148L231.712 250.583C231.551 250.657 231.478 250.789 231.478 250.994C231.478 251.184 231.565 251.316 231.741 251.36L232.986 251.726C233.411 251.843 233.631 252.078 233.631 252.546V260.266C233.631 261.13 233.279 261.658 232.342 261.892C231.58 262.083 231.434 262.112 231.434 262.419C231.434 262.61 231.521 262.712 231.683 262.712H238.538C238.685 262.712 238.758 262.61 238.758 262.419C238.758 262.288 238.538 262.185 238.113 262.112C237.688 262.039 237.352 261.965 237.117 261.892C236.18 261.614 235.828 261.13 235.828 260.266V253.586ZM244.119 262.522C244.896 262.712 245.628 263.005 246.434 263.005C248.66 263.005 250.623 261.687 250.623 259.387C250.623 258.025 250.022 257.131 249.158 256.37C248.733 255.989 248.016 255.505 246.185 254.407C245.247 253.85 244.207 253.235 244.207 251.931C244.207 250.803 245.101 249.968 246.434 249.968C248.001 249.968 248.558 250.774 248.88 251.814C249.188 252.854 249.129 253.147 249.539 253.147C249.832 253.147 249.935 253 249.92 252.81L249.627 249.5C249.612 249.324 249.51 249.236 249.29 249.236C248.704 249.236 248.733 249.485 248.528 249.485C248.279 249.485 247.869 249.236 246.712 249.236C244.441 249.236 242.684 250.745 242.684 252.869C242.684 254.216 243.343 255.081 244.207 255.798C244.646 256.165 245.379 256.677 246.419 257.336C248.177 258.464 248.587 258.948 248.587 260.164C248.587 261.35 247.957 262.273 246.551 262.273C244.881 262.273 243.987 261.379 243.504 259.944C243.328 259.446 243.416 259.197 243.021 259.197C242.728 259.197 242.625 259.358 242.64 259.534L242.918 262.742C242.933 262.917 243.035 263.005 243.24 263.005C243.548 263.005 243.68 262.507 243.958 262.507C244.017 262.507 244.061 262.507 244.119 262.522Z" fill="#383976"/>
<path d="M97.5953 260.063C99.4667 257.015 101.899 254.836 104.596 253.799L106.111 253.216L104.116 252.346C101.721 251.301 99.553 249.346 97.8272 246.68L97.0451 244.669L96.495 246.361C94.6235 249.41 92.1911 251.588 89.4945 252.626L87.9789 253.208L89.9745 254.078C92.3691 255.123 94.5372 257.079 96.2631 259.744L97.0451 261.755L97.5953 260.063Z" fill="#FF77A6"/>
<path d="M516.709 247.844C516.46 247.844 516.343 247.947 516.343 248.137V248.577C516.343 250.042 515.61 250.774 514.146 250.774H509.751C509.268 250.774 509.019 250.525 509.019 250.042V242.571C509.019 242.087 509.268 241.838 509.751 241.838H514.248C516.021 241.838 517.134 242.351 517.5 243.435C517.632 243.801 517.764 244.548 517.939 245.647C517.954 245.837 518.071 245.925 518.32 245.911C518.569 245.896 518.672 245.779 518.657 245.588L518.276 241.165C518.247 240.886 518.071 240.74 517.764 240.74H503.452C503.262 240.74 503.159 240.857 503.159 241.106C503.159 241.355 503.262 241.472 503.452 241.472H503.892C505.356 241.472 506.089 242.205 506.089 243.669V259.783C506.089 261.248 505.356 261.98 503.892 261.98H502.72C502.529 261.98 502.427 262.097 502.427 262.346C502.427 262.595 502.529 262.712 502.72 262.712H518.965C519.272 262.712 519.448 262.566 519.478 262.288L519.858 257.864C519.873 257.673 519.771 257.556 519.521 257.542C519.272 257.527 519.155 257.615 519.141 257.805C518.965 258.904 518.833 259.651 518.701 260.046C518.35 261.101 517.222 261.614 515.449 261.614H511.216C509.751 261.614 509.019 260.881 509.019 259.417V252.605C509.019 252.122 509.268 251.873 509.751 251.873H514.146C515.61 251.873 516.343 252.605 516.343 254.07V254.509C516.343 254.7 516.46 254.802 516.709 254.802C516.958 254.802 517.075 254.7 517.075 254.509V248.137C517.075 247.947 516.958 247.844 516.709 247.844ZM531.709 262.815C531.709 263.02 531.782 263.123 531.929 263.123C531.987 263.123 532.046 263.093 532.134 263.064L535.986 261.379C536.104 261.335 536.162 261.248 536.162 261.145C536.162 260.881 535.957 260.676 535.811 260.676C535.781 260.676 535.737 260.691 535.693 260.706L535.225 260.911C535.005 261.013 534.814 261.057 534.653 261.057C534.155 261.057 533.906 260.647 533.906 260.002V239.656C533.906 239.29 533.745 239.114 533.481 239.114C533.35 239.114 533.174 239.172 532.969 239.26L529.79 240.696C529.629 240.769 529.556 240.901 529.556 241.106C529.556 241.296 529.644 241.428 529.819 241.472L531.064 241.838C531.489 241.97 531.709 242.19 531.709 242.659V249.133C531.709 249.368 531.606 249.529 531.401 249.529C531.372 249.529 531.328 249.529 531.284 249.514C530.508 249.324 529.731 249.236 529.028 249.236C524.619 249.236 521.836 252.312 521.836 256.663C521.836 259.636 523.638 263.005 526.904 263.005C527.622 263.005 528.384 262.815 529.175 262.405L531.138 261.379C531.27 261.321 531.372 261.277 531.46 261.277C531.621 261.277 531.709 261.423 531.709 261.643V262.815ZM530.068 260.867C529.556 261.086 529.043 261.189 528.501 261.189C525.439 261.189 524.033 258.596 524.033 255.681C524.033 253.074 525.513 250.378 528.179 250.378C529.966 250.378 531.709 251.624 531.709 253.484V259.812C531.709 260.032 531.606 260.193 531.416 260.281L530.068 260.867ZM543.955 262.712C544.102 262.712 544.175 262.61 544.175 262.419C544.175 262.097 544.028 262.097 543.267 261.892C542.329 261.643 541.978 261.116 541.978 260.266V249.543C541.978 249.177 541.816 249.016 541.553 249.016C541.421 249.016 541.245 249.06 541.04 249.148L537.861 250.583C537.7 250.657 537.627 250.789 537.627 250.994C537.627 251.184 537.715 251.316 537.891 251.36L539.136 251.726C539.561 251.843 539.78 252.078 539.78 252.546V260.266C539.78 261.116 539.429 261.643 538.491 261.892C537.729 262.097 537.583 262.097 537.583 262.419C537.583 262.61 537.671 262.712 537.832 262.712H543.955ZM539.326 243.669C539.326 244.519 540.015 245.208 540.864 245.208C541.714 245.208 542.402 244.519 542.402 243.669C542.402 242.82 541.714 242.131 540.864 242.131C540.015 242.131 539.326 242.82 539.326 243.669ZM547.837 261.233C547.837 261.716 548.071 262.024 548.54 262.17C550.151 262.683 551.528 263.005 552.715 263.005C557.256 263.005 559.907 259.885 559.907 255.549C559.907 252.59 558.091 249.236 554.839 249.236C554.121 249.236 553.359 249.426 552.568 249.836L550.605 250.862C550.474 250.935 550.371 250.964 550.283 250.964C550.107 250.964 550.034 250.833 550.034 250.598V239.656C550.034 239.084 549.668 238.997 549.097 239.26L545.918 240.696C545.757 240.769 545.684 240.901 545.684 241.106C545.684 241.296 545.771 241.428 545.947 241.472L547.192 241.838C547.617 241.956 547.837 242.19 547.837 242.659V261.233ZM551.675 251.375C552.188 251.155 552.7 251.052 553.242 251.052C556.289 251.052 557.71 253.63 557.71 256.531C557.71 259.124 556.216 261.863 553.564 261.863C551.851 261.863 550.034 260.691 550.034 258.757V252.429C550.034 252.209 550.137 252.048 550.327 251.96L551.675 251.375ZM568.125 262.712C568.271 262.712 568.345 262.61 568.345 262.419C568.345 262.112 568.198 262.083 567.437 261.892C566.499 261.658 566.147 261.13 566.147 260.266V239.656C566.147 239.29 565.986 239.114 565.723 239.114C565.591 239.114 565.415 239.172 565.21 239.26L562.031 240.696C561.87 240.769 561.797 240.901 561.797 241.106C561.797 241.296 561.885 241.428 562.061 241.472L563.306 241.838C563.73 241.97 563.95 242.19 563.95 242.659V260.266C563.95 261.13 563.599 261.658 562.661 261.892C561.899 262.083 561.753 262.112 561.753 262.419C561.753 262.61 561.841 262.712 562.002 262.712H568.125ZM576.753 249.236C572.856 249.236 570.176 252.576 570.176 256.414C570.176 260.002 572.695 263.005 576.328 263.005C578.687 263.005 580.415 261.833 582.056 259.915C582.114 259.856 582.144 259.797 582.144 259.724C582.144 259.548 581.909 259.314 581.733 259.314C581.66 259.314 581.602 259.343 581.543 259.402C580.195 260.72 579.009 261.101 577.119 261.101C574.409 261.101 572.373 258.684 572.373 255.886C572.373 255.505 572.373 254.7 572.563 254.451C572.651 254.333 572.798 254.275 572.974 254.275H581.953C582.144 254.275 582.246 254.158 582.246 253.909C582.246 253.557 581.953 253.586 581.895 253.308C581.294 250.73 579.595 249.236 576.753 249.236ZM576.387 250.115C578.232 250.115 579.346 251.418 579.346 253.176C579.346 253.425 579.214 253.542 578.965 253.542H573.296C573.032 253.542 572.9 253.455 572.9 253.235C572.9 252.561 573.955 250.115 576.387 250.115ZM585.776 262.522C586.553 262.712 587.285 263.005 588.091 263.005C590.317 263.005 592.28 261.687 592.28 259.387C592.28 258.025 591.68 257.131 590.815 256.37C590.391 255.989 589.673 255.505 587.842 254.407C586.904 253.85 585.864 253.235 585.864 251.931C585.864 250.803 586.758 249.968 588.091 249.968C589.658 249.968 590.215 250.774 590.537 251.814C590.845 252.854 590.786 253.147 591.196 253.147C591.489 253.147 591.592 253 591.577 252.81L591.284 249.5C591.27 249.324 591.167 249.236 590.947 249.236C590.361 249.236 590.391 249.485 590.186 249.485C589.937 249.485 589.526 249.236 588.369 249.236C586.099 249.236 584.341 250.745 584.341 252.869C584.341 254.216 585 255.081 585.864 255.798C586.304 256.165 587.036 256.677 588.076 257.336C589.834 258.464 590.244 258.948 590.244 260.164C590.244 261.35 589.614 262.273 588.208 262.273C586.538 262.273 585.645 261.379 585.161 259.944C584.985 259.446 585.073 259.197 584.678 259.197C584.385 259.197 584.282 259.358 584.297 259.534L584.575 262.742C584.59 262.917 584.692 263.005 584.897 263.005C585.205 263.005 585.337 262.507 585.615 262.507C585.674 262.507 585.718 262.507 585.776 262.522Z" fill="#383976"/>
<path d="M468.035 260.063C469.906 257.015 472.339 254.836 475.035 253.799L476.551 253.216L474.555 252.346C472.161 251.301 469.992 249.346 468.267 246.68L467.485 244.669L466.934 246.361C465.063 249.41 462.631 251.588 459.934 252.626L458.418 253.208L460.414 254.078C462.809 255.123 464.977 257.079 466.703 259.744L467.485 261.755L468.035 260.063Z" fill="#FF77A6"/>
<path d="M145.779 435.669C145.779 434.205 146.512 433.472 147.977 433.472H149.148C149.339 433.472 149.441 433.355 149.441 433.106C149.441 432.857 149.339 432.74 149.148 432.74H139.48C139.29 432.74 139.188 432.857 139.188 433.106C139.188 433.355 139.29 433.472 139.48 433.472H140.652C142.117 433.472 142.85 434.205 142.85 435.669V451.783C142.85 453.248 142.117 453.98 140.652 453.98H139.48C139.29 453.98 139.188 454.097 139.188 454.346C139.188 454.595 139.29 454.712 139.48 454.712H149.148C149.339 454.712 149.441 454.595 149.441 454.346C149.441 454.097 149.339 453.98 149.148 453.98H147.977C146.512 453.98 145.779 453.248 145.779 451.783V435.669ZM153.836 451.475C153.836 453.702 154.905 455.005 157.117 455.005C158.187 455.005 159.402 454.317 160.34 452.779C160.472 452.559 160.545 452.383 160.545 452.281C160.545 452.222 160.501 452.178 160.442 452.178C160.296 452.178 158.948 453.218 157.923 453.218C156.912 453.218 156.033 452.662 156.033 450.655V443.946C156.033 443.609 156.209 443.433 156.546 443.433H159.651C159.842 443.433 159.944 443.36 159.944 443.184C159.944 443.155 159.93 443.111 159.93 443.067L159.739 441.836C159.71 441.631 159.578 441.529 159.402 441.529H156.546C156.209 441.529 156.033 441.353 156.033 441.016V439.156C156.033 438.921 155.96 438.76 155.843 438.76C155.755 438.76 155.608 438.848 155.477 439.053C154.51 440.533 153.323 441.705 151.917 442.583C151.756 442.686 151.683 442.833 151.683 442.994C151.683 443.287 151.844 443.433 152.151 443.433H153.323C153.66 443.433 153.836 443.609 153.836 443.946V451.475ZM169.568 441.236C165.672 441.236 162.991 444.576 162.991 448.414C162.991 452.002 165.511 455.005 169.144 455.005C171.502 455.005 173.23 453.833 174.871 451.915C174.93 451.856 174.959 451.797 174.959 451.724C174.959 451.548 174.725 451.314 174.549 451.314C174.476 451.314 174.417 451.343 174.358 451.402C173.011 452.72 171.824 453.101 169.935 453.101C167.225 453.101 165.188 450.684 165.188 447.886C165.188 447.505 165.188 446.7 165.379 446.451C165.467 446.333 165.613 446.275 165.789 446.275H174.769C174.959 446.275 175.062 446.158 175.062 445.909C175.062 445.557 174.769 445.586 174.71 445.308C174.109 442.73 172.41 441.236 169.568 441.236ZM169.202 442.115C171.048 442.115 172.161 443.418 172.161 445.176C172.161 445.425 172.029 445.542 171.78 445.542H166.111C165.848 445.542 165.716 445.455 165.716 445.235C165.716 444.561 166.771 442.115 169.202 442.115ZM187.483 452.266C187.483 453.13 187.132 453.658 186.194 453.892C185.433 454.083 185.286 454.112 185.286 454.419C185.286 454.61 185.374 454.712 185.535 454.712H191.658C191.805 454.712 191.878 454.61 191.878 454.419C191.878 454.112 191.731 454.083 190.97 453.892C190.032 453.658 189.681 453.13 189.681 452.266V446.978C189.681 446.099 189.344 444.546 189.344 444.312C189.344 444.136 189.461 444.019 189.651 443.931L190.999 443.316C191.512 443.096 192.024 442.994 192.566 442.994C195.306 442.994 196.155 445.323 196.155 448.604C196.155 449.791 196.082 450.918 195.994 452.164C195.921 453.16 195.599 453.658 194.661 453.892C193.899 454.083 193.753 454.112 193.753 454.419C193.753 454.61 193.841 454.712 194.002 454.712H200.857C201.004 454.712 201.077 454.61 201.077 454.419C201.077 454.288 200.857 454.185 200.433 454.112C198.836 453.833 198.191 453.438 198.191 452.237C198.191 451.812 198.353 448.956 198.353 447.681C198.353 444.488 197.21 441.236 194.163 441.236C193.445 441.236 192.684 441.426 191.893 441.836L189.93 442.862C189.725 442.964 189.461 443.038 189.241 443.038C189.007 443.038 188.86 442.847 188.758 442.642C188.289 441.69 187.352 441.236 186.092 441.236C185.374 441.236 184.612 441.426 183.821 441.836L181.858 442.862C181.727 442.935 181.624 442.964 181.536 442.964C181.36 442.964 181.287 442.833 181.287 442.598V441.543C181.287 441.177 181.126 441.001 180.862 441.001C180.73 441.001 180.555 441.06 180.35 441.148L177.171 442.583C177.01 442.657 176.937 442.789 176.937 442.994C176.937 443.184 177.024 443.316 177.2 443.36L178.445 443.726C178.87 443.858 179.09 444.078 179.09 444.546V452.266C179.09 453.13 178.738 453.658 177.801 453.892C177.039 454.083 176.893 454.112 176.893 454.419C176.893 454.61 176.98 454.712 177.142 454.712H183.265C183.411 454.712 183.484 454.61 183.484 454.419C183.484 454.112 183.338 454.083 182.576 453.892C181.639 453.658 181.287 453.13 181.287 452.266V444.4C181.287 444.18 181.39 444.019 181.58 443.931L182.928 443.316C183.44 443.096 183.953 442.994 184.495 442.994C185.755 442.994 186.561 443.506 186.927 444.532C187.293 445.557 187.483 446.919 187.483 448.604V452.266ZM203.729 454.522C204.505 454.712 205.237 455.005 206.043 455.005C208.27 455.005 210.232 453.687 210.232 451.387C210.232 450.025 209.632 449.131 208.768 448.37C208.343 447.989 207.625 447.505 205.794 446.407C204.856 445.85 203.816 445.235 203.816 443.931C203.816 442.803 204.71 441.968 206.043 441.968C207.61 441.968 208.167 442.774 208.489 443.814C208.797 444.854 208.738 445.147 209.148 445.147C209.441 445.147 209.544 445 209.529 444.81L209.236 441.5C209.222 441.324 209.119 441.236 208.899 441.236C208.313 441.236 208.343 441.485 208.138 441.485C207.889 441.485 207.479 441.236 206.321 441.236C204.051 441.236 202.293 442.745 202.293 444.869C202.293 446.216 202.952 447.081 203.816 447.798C204.256 448.165 204.988 448.677 206.028 449.336C207.786 450.464 208.196 450.948 208.196 452.164C208.196 453.35 207.566 454.273 206.16 454.273C204.49 454.273 203.597 453.379 203.113 451.944C202.938 451.446 203.025 451.197 202.63 451.197C202.337 451.197 202.234 451.358 202.249 451.534L202.527 454.742C202.542 454.917 202.645 455.005 202.85 455.005C203.157 455.005 203.289 454.507 203.567 454.507C203.626 454.507 203.67 454.507 203.729 454.522Z" fill="#383976"/>
<path d="M97.5953 452.063C99.4667 449.015 101.899 446.836 104.596 445.799L106.111 445.216L104.116 444.346C101.721 443.301 99.553 441.346 97.8272 438.68L97.0451 436.669L96.495 438.361C94.6235 441.41 92.1911 443.588 89.4945 444.626L87.9789 445.208L89.9745 446.078C92.3691 447.123 94.5372 449.079 96.2631 451.744L97.0451 453.755L97.5953 452.063Z" fill="#FF77A6"/>
<path d="M142.052 165.965C141.861 165.965 141.773 166.097 141.773 166.346C141.773 166.595 141.876 166.712 142.066 166.712H149.625C149.815 166.712 149.918 166.595 149.918 166.346C149.918 166.097 149.815 165.965 149.625 165.965H149.171C147.691 165.965 147.062 165.321 146.974 163.783L146.139 148.314C146.139 148.285 146.124 147.772 146.124 147.567C146.124 146.351 146.827 145.472 148.321 145.472H148.775C148.966 145.472 149.054 145.34 149.054 145.091C149.054 144.857 148.966 144.74 148.775 144.74H144.176C144.015 144.74 143.883 144.813 143.81 144.959L136.031 162.406C135.943 162.596 135.841 162.684 135.709 162.684C135.548 162.684 135.445 162.596 135.372 162.42L127.594 144.959C127.521 144.813 127.389 144.74 127.228 144.74H122.628C122.438 144.74 122.335 144.857 122.335 145.091C122.335 145.34 122.438 145.472 122.628 145.472H123.082C124.591 145.472 125.265 146.336 125.265 147.508C125.265 147.713 125.235 148.138 125.235 148.182L124.43 163.783C124.356 165.335 123.683 165.965 122.218 165.965H121.778C121.588 165.965 121.485 166.097 121.485 166.346C121.485 166.595 121.588 166.712 121.778 166.712H127.491C127.682 166.712 127.784 166.595 127.784 166.346C127.784 166.097 127.696 165.965 127.506 165.965H126.949C125.953 165.965 125.484 165.541 125.484 164.603C125.484 164.471 125.514 164.09 125.514 164.017L126.246 149.793C126.261 149.603 126.275 149.5 126.334 149.5C126.378 149.5 126.437 149.574 126.495 149.706L133.922 166.375C134.024 166.595 134.186 166.712 134.391 166.712H134.977C135.182 166.712 135.357 166.61 135.445 166.405L143.121 149.178C143.165 149.076 143.209 149.017 143.224 149.017C143.253 149.017 143.282 149.09 143.282 149.208L144.015 163.739C144.015 163.812 144.044 164.413 144.044 164.618C144.044 165.526 143.59 165.965 142.594 165.965H142.052ZM154.767 167.005C155.455 167.005 156.012 166.888 156.686 166.39L158.487 165.057C158.517 165.028 158.546 165.013 158.575 165.013C158.604 165.013 158.634 165.057 158.648 165.145C158.722 165.614 158.912 167.005 160.143 167.005C160.685 167.005 161.329 166.668 161.681 166.419L163.087 165.394C163.307 165.233 163.38 165.145 163.38 164.808C163.38 164.72 163.365 164.53 163.277 164.53C163.16 164.53 162.472 165.028 161.915 165.028C161.212 165.028 160.772 164.647 160.772 163.871V157.44C160.772 154.32 158.854 153.236 157.169 153.236C156.656 153.236 156.158 153.309 155.675 153.426C154.283 153.778 152.13 155.389 152.13 157.147C152.13 157.367 152.145 157.645 152.364 157.645C152.54 157.645 153.258 157.425 154.444 156.854C154.503 156.825 154.532 156.751 154.532 156.649C154.532 156.605 154.459 156.385 154.459 156.048C154.459 154.774 155.616 154.247 156.305 154.247C157.711 154.247 158.575 155.345 158.575 156.942V158.714C158.575 159.315 158.385 159.71 158.004 159.872L155.162 161.117C152.862 162.127 151.808 162.787 151.808 164.164C151.808 165.921 153.302 167.005 154.767 167.005ZM154.107 163.797C154.107 162.918 154.591 162.171 155.396 161.82L158.106 160.633C158.18 160.604 158.238 160.589 158.312 160.589C158.458 160.589 158.575 160.692 158.575 160.912V163.695C158.575 163.973 158.443 164.222 158.194 164.398L157.433 164.955C156.905 165.335 156.437 165.511 156.041 165.511C154.825 165.511 154.107 164.75 154.107 163.797ZM168.36 157.586C168.36 156.869 168.668 156.327 169.093 155.843C169.547 155.331 170.133 154.964 170.719 154.964C171.114 154.964 171.554 155.096 172.037 155.345C172.521 155.594 172.828 155.711 172.96 155.711C173.121 155.711 173.341 155.462 173.59 154.979C173.854 154.496 173.985 154.159 173.985 153.998C173.985 153.822 173.531 153.573 172.813 153.265C172.242 153.016 171.744 152.899 171.349 152.899C170.836 152.899 170.338 153.28 169.869 153.792C169.415 154.305 168.976 154.935 168.741 155.287C168.668 155.389 168.58 155.433 168.521 155.433C168.419 155.433 168.36 155.331 168.36 155.169V153.543C168.36 153.177 168.199 153.001 167.936 153.001C167.789 153.001 167.628 153.06 167.423 153.148L164.244 154.583C164.083 154.657 164.01 154.789 164.01 154.994C164.01 155.184 164.098 155.316 164.273 155.36L165.519 155.726C165.943 155.843 166.163 156.078 166.163 156.546V164.266C166.163 165.13 165.812 165.658 164.874 165.892C164.112 166.083 163.966 166.112 163.966 166.419C163.966 166.61 164.054 166.712 164.215 166.712H171.07C171.217 166.712 171.29 166.61 171.29 166.419C171.29 166.288 171.07 166.185 170.646 166.112C170.221 166.039 169.884 165.965 169.649 165.892C168.712 165.614 168.36 165.13 168.36 164.266V157.586ZM179.347 159.857C179.347 159.725 179.391 159.681 179.449 159.681C179.479 159.681 179.522 159.696 179.552 159.725L184.049 164.53C184.327 164.837 184.503 165.174 184.503 165.423C184.503 165.628 184.298 165.804 183.917 165.892C183.155 166.083 183.009 166.112 183.009 166.419C183.009 166.61 183.097 166.712 183.258 166.712H190.113C190.26 166.712 190.333 166.61 190.333 166.419C190.333 166.112 190.187 166.083 189.425 165.892C188.399 165.628 187.799 165.321 187.564 165.072L181.734 158.817C181.646 158.714 181.588 158.612 181.588 158.524C181.588 158.436 181.632 158.319 181.764 158.26C182.54 157.894 184.781 156.107 185.367 155.462C186.231 154.525 187.301 154.378 188.224 154.261C188.678 154.203 188.912 154.071 188.912 153.866C188.912 153.646 188.795 153.529 188.546 153.529H182.584C182.335 153.529 182.218 153.646 182.218 153.866C182.218 154.291 184.151 154.466 184.151 154.833C184.151 156.078 180.343 158.158 179.977 158.158C179.64 158.158 179.347 157.909 179.347 157.44V143.656C179.347 143.29 179.186 143.128 178.922 143.128C178.79 143.128 178.614 143.172 178.409 143.26L175.23 144.696C175.069 144.769 174.996 144.901 174.996 145.106C174.996 145.296 175.084 145.428 175.26 145.472L176.505 145.838C176.93 145.956 177.149 146.19 177.149 146.659V164.266C177.149 165.116 176.798 165.643 175.86 165.892C175.099 166.097 174.952 166.097 174.952 166.419C174.952 166.61 175.04 166.712 175.201 166.712H181.324C181.471 166.712 181.544 166.61 181.544 166.419C181.544 166.097 181.397 166.097 180.636 165.892C179.698 165.643 179.347 165.116 179.347 164.266V159.857ZM198.009 153.236C194.112 153.236 191.432 156.576 191.432 160.414C191.432 164.002 193.951 167.005 197.584 167.005C199.942 167.005 201.671 165.833 203.312 163.915C203.37 163.856 203.399 163.797 203.399 163.724C203.399 163.548 203.165 163.314 202.989 163.314C202.916 163.314 202.857 163.343 202.799 163.402C201.451 164.72 200.265 165.101 198.375 165.101C195.665 165.101 193.629 162.684 193.629 159.886C193.629 159.505 193.629 158.7 193.819 158.451C193.907 158.333 194.054 158.275 194.229 158.275H203.209C203.399 158.275 203.502 158.158 203.502 157.909C203.502 157.557 203.209 157.586 203.15 157.308C202.55 154.73 200.851 153.236 198.009 153.236ZM197.643 154.115C199.488 154.115 200.602 155.418 200.602 157.176C200.602 157.425 200.47 157.542 200.221 157.542H194.552C194.288 157.542 194.156 157.455 194.156 157.235C194.156 156.561 195.211 154.115 197.643 154.115ZM207.53 163.475C207.53 165.702 208.6 167.005 210.812 167.005C211.881 167.005 213.097 166.317 214.034 164.779C214.166 164.559 214.239 164.383 214.239 164.281C214.239 164.222 214.195 164.178 214.137 164.178C213.99 164.178 212.643 165.218 211.617 165.218C210.606 165.218 209.728 164.662 209.728 162.655V155.946C209.728 155.609 209.903 155.433 210.24 155.433H213.346C213.536 155.433 213.639 155.36 213.639 155.184C213.639 155.155 213.624 155.111 213.624 155.067L213.434 153.836C213.404 153.631 213.272 153.529 213.097 153.529H210.24C209.903 153.529 209.728 153.353 209.728 153.016V151.156C209.728 150.921 209.654 150.76 209.537 150.76C209.449 150.76 209.303 150.848 209.171 151.053C208.204 152.533 207.018 153.705 205.611 154.583C205.45 154.686 205.377 154.833 205.377 154.994C205.377 155.287 205.538 155.433 205.846 155.433H207.018C207.354 155.433 207.53 155.609 207.53 155.946V163.475ZM227.599 144.74C227.408 144.74 227.306 144.857 227.306 145.106C227.306 145.355 227.408 145.472 227.599 145.472H228.038C229.503 145.472 230.235 146.205 230.235 147.669V163.783C230.235 165.248 229.503 165.98 228.038 165.98H227.599C227.408 165.98 227.306 166.097 227.306 166.346C227.306 166.595 227.408 166.712 227.599 166.712H235.802C235.992 166.712 236.095 166.595 236.095 166.346C236.095 166.097 235.992 165.98 235.802 165.98H235.362C233.897 165.98 233.165 165.248 233.165 163.783V157.323C233.165 156.869 233.385 156.649 233.81 156.649C234.146 156.649 234.615 156.737 235.611 156.737C240.211 156.737 243.419 154.393 243.419 150.965C243.419 149.193 242.818 147.757 241.603 146.644C239.962 145.15 237.955 144.74 234.82 144.74C234.117 144.74 233.268 144.784 231.627 144.784C230.543 144.784 229.195 144.754 227.599 144.74ZM233.165 146.571C233.165 146.102 233.414 145.838 233.897 145.838H235.392C238.893 145.838 240.489 147.582 240.489 150.907C240.489 154.012 238.277 155.536 235.128 155.536C234.498 155.536 233.165 155.462 233.165 154.642V146.571ZM251.256 166.712C251.402 166.712 251.476 166.61 251.476 166.419C251.476 166.112 251.329 166.083 250.567 165.892C249.63 165.658 249.278 165.13 249.278 164.266V143.656C249.278 143.29 249.117 143.114 248.854 143.114C248.722 143.114 248.546 143.172 248.341 143.26L245.162 144.696C245.001 144.769 244.928 144.901 244.928 145.106C244.928 145.296 245.016 145.428 245.191 145.472L246.437 145.838C246.861 145.97 247.081 146.19 247.081 146.659V164.266C247.081 165.13 246.729 165.658 245.792 165.892C245.03 166.083 244.884 166.112 244.884 166.419C244.884 166.61 244.972 166.712 245.133 166.712H251.256ZM256.192 167.005C256.881 167.005 257.438 166.888 258.111 166.39L259.913 165.057C259.942 165.028 259.972 165.013 260.001 165.013C260.03 165.013 260.06 165.057 260.074 165.145C260.147 165.614 260.338 167.005 261.568 167.005C262.11 167.005 262.755 166.668 263.106 166.419L264.513 165.394C264.732 165.233 264.806 165.145 264.806 164.808C264.806 164.72 264.791 164.53 264.703 164.53C264.586 164.53 263.897 165.028 263.341 165.028C262.638 165.028 262.198 164.647 262.198 163.871V157.44C262.198 154.32 260.279 153.236 258.595 153.236C258.082 153.236 257.584 153.309 257.101 153.426C255.709 153.778 253.556 155.389 253.556 157.147C253.556 157.367 253.57 157.645 253.79 157.645C253.966 157.645 254.684 157.425 255.87 156.854C255.929 156.825 255.958 156.751 255.958 156.649C255.958 156.605 255.885 156.385 255.885 156.048C255.885 154.774 257.042 154.247 257.73 154.247C259.137 154.247 260.001 155.345 260.001 156.942V158.714C260.001 159.315 259.811 159.71 259.43 159.872L256.588 161.117C254.288 162.127 253.233 162.787 253.233 164.164C253.233 165.921 254.728 167.005 256.192 167.005ZM255.533 163.797C255.533 162.918 256.017 162.171 256.822 161.82L259.532 160.633C259.605 160.604 259.664 160.589 259.737 160.589C259.884 160.589 260.001 160.692 260.001 160.912V163.695C260.001 163.973 259.869 164.222 259.62 164.398L258.858 164.955C258.331 165.335 257.862 165.511 257.467 165.511C256.251 165.511 255.533 164.75 255.533 163.797ZM265.758 160.252C265.758 163.929 268.16 167.005 271.91 167.005C274.269 167.005 275.924 165.775 277.638 163.915C277.696 163.856 277.726 163.783 277.726 163.709C277.726 163.548 277.491 163.314 277.33 163.314C277.257 163.314 277.184 163.343 277.125 163.402C275.895 164.618 274.43 165.101 272.804 165.101C269.918 165.101 268.058 162.508 268.058 159.374C268.058 156.971 269.288 154.027 272.438 154.027C273.917 154.027 274.635 156.048 275.895 156.048C276.437 156.048 276.949 155.726 276.949 155.184C276.949 153.939 275.118 153.236 272.745 153.236C268.6 153.236 265.758 156.209 265.758 160.252ZM286.251 153.236C282.354 153.236 279.674 156.576 279.674 160.414C279.674 164.002 282.193 167.005 285.826 167.005C288.185 167.005 289.913 165.833 291.554 163.915C291.612 163.856 291.642 163.797 291.642 163.724C291.642 163.548 291.407 163.314 291.231 163.314C291.158 163.314 291.1 163.343 291.041 163.402C289.693 164.72 288.507 165.101 286.617 165.101C283.907 165.101 281.871 162.684 281.871 159.886C281.871 159.505 281.871 158.7 282.062 158.451C282.149 158.333 282.296 158.275 282.472 158.275H291.451C291.642 158.275 291.744 158.158 291.744 157.909C291.744 157.557 291.451 157.586 291.393 157.308C290.792 154.73 289.093 153.236 286.251 153.236ZM285.885 154.115C287.73 154.115 288.844 155.418 288.844 157.176C288.844 157.425 288.712 157.542 288.463 157.542H282.794C282.53 157.542 282.398 157.455 282.398 157.235C282.398 156.561 283.453 154.115 285.885 154.115Z" fill="#383976"/>
<path d="M97.5953 164.063C99.4667 161.015 101.899 158.836 104.596 157.799L106.111 157.216L104.116 156.346C101.721 155.301 99.553 153.346 97.8272 150.68L97.0451 148.669L96.495 150.361C94.6235 153.41 92.1911 155.588 89.4945 156.626L87.9789 157.208L89.9745 158.078C92.3691 159.123 94.5372 161.079 96.2631 163.744L97.0451 165.755L97.5953 164.063Z" fill="#FF77A6"/>
<path d="M495.12 144.74C494.93 144.74 494.827 144.857 494.827 145.106C494.827 145.355 494.93 145.472 495.12 145.472H495.56C497.024 145.472 497.757 146.205 497.757 147.669V163.783C497.757 165.248 497.024 165.98 495.56 165.98H495.12C494.93 165.98 494.827 166.097 494.827 166.346C494.827 166.595 494.93 166.712 495.12 166.712H503.323C503.514 166.712 503.616 166.595 503.616 166.346C503.616 166.097 503.514 165.98 503.323 165.98H502.884C501.419 165.98 500.687 165.248 500.687 163.783V157.323C500.687 156.869 500.906 156.649 501.331 156.649C501.668 156.649 502.137 156.737 503.133 156.737C507.732 156.737 510.94 154.393 510.94 150.965C510.94 149.193 510.34 147.757 509.124 146.644C507.483 145.15 505.477 144.74 502.342 144.74C501.639 144.74 500.789 144.784 499.148 144.784C498.064 144.784 496.717 144.754 495.12 144.74ZM500.687 146.571C500.687 146.102 500.936 145.838 501.419 145.838H502.913C506.414 145.838 508.011 147.582 508.011 150.907C508.011 154.012 505.799 155.536 502.649 155.536C502.02 155.536 500.687 155.462 500.687 154.642V146.571ZM515.013 167.005C515.701 167.005 516.258 166.888 516.932 166.39L518.733 165.057C518.763 165.028 518.792 165.013 518.821 165.013C518.851 165.013 518.88 165.057 518.895 165.145C518.968 165.614 519.158 167.005 520.389 167.005C520.931 167.005 521.575 166.668 521.927 166.419L523.333 165.394C523.553 165.233 523.626 165.145 523.626 164.808C523.626 164.72 523.611 164.53 523.523 164.53C523.406 164.53 522.718 165.028 522.161 165.028C521.458 165.028 521.019 164.647 521.019 163.871V157.44C521.019 154.32 519.1 153.236 517.415 153.236C516.902 153.236 516.404 153.309 515.921 153.426C514.529 153.778 512.376 155.389 512.376 157.147C512.376 157.367 512.391 157.645 512.61 157.645C512.786 157.645 513.504 157.425 514.69 156.854C514.749 156.825 514.778 156.751 514.778 156.649C514.778 156.605 514.705 156.385 514.705 156.048C514.705 154.774 515.862 154.247 516.551 154.247C517.957 154.247 518.821 155.345 518.821 156.942V158.714C518.821 159.315 518.631 159.71 518.25 159.872L515.408 161.117C513.108 162.127 512.054 162.787 512.054 164.164C512.054 165.921 513.548 167.005 515.013 167.005ZM514.354 163.797C514.354 162.918 514.837 162.171 515.643 161.82L518.353 160.633C518.426 160.604 518.484 160.589 518.558 160.589C518.704 160.589 518.821 160.692 518.821 160.912V163.695C518.821 163.973 518.689 164.222 518.44 164.398L517.679 164.955C517.151 165.335 516.683 165.511 516.287 165.511C515.071 165.511 514.354 164.75 514.354 163.797ZM528.606 157.586C528.606 156.869 528.914 156.327 529.339 155.843C529.793 155.331 530.379 154.964 530.965 154.964C531.36 154.964 531.8 155.096 532.283 155.345C532.767 155.594 533.074 155.711 533.206 155.711C533.367 155.711 533.587 155.462 533.836 154.979C534.1 154.496 534.231 154.159 534.231 153.998C534.231 153.822 533.777 153.573 533.06 153.265C532.488 153.016 531.99 152.899 531.595 152.899C531.082 152.899 530.584 153.28 530.115 153.792C529.661 154.305 529.222 154.935 528.987 155.287C528.914 155.389 528.826 155.433 528.768 155.433C528.665 155.433 528.606 155.331 528.606 155.169V153.543C528.606 153.177 528.445 153.001 528.182 153.001C528.035 153.001 527.874 153.06 527.669 153.148L524.49 154.583C524.329 154.657 524.256 154.789 524.256 154.994C524.256 155.184 524.344 155.316 524.52 155.36L525.765 155.726C526.189 155.843 526.409 156.078 526.409 156.546V164.266C526.409 165.13 526.058 165.658 525.12 165.892C524.358 166.083 524.212 166.112 524.212 166.419C524.212 166.61 524.3 166.712 524.461 166.712H531.316C531.463 166.712 531.536 166.61 531.536 166.419C531.536 166.288 531.316 166.185 530.892 166.112C530.467 166.039 530.13 165.965 529.896 165.892C528.958 165.614 528.606 165.13 528.606 164.266V157.586ZM537.396 163.475C537.396 165.702 538.465 167.005 540.677 167.005C541.746 167.005 542.962 166.317 543.899 164.779C544.031 164.559 544.104 164.383 544.104 164.281C544.104 164.222 544.061 164.178 544.002 164.178C543.855 164.178 542.508 165.218 541.482 165.218C540.472 165.218 539.593 164.662 539.593 162.655V155.946C539.593 155.609 539.769 155.433 540.105 155.433H543.211C543.401 155.433 543.504 155.36 543.504 155.184C543.504 155.155 543.489 155.111 543.489 155.067L543.299 153.836C543.27 153.631 543.138 153.529 542.962 153.529H540.105C539.769 153.529 539.593 153.353 539.593 153.016V151.156C539.593 150.921 539.52 150.76 539.402 150.76C539.314 150.76 539.168 150.848 539.036 151.053C538.069 152.533 536.883 153.705 535.477 154.583C535.315 154.686 535.242 154.833 535.242 154.994C535.242 155.287 535.403 155.433 535.711 155.433H536.883C537.22 155.433 537.396 155.609 537.396 155.946V163.475ZM555.882 165.892C555.12 166.083 554.974 166.112 554.974 166.419C554.974 166.61 555.062 166.712 555.223 166.712H562.078C562.225 166.712 562.298 166.61 562.298 166.419C562.298 166.288 562.078 166.185 561.653 166.112C560.013 165.833 559.456 165.658 559.456 164.383C559.456 163.006 559.573 161.864 559.573 159.154C559.573 155.917 558.24 153.236 555.384 153.236C554.681 153.236 553.89 153.426 553.113 153.836L551.15 154.862C551.019 154.935 550.916 154.95 550.828 154.95C550.652 154.95 550.579 154.833 550.579 154.598V153.543C550.579 153.177 550.418 153.016 550.154 153.016C550.022 153.016 549.847 153.06 549.642 153.148L546.463 154.583C546.302 154.657 546.229 154.789 546.229 154.994C546.229 155.184 546.316 155.316 546.492 155.36L547.737 155.726C548.162 155.843 548.382 156.078 548.382 156.546V164.266C548.382 165.116 548.03 165.643 547.093 165.892C546.331 166.097 546.185 166.097 546.185 166.419C546.185 166.61 546.272 166.712 546.434 166.712H552.557C552.703 166.712 552.776 166.61 552.776 166.419C552.776 166.097 552.63 166.097 551.868 165.892C550.931 165.643 550.579 165.116 550.579 164.266V156.4C550.579 156.18 550.682 156.019 550.872 155.931L552.22 155.316C552.732 155.096 553.245 154.994 553.787 154.994C556.497 154.994 557.376 156.708 557.376 159.74C557.376 161.6 557.303 162.831 557.215 164.164C557.142 165.16 556.819 165.658 555.882 165.892ZM570.179 153.236C566.282 153.236 563.602 156.576 563.602 160.414C563.602 164.002 566.121 167.005 569.754 167.005C572.112 167.005 573.841 165.833 575.481 163.915C575.54 163.856 575.569 163.797 575.569 163.724C575.569 163.548 575.335 163.314 575.159 163.314C575.086 163.314 575.027 163.343 574.969 163.402C573.621 164.72 572.435 165.101 570.545 165.101C567.835 165.101 565.799 162.684 565.799 159.886C565.799 159.505 565.799 158.7 565.989 158.451C566.077 158.333 566.224 158.275 566.399 158.275H575.379C575.569 158.275 575.672 158.158 575.672 157.909C575.672 157.557 575.379 157.586 575.32 157.308C574.72 154.73 573.021 153.236 570.179 153.236ZM569.812 154.115C571.658 154.115 572.771 155.418 572.771 157.176C572.771 157.425 572.64 157.542 572.391 157.542H566.722C566.458 157.542 566.326 157.455 566.326 157.235C566.326 156.561 567.381 154.115 569.812 154.115ZM581.897 157.586C581.897 156.869 582.205 156.327 582.63 155.843C583.084 155.331 583.67 154.964 584.256 154.964C584.651 154.964 585.091 155.096 585.574 155.345C586.058 155.594 586.365 155.711 586.497 155.711C586.658 155.711 586.878 155.462 587.127 154.979C587.391 154.496 587.522 154.159 587.522 153.998C587.522 153.822 587.068 153.573 586.351 153.265C585.779 153.016 585.281 152.899 584.886 152.899C584.373 152.899 583.875 153.28 583.406 153.792C582.952 154.305 582.513 154.935 582.278 155.287C582.205 155.389 582.117 155.433 582.059 155.433C581.956 155.433 581.897 155.331 581.897 155.169V153.543C581.897 153.177 581.736 153.001 581.473 153.001C581.326 153.001 581.165 153.06 580.96 153.148L577.781 154.583C577.62 154.657 577.547 154.789 577.547 154.994C577.547 155.184 577.635 155.316 577.811 155.36L579.056 155.726C579.48 155.843 579.7 156.078 579.7 156.546V164.266C579.7 165.13 579.349 165.658 578.411 165.892C577.649 166.083 577.503 166.112 577.503 166.419C577.503 166.61 577.591 166.712 577.752 166.712H584.607C584.754 166.712 584.827 166.61 584.827 166.419C584.827 166.288 584.607 166.185 584.183 166.112C583.758 166.039 583.421 165.965 583.187 165.892C582.249 165.614 581.897 165.13 581.897 164.266V157.586ZM590.188 166.522C590.965 166.712 591.697 167.005 592.503 167.005C594.729 167.005 596.692 165.687 596.692 163.387C596.692 162.025 596.092 161.131 595.228 160.37C594.803 159.989 594.085 159.505 592.254 158.407C591.316 157.85 590.276 157.235 590.276 155.931C590.276 154.803 591.17 153.968 592.503 153.968C594.07 153.968 594.627 154.774 594.949 155.814C595.257 156.854 595.198 157.147 595.608 157.147C595.901 157.147 596.004 157 595.989 156.81L595.696 153.5C595.682 153.324 595.579 153.236 595.359 153.236C594.773 153.236 594.803 153.485 594.598 153.485C594.349 153.485 593.938 153.236 592.781 153.236C590.511 153.236 588.753 154.745 588.753 156.869C588.753 158.216 589.412 159.081 590.276 159.798C590.716 160.165 591.448 160.677 592.488 161.336C594.246 162.464 594.656 162.948 594.656 164.164C594.656 165.35 594.026 166.273 592.62 166.273C590.95 166.273 590.057 165.379 589.573 163.944C589.397 163.446 589.485 163.197 589.09 163.197C588.797 163.197 588.694 163.358 588.709 163.534L588.987 166.742C589.002 166.917 589.104 167.005 589.31 167.005C589.617 167.005 589.749 166.507 590.027 166.507C590.086 166.507 590.13 166.507 590.188 166.522Z" fill="#383976"/>
<path d="M468.035 164.063C469.906 161.015 472.339 158.836 475.035 157.799L476.551 157.216L474.555 156.346C472.161 155.301 469.992 153.346 468.267 150.68L467.485 148.669L466.934 150.361C465.063 153.41 462.631 155.588 459.934 156.626L458.418 157.208L460.414 158.078C462.809 159.123 464.977 161.079 466.703 163.744L467.485 165.755L468.035 164.063Z" fill="#FF77A6"/>
<path d="M146.253 358.009C146.561 358.009 146.692 358.009 147.161 358.141C147.293 358.17 147.396 358.112 147.454 357.98L149.593 353.19C149.666 353.014 149.593 352.882 149.373 352.78C149.153 352.692 148.992 352.736 148.919 352.897C148.597 353.615 148.128 354.362 147.527 355.124C146.927 355.871 146.004 356.53 144.773 357.086C143.558 357.628 142.254 357.907 140.862 357.907C135.252 357.907 131.385 353.087 131.385 347.345C131.385 342.013 134.9 337.545 140.613 337.545C143.543 337.545 146.15 339.04 147.718 341.969C147.791 342.101 147.835 342.292 147.879 342.541C147.923 342.79 148.069 342.892 148.318 342.877C148.567 342.863 148.67 342.746 148.655 342.541L148.318 337.838C148.304 337.648 148.187 337.545 147.952 337.56C147.732 337.575 147.352 337.794 147.132 337.794C146.561 337.794 146.106 337.692 145.096 337.296C143.748 336.798 142.444 336.447 140.716 336.447C133.641 336.447 128.455 341.178 128.455 347.711C128.455 354.538 133.89 359.005 140.716 359.005C141.653 359.005 142.693 358.844 143.851 358.522C145.008 358.185 145.726 358.009 146.253 358.009ZM151.526 352.121C151.526 355.915 154.295 359.005 158.528 359.005C162.762 359.005 165.53 355.915 165.53 352.121C165.53 348.327 162.791 345.236 158.528 345.236C154.266 345.236 151.526 348.327 151.526 352.121ZM157.986 346.027C160.623 346.027 163.245 348.986 163.245 352.824C163.245 355.753 161.561 358.214 159.07 358.214C156.434 358.214 153.812 355.27 153.812 351.432C153.812 348.502 155.496 346.027 157.986 346.027ZM173.733 358.712C173.88 358.712 173.953 358.61 173.953 358.419C173.953 358.112 173.807 358.083 173.045 357.892C172.107 357.658 171.756 357.13 171.756 356.266V335.656C171.756 335.29 171.595 335.114 171.331 335.114C171.199 335.114 171.023 335.172 170.818 335.26L167.64 336.696C167.479 336.769 167.405 336.901 167.405 337.106C167.405 337.296 167.493 337.428 167.669 337.472L168.914 337.838C169.339 337.97 169.559 338.19 169.559 338.659V356.266C169.559 357.13 169.207 357.658 168.27 357.892C167.508 358.083 167.361 358.112 167.361 358.419C167.361 358.61 167.449 358.712 167.61 358.712H173.733ZM181.79 358.712C181.937 358.712 182.01 358.61 182.01 358.419C182.01 358.112 181.863 358.083 181.102 357.892C180.164 357.658 179.812 357.13 179.812 356.266V335.656C179.812 335.29 179.651 335.114 179.388 335.114C179.256 335.114 179.08 335.172 178.875 335.26L175.696 336.696C175.535 336.769 175.462 336.901 175.462 337.106C175.462 337.296 175.55 337.428 175.726 337.472L176.971 337.838C177.396 337.97 177.615 338.19 177.615 338.659V356.266C177.615 357.13 177.264 357.658 176.326 357.892C175.564 358.083 175.418 358.112 175.418 358.419C175.418 358.61 175.506 358.712 175.667 358.712H181.79ZM190.418 345.236C186.521 345.236 183.841 348.576 183.841 352.414C183.841 356.002 186.36 359.005 189.993 359.005C192.352 359.005 194.08 357.833 195.721 355.915C195.779 355.856 195.809 355.797 195.809 355.724C195.809 355.548 195.574 355.314 195.398 355.314C195.325 355.314 195.267 355.343 195.208 355.402C193.86 356.72 192.674 357.101 190.784 357.101C188.074 357.101 186.038 354.684 186.038 351.886C186.038 351.505 186.038 350.7 186.229 350.451C186.316 350.333 186.463 350.275 186.639 350.275H195.618C195.809 350.275 195.911 350.158 195.911 349.909C195.911 349.557 195.618 349.586 195.56 349.308C194.959 346.73 193.26 345.236 190.418 345.236ZM190.052 346.115C191.897 346.115 193.011 347.418 193.011 349.176C193.011 349.425 192.879 349.542 192.63 349.542H186.961C186.697 349.542 186.565 349.455 186.565 349.235C186.565 348.561 187.62 346.115 190.052 346.115ZM198.108 352.252C198.108 355.929 200.511 359.005 204.261 359.005C206.619 359.005 208.274 357.775 209.988 355.915C210.047 355.856 210.076 355.783 210.076 355.709C210.076 355.548 209.842 355.314 209.681 355.314C209.607 355.314 209.534 355.343 209.476 355.402C208.245 356.618 206.78 357.101 205.154 357.101C202.269 357.101 200.408 354.508 200.408 351.374C200.408 348.971 201.639 346.027 204.788 346.027C206.268 346.027 206.985 348.048 208.245 348.048C208.787 348.048 209.3 347.726 209.3 347.184C209.3 345.939 207.469 345.236 205.096 345.236C200.95 345.236 198.108 348.209 198.108 352.252ZM213.855 355.475C213.855 357.702 214.925 359.005 217.137 359.005C218.206 359.005 219.422 358.317 220.359 356.779C220.491 356.559 220.564 356.383 220.564 356.281C220.564 356.222 220.521 356.178 220.462 356.178C220.315 356.178 218.968 357.218 217.942 357.218C216.932 357.218 216.053 356.662 216.053 354.655V347.946C216.053 347.609 216.229 347.433 216.565 347.433H219.671C219.861 347.433 219.964 347.36 219.964 347.184C219.964 347.155 219.949 347.111 219.949 347.067L219.759 345.836C219.729 345.631 219.598 345.529 219.422 345.529H216.565C216.229 345.529 216.053 345.353 216.053 345.016V343.156C216.053 342.921 215.979 342.76 215.862 342.76C215.774 342.76 215.628 342.848 215.496 343.053C214.529 344.533 213.343 345.705 211.937 346.583C211.775 346.686 211.702 346.833 211.702 346.994C211.702 347.287 211.863 347.433 212.171 347.433H213.343C213.68 347.433 213.855 347.609 213.855 347.946V355.475ZM229.017 358.712C229.163 358.712 229.236 358.61 229.236 358.419C229.236 358.097 229.09 358.097 228.328 357.892C227.391 357.643 227.039 357.116 227.039 356.266V345.543C227.039 345.177 226.878 345.016 226.614 345.016C226.482 345.016 226.307 345.06 226.102 345.148L222.923 346.583C222.762 346.657 222.688 346.789 222.688 346.994C222.688 347.184 222.776 347.316 222.952 347.36L224.197 347.726C224.622 347.843 224.842 348.078 224.842 348.546V356.266C224.842 357.116 224.49 357.643 223.553 357.892C222.791 358.097 222.645 358.097 222.645 358.419C222.645 358.61 222.732 358.712 222.894 358.712H229.017ZM224.388 339.669C224.388 340.519 225.076 341.208 225.926 341.208C226.775 341.208 227.464 340.519 227.464 339.669C227.464 338.82 226.775 338.131 225.926 338.131C225.076 338.131 224.388 338.82 224.388 339.669ZM231.067 352.121C231.067 355.915 233.836 359.005 238.069 359.005C242.303 359.005 245.071 355.915 245.071 352.121C245.071 348.327 242.332 345.236 238.069 345.236C233.807 345.236 231.067 348.327 231.067 352.121ZM237.527 346.027C240.164 346.027 242.786 348.986 242.786 352.824C242.786 355.753 241.102 358.214 238.611 358.214C235.975 358.214 233.353 355.27 233.353 351.432C233.353 348.502 235.037 346.027 237.527 346.027ZM256.6 357.892C255.838 358.083 255.691 358.112 255.691 358.419C255.691 358.61 255.779 358.712 255.94 358.712H262.796C262.942 358.712 263.016 358.61 263.016 358.419C263.016 358.288 262.796 358.185 262.371 358.112C260.73 357.833 260.174 357.658 260.174 356.383C260.174 355.006 260.291 353.864 260.291 351.154C260.291 347.917 258.958 345.236 256.102 345.236C255.398 345.236 254.607 345.426 253.831 345.836L251.868 346.862C251.736 346.935 251.634 346.95 251.546 346.95C251.37 346.95 251.297 346.833 251.297 346.598V345.543C251.297 345.177 251.136 345.016 250.872 345.016C250.74 345.016 250.564 345.06 250.359 345.148L247.181 346.583C247.02 346.657 246.946 346.789 246.946 346.994C246.946 347.184 247.034 347.316 247.21 347.36L248.455 347.726C248.88 347.843 249.1 348.078 249.1 348.546V356.266C249.1 357.116 248.748 357.643 247.811 357.892C247.049 358.097 246.902 358.097 246.902 358.419C246.902 358.61 246.99 358.712 247.151 358.712H253.274C253.421 358.712 253.494 358.61 253.494 358.419C253.494 358.097 253.348 358.097 252.586 357.892C251.648 357.643 251.297 357.116 251.297 356.266V348.4C251.297 348.18 251.399 348.019 251.59 347.931L252.938 347.316C253.45 347.096 253.963 346.994 254.505 346.994C257.215 346.994 258.094 348.708 258.094 351.74C258.094 353.6 258.021 354.831 257.933 356.164C257.859 357.16 257.537 357.658 256.6 357.892ZM265.652 358.522C266.429 358.712 267.161 359.005 267.967 359.005C270.193 359.005 272.156 357.687 272.156 355.387C272.156 354.025 271.556 353.131 270.691 352.37C270.267 351.989 269.549 351.505 267.718 350.407C266.78 349.85 265.74 349.235 265.74 347.931C265.74 346.803 266.634 345.968 267.967 345.968C269.534 345.968 270.091 346.774 270.413 347.814C270.721 348.854 270.662 349.147 271.072 349.147C271.365 349.147 271.468 349 271.453 348.81L271.16 345.5C271.146 345.324 271.043 345.236 270.823 345.236C270.237 345.236 270.267 345.485 270.062 345.485C269.812 345.485 269.402 345.236 268.245 345.236C265.975 345.236 264.217 346.745 264.217 348.869C264.217 350.216 264.876 351.081 265.74 351.798C266.18 352.165 266.912 352.677 267.952 353.336C269.71 354.464 270.12 354.948 270.12 356.164C270.12 357.35 269.49 358.273 268.084 358.273C266.414 358.273 265.521 357.379 265.037 355.944C264.861 355.446 264.949 355.197 264.554 355.197C264.261 355.197 264.158 355.358 264.173 355.534L264.451 358.742C264.466 358.917 264.568 359.005 264.773 359.005C265.081 359.005 265.213 358.507 265.491 358.507C265.55 358.507 265.594 358.507 265.652 358.522Z" fill="#383976"/>
<path d="M97.5953 356.063C99.4667 353.015 101.899 350.836 104.596 349.799L106.111 349.216L104.116 348.346C101.721 347.301 99.553 345.346 97.8272 342.68L97.0451 340.669L96.495 342.361C94.6235 345.41 92.1911 347.588 89.4945 348.626L87.9789 349.208L89.9745 350.078C92.3691 351.123 94.5372 353.079 96.2631 355.744L97.0451 357.755L97.5953 356.063Z" fill="#FF77A6"/>
<path d="M533.364 339.669C533.364 338.205 534.097 337.472 535.562 337.472H536.001C536.191 337.472 536.294 337.355 536.294 337.106C536.294 336.857 536.191 336.74 536.001 336.74H529.263C529.072 336.74 528.97 336.857 528.97 337.106C528.97 337.355 529.072 337.472 529.263 337.472H529.702C531.167 337.472 531.899 338.205 531.899 339.669V354.025C531.899 354.479 531.812 354.699 531.636 354.699C531.533 354.699 531.372 354.596 531.182 354.391L514.585 337.018C514.409 336.828 514.146 336.74 513.779 336.74H510.22C510.029 336.74 509.927 336.857 509.927 337.106C509.927 337.355 510.029 337.472 510.22 337.472H510.659C512.124 337.472 512.856 338.205 512.856 339.669V355.783C512.856 357.248 512.124 357.98 510.659 357.98H510.22C510.029 357.98 509.927 358.097 509.927 358.346C509.927 358.595 510.029 358.712 510.22 358.712H516.958C517.148 358.712 517.251 358.595 517.251 358.346C517.251 358.097 517.148 357.98 516.958 357.98H516.519C515.054 357.98 514.321 357.248 514.321 355.783V341.266C514.321 340.812 514.409 340.578 514.585 340.578C514.702 340.578 514.849 340.695 515.054 340.9L531.372 358.156C531.724 358.522 532.148 358.712 532.632 358.712C533.115 358.712 533.364 358.463 533.364 357.98V339.669ZM545.435 345.236C541.538 345.236 538.857 348.576 538.857 352.414C538.857 356.002 541.377 359.005 545.01 359.005C547.368 359.005 549.097 357.833 550.737 355.915C550.796 355.856 550.825 355.797 550.825 355.724C550.825 355.548 550.591 355.314 550.415 355.314C550.342 355.314 550.283 355.343 550.225 355.402C548.877 356.72 547.69 357.101 545.801 357.101C543.091 357.101 541.055 354.684 541.055 351.886C541.055 351.505 541.055 350.7 541.245 350.451C541.333 350.333 541.479 350.275 541.655 350.275H550.635C550.825 350.275 550.928 350.158 550.928 349.909C550.928 349.557 550.635 349.586 550.576 349.308C549.976 346.73 548.276 345.236 545.435 345.236ZM545.068 346.115C546.914 346.115 548.027 347.418 548.027 349.176C548.027 349.425 547.896 349.542 547.646 349.542H541.978C541.714 349.542 541.582 349.455 541.582 349.235C541.582 348.561 542.637 346.115 545.068 346.115ZM558.633 358.712C558.735 358.976 558.911 359.108 559.16 359.108H559.863C560.098 359.108 560.273 358.976 560.376 358.698L563.745 349.938C563.789 349.806 563.892 349.674 564.009 349.674C564.141 349.674 564.214 349.777 564.272 349.938L567.642 358.712C567.744 358.976 567.92 359.108 568.169 359.108H568.872C569.106 359.108 569.282 358.976 569.385 358.698L573.398 348.239C573.604 347.697 573.882 346.935 574.409 346.583C575.054 346.159 575.859 346.276 575.859 345.822C575.859 345.631 575.771 345.529 575.61 345.529H571.978C571.831 345.529 571.758 345.631 571.758 345.822C571.758 346.334 572.988 346.247 572.988 347.038C572.988 347.184 572.959 347.345 572.886 347.521L569.561 356.178C569.487 356.369 569.385 356.471 569.282 356.471C569.194 356.471 569.106 356.398 569.033 356.222L565.679 347.506C565.605 347.316 565.576 347.155 565.576 347.023C565.576 346.129 566.851 346.408 566.851 345.822C566.851 345.631 566.763 345.529 566.602 345.529H561.401C561.255 345.529 561.182 345.631 561.182 345.822C561.182 346.129 561.328 346.159 562.09 346.349C562.954 346.569 563.525 347.477 563.525 348.209C563.525 348.356 563.496 348.517 563.452 348.649L560.552 356.178C560.479 356.369 560.376 356.471 560.273 356.471C560.186 356.471 560.098 356.398 560.024 356.222L556.67 347.506C556.597 347.301 556.553 347.125 556.553 346.979C556.553 346.056 557.842 346.422 557.842 345.822C557.842 345.631 557.754 345.529 557.593 345.529H552.393C552.246 345.529 552.173 345.631 552.173 345.822C552.173 346.129 552.319 346.173 553.081 346.349C554.004 346.569 554.268 347.316 554.561 348.092L558.633 358.712ZM578.599 358.522C579.375 358.712 580.107 359.005 580.913 359.005C583.14 359.005 585.103 357.687 585.103 355.387C585.103 354.025 584.502 353.131 583.638 352.37C583.213 351.989 582.495 351.505 580.664 350.407C579.727 349.85 578.687 349.235 578.687 347.931C578.687 346.803 579.58 345.968 580.913 345.968C582.48 345.968 583.037 346.774 583.359 347.814C583.667 348.854 583.608 349.147 584.019 349.147C584.312 349.147 584.414 349 584.399 348.81L584.106 345.5C584.092 345.324 583.989 345.236 583.77 345.236C583.184 345.236 583.213 345.485 583.008 345.485C582.759 345.485 582.349 345.236 581.191 345.236C578.921 345.236 577.163 346.745 577.163 348.869C577.163 350.216 577.822 351.081 578.687 351.798C579.126 352.165 579.858 352.677 580.898 353.336C582.656 354.464 583.066 354.948 583.066 356.164C583.066 357.35 582.437 358.273 581.03 358.273C579.36 358.273 578.467 357.379 577.983 355.944C577.808 355.446 577.896 355.197 577.5 355.197C577.207 355.197 577.104 355.358 577.119 355.534L577.397 358.742C577.412 358.917 577.515 359.005 577.72 359.005C578.027 359.005 578.159 358.507 578.438 358.507C578.496 358.507 578.54 358.507 578.599 358.522Z" fill="#383976"/>
<path d="M468.035 356.063C469.906 353.015 472.339 350.836 475.035 349.799L476.551 349.216L474.555 348.346C472.161 347.301 469.992 345.346 468.267 342.68L467.485 340.669L466.934 342.361C465.063 345.41 462.631 347.588 459.934 348.626L458.418 349.208L460.414 350.078C462.809 351.123 464.977 353.079 466.703 355.744L467.485 357.755L468.035 356.063Z" fill="#FF77A6"/>
<path d="M518.187 453.13C518.509 452.94 518.67 452.691 518.67 452.383V446.934C518.67 445.469 519.402 444.737 520.867 444.737H521.307C521.497 444.737 521.6 444.62 521.6 444.371C521.6 444.122 521.497 444.004 521.307 444.004H512.371C512.181 444.004 512.078 444.122 512.078 444.371C512.078 444.62 512.181 444.737 512.371 444.737H513.543C515.008 444.737 515.74 445.469 515.74 446.934V452.325C515.74 452.72 515.535 452.999 515.11 453.16C513.763 453.658 512.488 453.907 511.302 453.907C505.691 453.907 501.824 449.087 501.824 443.345C501.824 437.911 505.442 433.545 511.053 433.545C513.982 433.545 516.59 435.04 518.157 437.969C518.304 438.233 518.23 438.877 518.758 438.877C518.992 438.877 519.109 438.746 519.095 438.541L518.758 433.838C518.743 433.633 518.626 433.56 518.392 433.56C518.172 433.56 517.791 433.794 517.571 433.794C516.985 433.794 516.561 433.692 515.535 433.296C514.188 432.784 512.869 432.447 511.155 432.447C504.212 432.447 498.895 437.002 498.895 443.711C498.895 450.538 504.329 455.005 511.155 455.005C513.426 455.005 516.59 453.995 518.187 453.13ZM526.316 455.005C527.005 455.005 527.562 454.888 528.235 454.39L530.037 453.057C530.066 453.028 530.096 453.013 530.125 453.013C530.154 453.013 530.184 453.057 530.198 453.145C530.271 453.614 530.462 455.005 531.692 455.005C532.234 455.005 532.879 454.668 533.23 454.419L534.637 453.394C534.856 453.233 534.93 453.145 534.93 452.808C534.93 452.72 534.915 452.53 534.827 452.53C534.71 452.53 534.021 453.028 533.465 453.028C532.762 453.028 532.322 452.647 532.322 451.871V445.44C532.322 442.32 530.403 441.236 528.719 441.236C528.206 441.236 527.708 441.309 527.225 441.426C525.833 441.778 523.68 443.389 523.68 445.147C523.68 445.367 523.694 445.645 523.914 445.645C524.09 445.645 524.808 445.425 525.994 444.854C526.053 444.825 526.082 444.751 526.082 444.649C526.082 444.605 526.009 444.385 526.009 444.048C526.009 442.774 527.166 442.247 527.854 442.247C529.261 442.247 530.125 443.345 530.125 444.942V446.714C530.125 447.315 529.935 447.71 529.554 447.872L526.712 449.117C524.412 450.127 523.357 450.787 523.357 452.164C523.357 453.921 524.852 455.005 526.316 455.005ZM525.657 451.797C525.657 450.918 526.141 450.171 526.946 449.82L529.656 448.633C529.729 448.604 529.788 448.589 529.861 448.589C530.008 448.589 530.125 448.692 530.125 448.912V451.695C530.125 451.973 529.993 452.222 529.744 452.398L528.982 452.955C528.455 453.335 527.986 453.511 527.591 453.511C526.375 453.511 525.657 452.75 525.657 451.797ZM541.888 454.712C542.034 454.712 542.107 454.61 542.107 454.419C542.107 454.112 541.961 454.083 541.199 453.892C540.262 453.658 539.91 453.13 539.91 452.266V431.656C539.91 431.29 539.749 431.114 539.485 431.114C539.354 431.114 539.178 431.172 538.973 431.26L535.794 432.696C535.633 432.769 535.56 432.901 535.56 433.106C535.56 433.296 535.647 433.428 535.823 433.472L537.068 433.838C537.493 433.97 537.713 434.19 537.713 434.659V452.266C537.713 453.13 537.361 453.658 536.424 453.892C535.662 454.083 535.516 454.112 535.516 454.419C535.516 454.61 535.604 454.712 535.765 454.712H541.888ZM549.944 454.712C550.091 454.712 550.164 454.61 550.164 454.419C550.164 454.112 550.018 454.083 549.256 453.892C548.318 453.658 547.967 453.13 547.967 452.266V431.656C547.967 431.29 547.806 431.114 547.542 431.114C547.41 431.114 547.234 431.172 547.029 431.26L543.851 432.696C543.689 432.769 543.616 432.901 543.616 433.106C543.616 433.296 543.704 433.428 543.88 433.472L545.125 433.838C545.55 433.97 545.77 434.19 545.77 434.659V452.266C545.77 453.13 545.418 453.658 544.48 453.892C543.719 454.083 543.572 454.112 543.572 454.419C543.572 454.61 543.66 454.712 543.821 454.712H549.944ZM558.572 441.236C554.676 441.236 551.995 444.576 551.995 448.414C551.995 452.002 554.515 455.005 558.147 455.005C560.506 455.005 562.234 453.833 563.875 451.915C563.934 451.856 563.963 451.797 563.963 451.724C563.963 451.548 563.729 451.314 563.553 451.314C563.479 451.314 563.421 451.343 563.362 451.402C562.015 452.72 560.828 453.101 558.938 453.101C556.229 453.101 554.192 450.684 554.192 447.886C554.192 447.505 554.192 446.7 554.383 446.451C554.471 446.333 554.617 446.275 554.793 446.275H563.772C563.963 446.275 564.065 446.158 564.065 445.909C564.065 445.557 563.772 445.586 563.714 445.308C563.113 442.73 561.414 441.236 558.572 441.236ZM558.206 442.115C560.052 442.115 561.165 443.418 561.165 445.176C561.165 445.425 561.033 445.542 560.784 445.542H555.115C554.852 445.542 554.72 445.455 554.72 445.235C554.72 444.561 555.774 442.115 558.206 442.115ZM570.291 445.586C570.291 444.869 570.599 444.327 571.023 443.843C571.478 443.331 572.063 442.964 572.649 442.964C573.045 442.964 573.484 443.096 573.968 443.345C574.451 443.594 574.759 443.711 574.891 443.711C575.052 443.711 575.271 443.462 575.521 442.979C575.784 442.496 575.916 442.159 575.916 441.998C575.916 441.822 575.462 441.573 574.744 441.265C574.173 441.016 573.675 440.899 573.279 440.899C572.767 440.899 572.269 441.28 571.8 441.792C571.346 442.305 570.906 442.935 570.672 443.287C570.599 443.389 570.511 443.433 570.452 443.433C570.35 443.433 570.291 443.331 570.291 443.169V441.543C570.291 441.177 570.13 441.001 569.866 441.001C569.72 441.001 569.559 441.06 569.354 441.148L566.175 442.583C566.014 442.657 565.94 442.789 565.94 442.994C565.94 443.184 566.028 443.316 566.204 443.36L567.449 443.726C567.874 443.843 568.094 444.078 568.094 444.546V452.266C568.094 453.13 567.742 453.658 566.805 453.892C566.043 454.083 565.896 454.112 565.896 454.419C565.896 454.61 565.984 454.712 566.146 454.712H573.001C573.147 454.712 573.221 454.61 573.221 454.419C573.221 454.288 573.001 454.185 572.576 454.112C572.151 454.039 571.814 453.965 571.58 453.892C570.643 453.614 570.291 453.13 570.291 452.266V445.586ZM583.987 454.727C584.046 454.859 584.075 454.976 584.075 455.123C584.075 455.254 584.046 455.401 583.987 455.547L582.127 460.132C581.453 461.773 580.984 462.564 579.402 463.033C578.816 463.208 578.406 463.619 578.406 464.102C578.406 464.791 578.846 465.259 579.549 465.259C580.252 465.259 581.087 464.659 581.512 463.619L589.451 443.975C589.803 443.125 590.066 442.583 591.004 442.349C591.766 442.159 591.912 442.129 591.912 441.822C591.912 441.631 591.824 441.529 591.663 441.529H587.854C587.708 441.529 587.635 441.631 587.635 441.822C587.635 442.129 587.781 442.159 588.543 442.349C588.88 442.437 589.041 442.627 589.041 442.876C589.041 442.979 589.026 443.096 588.968 443.228L585.599 451.548C585.511 451.768 585.394 451.871 585.247 451.871C585.115 451.871 584.983 451.768 584.881 451.548L580.794 443.155C580.735 443.038 580.691 442.92 580.691 442.818C580.691 442.613 580.853 442.437 581.189 442.349C581.951 442.159 582.098 442.129 582.098 441.822C582.098 441.631 582.01 441.529 581.849 441.529H576.517C576.37 441.529 576.297 441.631 576.297 441.822C576.297 442.129 576.443 442.159 577.205 442.349C578.172 442.598 578.318 443.111 578.743 443.975L583.987 454.727Z" fill="#383976"/>
<path d="M468.035 452.063C469.906 449.015 472.339 446.836 475.035 445.799L476.551 445.216L474.555 444.346C472.161 443.301 469.992 441.346 468.267 438.68L467.485 436.669L466.934 438.361C465.063 441.41 462.631 443.588 459.934 444.626L458.418 445.208L460.414 446.078C462.809 447.123 464.977 449.079 466.703 451.744L467.485 453.755L468.035 452.063Z" fill="#FF77A6"/>
<defs>
<linearGradient id="paint0_linear_477_6" x1="729.968" y1="253.213" x2="15.1497" y2="253.213" gradientUnits="userSpaceOnUse">
<stop stop-opacity="0"/>
<stop offset="0.5" stop-color="#A4A4A4" stop-opacity="0.52"/>
<stop offset="0.942708" stop-opacity="0"/>
</linearGradient>
</defs>
</svg>
