<svg width="908" height="44" viewBox="0 0 908 44" fill="none" xmlns="http://www.w3.org/2000/svg">
<path d="M7.67188 33.9636H883.426" stroke="#DDDCE4" stroke-width="2"/>
<path d="M894.958 40.7757C897.771 37.7447 901.426 35.5786 905.479 34.5471L907.757 33.9679L904.758 33.103C901.159 32.0636 897.9 30.1196 895.306 27.4695L894.131 25.47L893.304 27.1521C890.492 30.1831 886.836 32.3492 882.783 33.3807L880.505 33.9599L883.504 34.8248C887.103 35.8642 890.362 37.8082 892.956 40.4583L894.131 42.4579L894.958 40.7757Z" fill="#DDDCE4"/>
<path d="M15.078 40.7755C17.8907 37.7445 21.5464 35.5784 25.5992 34.5469L27.877 33.9676L24.8778 33.1028C21.2789 32.0633 18.0204 30.1194 15.4265 27.4692L14.2512 25.4697L13.4244 27.1519C10.6117 30.1829 6.95602 32.349 2.90314 33.3805L0.625426 33.9597L3.62455 34.8246C7.2235 35.864 10.482 37.808 13.0759 40.4581L14.2512 42.4576L15.078 40.7755Z" fill="#DDDCE4"/>
<rect x="1.70855" y="0.00504607" width="16.7094" height="16.6523" transform="matrix(0.85581 -0.517291 0.852739 0.522337 484.405 34.8186)" fill="#B3B8E9" stroke="white" stroke-width="2"/>
<rect x="1.70856" y="5.96046e-08" width="16.6809" height="16.6809" transform="matrix(0.85428 -0.519812 0.85428 0.519812 456.608 34.8527)" fill="#B3B8E9" stroke="white" stroke-width="2"/>
<path d="M441.146 33.9647L448.753 30.7507L456.36 33.9647L448.753 37.1787L441.146 33.9647Z" stroke="white" stroke-width="2"/>
<path d="M514.789 33.9647L522.396 30.7507L530.002 33.9647L522.396 37.1787L514.789 33.9647Z" stroke="white" stroke-width="2"/>
<path d="M477.605 17.0034L486.175 2.72461L494.802 17.0034L486.175 22.1874L477.605 17.0034Z" stroke="white" stroke-width="2"/>
</svg>
