<svg width="908" height="18" viewBox="0 0 908 18" fill="none" xmlns="http://www.w3.org/2000/svg">
<path d="M7.67188 8.83374H883.426" stroke="white" stroke-width="2"/>
<path d="M894.958 15.6458C897.771 12.6148 901.426 10.4487 905.479 9.41722L907.757 8.838L904.758 7.97313C901.159 6.9337 897.9 4.98974 895.306 2.3396L894.131 0.340087L893.304 2.02221C890.492 5.05321 886.836 7.21935 882.783 8.25084L880.505 8.83006L883.504 9.69493C887.103 10.7344 890.362 12.6783 892.956 15.3285L894.131 17.328L894.958 15.6458Z" fill="white"/>
<path d="M15.078 15.6456C17.8907 12.6146 21.5464 10.4485 25.5992 9.41698L27.877 8.83775L24.8778 7.97289C21.2789 6.93346 18.0204 4.98949 15.4265 2.33935L14.2512 0.339843L13.4244 2.02197C10.6117 5.05297 6.95602 7.2191 2.90314 8.2506L0.625426 8.82982L3.62455 9.69469C7.2235 10.7341 10.482 12.6781 13.0759 15.3282L14.2512 17.3277L15.078 15.6456Z" fill="white"/>
</svg>
