<svg width="908" height="43" viewBox="0 0 908 43" fill="none" xmlns="http://www.w3.org/2000/svg">
<path d="M7.04688 33.2388H882.801" stroke="white" stroke-width="2"/>
<path d="M894.333 40.0509C897.146 37.0199 900.801 34.8537 904.854 33.8223L907.132 33.243L904.133 32.3782C900.534 31.3387 897.275 29.3948 894.681 26.7446L893.506 24.7451L892.679 26.4272C889.867 29.4582 886.211 31.6244 882.158 32.6559L879.88 33.2351L882.879 34.1C886.478 35.1394 889.737 37.0834 892.331 39.7335L893.506 41.733L894.333 40.0509Z" fill="white"/>
<path d="M14.453 40.0509C17.2657 37.0199 20.9214 34.8537 24.9742 33.8223L27.252 33.243L24.2528 32.3782C20.6539 31.3387 17.3954 29.3948 14.8015 26.7446L13.6262 24.7451L12.7994 26.4272C9.98671 29.4582 6.33102 31.6244 2.27814 32.6559L0.000425845 33.2351L2.99955 34.1C6.5985 35.1394 9.85702 37.0834 12.4509 39.7335L13.6262 41.733L14.453 40.0509Z" fill="white"/>
<rect x="1.70855" y="0.00504607" width="16.7094" height="16.6523" transform="matrix(0.85581 -0.517291 0.852739 0.522337 453.78 34.0937)" fill="#B3B8E9" stroke="white" stroke-width="2"/>
<rect x="1.70856" y="5.96046e-08" width="16.6809" height="16.6809" transform="matrix(0.85428 -0.519812 0.85428 0.519812 425.983 34.1279)" fill="#B3B8E9" stroke="white" stroke-width="2"/>
<path d="M418.128 35.3682L413.091 33.2399L418.128 31.1115L423.165 33.2399L418.128 35.3682Z" fill="#B3B8E9" stroke="white" stroke-width="2"/>
<path d="M491.771 35.3682L486.733 33.2399L491.771 31.1115L496.808 33.2399L491.771 35.3682Z" fill="#B3B8E9" stroke="white" stroke-width="2"/>
<path d="M446.98 16.2788L455.55 2L464.177 16.2788L455.55 21.4628L446.98 16.2788Z" fill="#B3B8E9" stroke="white" stroke-width="2"/>
</svg>
