<svg width="1456" height="253" viewBox="0 0 1456 253" fill="none" xmlns="http://www.w3.org/2000/svg">
<g style="mix-blend-mode:multiply" opacity="0.2">
<rect x="0.191406" y="33.9639" width="1455.53" height="209.87" fill="url(#paint0_linear_468_3)"/>
</g>
<path d="M239.672 33.9636H1115.43" stroke="#DDDCE4" stroke-width="2"/>
<path d="M1126.96 40.7757C1129.77 37.7447 1133.43 35.5786 1137.48 34.5471L1139.76 33.9679L1136.76 33.103C1133.16 32.0636 1129.9 30.1196 1127.31 27.4695L1126.13 25.47L1125.3 27.1521C1122.49 30.1831 1118.84 32.3492 1114.78 33.3807L1112.51 33.9599L1115.5 34.8248C1119.1 35.8642 1122.36 37.8082 1124.96 40.4583L1126.13 42.4579L1126.96 40.7757Z" fill="#DDDCE4"/>
<path d="M247.078 40.7755C249.891 37.7445 253.546 35.5784 257.599 34.5469L259.877 33.9676L256.878 33.1028C253.279 32.0633 250.02 30.1194 247.427 27.4692L246.251 25.4697L245.424 27.1519C242.612 30.1829 238.956 32.349 234.903 33.3805L232.625 33.9597L235.625 34.8246C239.224 35.864 242.482 37.808 245.076 40.4581L246.251 42.4576L247.078 40.7755Z" fill="#DDDCE4"/>
<path d="M239.672 243.834H1115.43" stroke="white" stroke-width="2"/>
<path d="M1126.96 250.646C1129.77 247.615 1133.43 245.449 1137.48 244.417L1139.76 243.838L1136.76 242.973C1133.16 241.934 1129.9 239.99 1127.31 237.34L1126.13 235.34L1125.3 237.022C1122.49 240.053 1118.84 242.219 1114.78 243.251L1112.51 243.83L1115.5 244.695C1119.1 245.734 1122.36 247.678 1124.96 250.328L1126.13 252.328L1126.96 250.646Z" fill="white"/>
<path d="M247.078 250.646C249.891 247.615 253.546 245.448 257.599 244.417L259.877 243.838L256.878 242.973C253.279 241.933 250.02 239.989 247.427 237.339L246.251 235.34L245.424 237.022C242.612 240.053 238.956 242.219 234.903 243.251L232.625 243.83L235.625 244.695C239.224 245.734 242.482 247.678 245.076 250.328L246.251 252.328L247.078 250.646Z" fill="white"/>
<rect x="1.70855" y="0.00504607" width="16.7094" height="16.6523" transform="matrix(0.85581 -0.517291 0.852739 0.522337 716.405 34.8186)" fill="#B3B8E9" stroke="white" stroke-width="2"/>
<rect x="1.70856" y="5.96046e-08" width="16.6809" height="16.6809" transform="matrix(0.85428 -0.519812 0.85428 0.519812 688.608 34.8527)" fill="#B3B8E9" stroke="white" stroke-width="2"/>
<path d="M673.146 33.9647L680.753 30.7507L688.36 33.9647L680.753 37.1787L673.146 33.9647Z" stroke="white" stroke-width="2"/>
<path d="M746.789 33.9647L754.396 30.7507L762.002 33.9647L754.396 37.1787L746.789 33.9647Z" stroke="white" stroke-width="2"/>
<path d="M709.605 17.0034L718.175 2.72461L726.802 17.0034L718.175 22.1874L709.605 17.0034Z" stroke="white" stroke-width="2"/>
<defs>
<linearGradient id="paint0_linear_468_3" x1="1385.29" y1="138.899" x2="27.6609" y2="138.899" gradientUnits="userSpaceOnUse">
<stop stop-opacity="0"/>
<stop offset="0.5" stop-color="#A4A4A4" stop-opacity="0.52"/>
<stop offset="0.942708" stop-opacity="0"/>
</linearGradient>
</defs>
</svg>
