<svg width="447" height="71" viewBox="0 0 447 71" fill="none" xmlns="http://www.w3.org/2000/svg">
<path d="M52.7561 1.09454H395.57L420.839 34.6574L395.57 69.3504H52.7561L27.7363 34.6574L52.7561 1.09454Z" fill="#442A29" stroke="white" stroke-width="2" stroke-miterlimit="10"/>
<path d="M15.409 45.0862C18.2217 40.5047 21.8774 37.2305 25.9303 35.6713L28.208 34.7958L25.2089 33.4885C21.6099 31.9173 18.3514 28.9789 15.7576 24.9731L14.5822 21.9507L13.7555 24.4934C10.9428 29.0749 7.28707 32.3491 3.2342 33.9083L0.956479 34.7838L3.95561 36.0911C7.55456 37.6622 10.8131 40.6006 13.4069 44.6065L14.5822 47.6288L15.409 45.0862Z" fill="#442A29"/>
<path d="M433.673 44.8983C436.485 40.3168 440.141 37.0425 444.194 35.4834L446.472 34.6079L443.473 33.3006C439.874 31.7294 436.615 28.791 434.021 24.7852L432.846 21.7628L432.019 24.3055C429.206 28.887 425.551 32.1612 421.498 33.7203L419.22 34.5959L422.219 35.9032C425.818 37.4743 429.077 40.4127 431.671 44.4185L432.846 47.4409L433.673 44.8983Z" fill="#442A29"/>
<path d="M195.912 12.6021H58.7939C96.4211 13.4354 178.294 14.1021 183.794 17.6021C192.519 23.1542 171.794 27.1021 162.294 32.1021C172.294 34.6021 192.194 38.2021 183.794 46.6021C175.394 55.0021 99.1273 55.7688 58.7939 56.6021H195.912L231.794 34.6021L195.912 12.6021Z" fill="#EBE5D7"/>
<path d="M195.912 12.6021H58.7939C96.4211 13.4354 178.294 14.1021 183.794 17.6021C192.519 23.1542 171.794 27.1021 162.294 32.1021C172.294 34.6021 192.194 38.2021 183.794 46.6021C175.394 55.0021 99.1273 55.7688 58.7939 56.6021H195.912L231.794 34.6021L195.912 12.6021Z" fill="#503332"/>
<path d="M118.055 40.0178C127.447 37.1631 139.654 35.1229 153.188 34.1514L160.794 33.6059L150.779 32.7913C138.761 31.8123 127.88 29.9814 119.219 27.4853L115.294 25.6021L112.533 27.1864C103.141 30.0412 90.9334 32.0813 77.3998 33.0528L69.7939 33.5984L79.8088 34.4129C91.8267 35.3919 102.708 37.2228 111.369 39.7189L115.294 41.6021L118.055 40.0178Z" fill="#503332"/>
<path d="M310.055 40.0178C319.447 37.1631 331.654 35.1229 345.188 34.1514L352.794 33.6059L342.779 32.7913C330.761 31.8123 319.88 29.9814 311.219 27.4853L307.294 25.6021L304.533 27.1864C295.141 30.0412 282.933 32.0813 269.4 33.0528L261.794 33.5984L271.809 34.4129C283.827 35.3919 294.708 37.2228 303.369 39.7189L307.294 41.6021L310.055 40.0178Z" fill="#503332"/>
<path d="M236.676 12.6021H373.794C336.167 13.4354 254.294 14.1021 248.794 17.6021C240.069 23.1542 260.794 27.1021 270.294 32.1021C260.294 34.6021 240.394 38.2021 248.794 46.6021C257.194 55.0021 333.461 55.7688 373.794 56.6021H236.676L200.794 34.6021L236.676 12.6021Z" fill="#503332"/>
<path d="M182.706 20.9465C183.159 20.9465 183.715 20.9691 184.372 21.0145C185.052 21.0598 185.743 21.1278 186.446 21.2185C187.171 21.2865 187.795 21.3658 188.316 21.4565C188.86 21.5245 189.234 21.6038 189.438 21.6945L189.03 26.2845H188.69C188.69 25.1058 188.248 24.1651 187.364 23.4625C186.503 22.7371 185.347 22.3745 183.896 22.3745C182.581 22.3745 181.516 22.6918 180.7 23.3265C179.907 23.9611 179.487 24.7318 179.442 25.6385C179.419 26.3185 179.635 26.9078 180.088 27.4065C180.541 27.9051 181.119 28.3698 181.822 28.8005L188.316 33.0165C189.359 33.6058 190.141 34.3765 190.662 35.3285C191.206 36.2805 191.444 37.3911 191.376 38.6605C191.263 40.8818 190.413 42.6158 188.826 43.8625C187.239 45.0865 185.086 45.6985 182.366 45.6985C181.369 45.6985 180.394 45.6078 179.442 45.4265C178.513 45.2678 177.685 45.0411 176.96 44.7465C176.235 44.4291 175.657 44.0551 175.226 43.6245C175.045 43.1258 174.965 42.5251 174.988 41.8225C175.011 41.1198 175.113 40.4058 175.294 39.6805C175.498 38.9551 175.747 38.3545 176.042 37.8785H176.348C176.257 39.0345 176.461 40.1111 176.96 41.1085C177.481 42.0831 178.229 42.8651 179.204 43.4545C180.201 44.0211 181.38 44.2931 182.74 44.2705C184.236 44.2478 185.392 43.8738 186.208 43.1485C187.024 42.4005 187.432 41.5051 187.432 40.4625C187.432 39.7598 187.217 39.1251 186.786 38.5585C186.378 37.9918 185.698 37.4478 184.746 36.9265L178.796 32.9825C177.595 32.3025 176.722 31.4298 176.178 30.3645C175.634 29.2991 175.419 28.1431 175.532 26.8965C175.645 25.7178 175.997 24.6865 176.586 23.8025C177.175 22.8958 177.98 22.1931 179 21.6945C180.043 21.1958 181.278 20.9465 182.706 20.9465ZM189.472 21.2865L189.404 22.0005H185.392V21.2865H189.472ZM205.592 24.9245V45.2225H200.662V24.9245H205.592ZM213.004 24.7885V26.1485H193.284V24.7885H213.004ZM213.004 26.0465V29.6505H212.63V29.3445C212.653 28.3698 212.381 27.5991 211.814 27.0325C211.27 26.4658 210.511 26.1711 209.536 26.1485V26.0465H213.004ZM213.004 24.2785V25.1285L209.4 24.7885C209.831 24.7885 210.296 24.7658 210.794 24.7205C211.293 24.6525 211.746 24.5845 212.154 24.5165C212.562 24.4258 212.846 24.3465 213.004 24.2785ZM200.73 43.0805V45.2225H198.452V44.8825C198.452 44.8825 198.509 44.8825 198.622 44.8825C198.758 44.8825 198.826 44.8825 198.826 44.8825C199.325 44.8825 199.744 44.7125 200.084 44.3725C200.447 44.0098 200.64 43.5791 200.662 43.0805H200.73ZM205.49 43.0805H205.592C205.592 43.5791 205.774 44.0098 206.136 44.3725C206.499 44.7125 206.941 44.8825 207.462 44.8825C207.462 44.8825 207.519 44.8825 207.632 44.8825C207.768 44.8825 207.836 44.8825 207.836 44.8825V45.2225H205.49V43.0805ZM196.752 26.0465V26.1485C195.755 26.1711 194.984 26.4658 194.44 27.0325C193.919 27.5991 193.658 28.3698 193.658 29.3445V29.6505H193.284V26.0465H196.752ZM193.284 24.2785C193.488 24.3238 193.783 24.3918 194.168 24.4825C194.576 24.5731 195.018 24.6525 195.494 24.7205C195.993 24.7658 196.446 24.7885 196.854 24.7885L193.284 25.1285V24.2785ZM222.052 23.9045L232.116 45.0525H226.37L220.046 30.1265L222.052 23.9045ZM215.66 42.9785C215.411 43.5905 215.445 44.0665 215.762 44.4065C216.079 44.7238 216.431 44.8825 216.816 44.8825H217.088V45.2225H210.288V44.8825C210.288 44.8825 210.333 44.8825 210.424 44.8825C210.515 44.8825 210.56 44.8825 210.56 44.8825C211.013 44.8825 211.489 44.7465 211.988 44.4745C212.487 44.1798 212.895 43.6811 213.212 42.9785H215.66ZM222.052 23.9045L222.12 27.9845L214.742 45.1205H212.226L220.182 28.0185C220.227 27.8825 220.329 27.6445 220.488 27.3045C220.647 26.9418 220.817 26.5451 220.998 26.1145C221.179 25.6611 221.349 25.2418 221.508 24.8565C221.667 24.4485 221.757 24.1311 221.78 23.9045H222.052ZM225.01 38.5585V39.8845H216.34V38.5585H225.01ZM225.52 42.9785H231.13C231.47 43.6811 231.889 44.1798 232.388 44.4745C232.887 44.7465 233.363 44.8825 233.816 44.8825C233.816 44.8825 233.861 44.8825 233.952 44.8825C234.043 44.8825 234.088 44.8825 234.088 44.8825V45.2225H224.092V44.8825H224.364C224.749 44.8825 225.101 44.7238 225.418 44.4065C225.735 44.0665 225.769 43.5905 225.52 42.9785ZM241.281 24.8225H244.953C245.882 24.8225 246.789 24.9245 247.673 25.1285C248.557 25.3098 249.35 25.6158 250.053 26.0465C250.756 26.4545 251.311 27.0211 251.719 27.7465C252.15 28.4491 252.365 29.3331 252.365 30.3985C252.365 31.1918 252.195 31.9851 251.855 32.7785C251.538 33.5491 251.028 34.2178 250.325 34.7845C249.645 35.3511 248.75 35.7251 247.639 35.9065C248.296 36.1105 248.92 36.5071 249.509 37.0965C250.121 37.6858 250.597 38.2411 250.937 38.7625C251.028 38.9438 251.186 39.2385 251.413 39.6465C251.64 40.0318 251.923 40.4851 252.263 41.0065C252.626 41.5051 253 42.0265 253.385 42.5705C253.838 43.1825 254.235 43.6585 254.575 43.9985C254.915 44.3158 255.266 44.5425 255.629 44.6785C255.992 44.8145 256.411 44.8825 256.887 44.8825V45.2225H254.031C252.807 45.2225 251.764 45.1318 250.903 44.9505C250.064 44.7691 249.328 44.4405 248.693 43.9645C248.081 43.4658 247.514 42.7971 246.993 41.9585C246.789 41.6638 246.574 41.3125 246.347 40.9045C246.12 40.4738 245.894 40.0431 245.667 39.6125C245.44 39.1818 245.236 38.7625 245.055 38.3545C244.896 37.9465 244.783 37.6065 244.715 37.3345C244.42 36.6091 244.08 36.0878 243.695 35.7705C243.332 35.4305 242.992 35.2605 242.675 35.2605V34.9545C242.675 34.9545 242.754 34.9545 242.913 34.9545C243.072 34.9545 243.276 34.9545 243.525 34.9545C244.001 34.9545 244.466 34.8751 244.919 34.7165C245.395 34.5351 245.826 34.2065 246.211 33.7305C246.596 33.2318 246.88 32.5065 247.061 31.5545C247.106 31.4185 247.14 31.2258 247.163 30.9765C247.208 30.7271 247.22 30.4438 247.197 30.1265C247.152 29.2878 246.993 28.6191 246.721 28.1205C246.472 27.5991 246.154 27.2138 245.769 26.9645C245.384 26.6925 244.987 26.5111 244.579 26.4205C244.194 26.3071 243.854 26.2505 243.559 26.2505C243.128 26.2278 242.732 26.2278 242.369 26.2505C242.029 26.2505 241.768 26.2391 241.587 26.2165C241.564 26.2165 241.53 26.1031 241.485 25.8765C241.44 25.6271 241.394 25.3891 241.349 25.1625C241.304 24.9358 241.281 24.8225 241.281 24.8225ZM241.621 24.8225V45.2225H236.691V24.8225H241.621ZM236.793 43.0805L236.929 45.2225H234.481V44.8825C234.504 44.8825 234.56 44.8825 234.651 44.8825C234.764 44.8825 234.844 44.8825 234.889 44.8825C235.388 44.8825 235.807 44.7125 236.147 44.3725C236.51 44.0098 236.702 43.5791 236.725 43.0805H236.793ZM236.793 26.9305H236.725C236.702 26.4091 236.51 25.9898 236.147 25.6725C235.807 25.3325 235.399 25.1625 234.923 25.1625C234.855 25.1625 234.764 25.1625 234.651 25.1625C234.56 25.1625 234.504 25.1625 234.481 25.1625V24.8225H236.929L236.793 26.9305ZM241.553 43.0805H241.621C241.621 43.6471 241.814 44.0891 242.199 44.4065C242.607 44.7238 243.038 44.8825 243.491 44.8825C243.491 44.8825 243.536 44.8825 243.627 44.8825C243.718 44.8825 243.786 44.8825 243.831 44.8825V45.2225H241.383L241.553 43.0805ZM267.45 24.9245V45.2225H262.52V24.9245H267.45ZM274.862 24.7885V26.1485H255.142V24.7885H274.862ZM274.862 26.0465V29.6505H274.488V29.3445C274.51 28.3698 274.238 27.5991 273.672 27.0325C273.128 26.4658 272.368 26.1711 271.394 26.1485V26.0465H274.862ZM274.862 24.2785V25.1285L271.258 24.7885C271.688 24.7885 272.153 24.7658 272.652 24.7205C273.15 24.6525 273.604 24.5845 274.012 24.5165C274.42 24.4258 274.703 24.3465 274.862 24.2785ZM262.588 43.0805V45.2225H260.31V44.8825C260.31 44.8825 260.366 44.8825 260.48 44.8825C260.616 44.8825 260.684 44.8825 260.684 44.8825C261.182 44.8825 261.602 44.7125 261.942 44.3725C262.304 44.0098 262.497 43.5791 262.52 43.0805H262.588ZM267.348 43.0805H267.45C267.45 43.5791 267.631 44.0098 267.994 44.3725C268.356 44.7125 268.798 44.8825 269.32 44.8825C269.32 44.8825 269.376 44.8825 269.49 44.8825C269.626 44.8825 269.694 44.8825 269.694 44.8825V45.2225H267.348V43.0805ZM258.61 26.0465V26.1485C257.612 26.1711 256.842 26.4658 256.298 27.0325C255.776 27.5991 255.516 28.3698 255.516 29.3445V29.6505H255.142V26.0465H258.61ZM255.142 24.2785C255.346 24.3238 255.64 24.3918 256.026 24.4825C256.434 24.5731 256.876 24.6525 257.352 24.7205C257.85 24.7658 258.304 24.7885 258.712 24.7885L255.142 25.1285V24.2785Z" fill="#FCFCFC"/>
<path d="M56.2427 5.62261H392.89L414.325 34.6222L392.89 64.8827L56.2427 66.1436L34.1777 34.6222L56.2427 5.62261Z" stroke="#6D4E4D" stroke-width="1.91567" stroke-miterlimit="10"/>
</svg>
