<svg width="447" height="72" viewBox="0 0 447 72" fill="none" xmlns="http://www.w3.org/2000/svg">
<path d="M52.7561 1.87888H395.57L420.839 35.4418L395.57 70.1347H52.7561L27.7363 35.4418L52.7561 1.87888Z" fill="#442A29" stroke="white" stroke-width="2" stroke-miterlimit="10"/>
<path d="M15.41 45.8705C18.2227 41.289 21.8784 38.0148 25.9313 36.4556L28.209 35.5801L25.2099 34.2728C21.6109 32.7017 18.3524 29.7633 15.7586 25.7574L14.5832 22.7351L13.7564 25.2777C10.9437 29.8592 7.28805 33.1334 3.23517 34.6926L0.957456 35.5681L3.95658 36.8754C7.55554 38.4466 10.814 41.385 13.4079 45.3908L14.5832 48.4132L15.41 45.8705Z" fill="#442A29"/>
<path d="M433.674 45.6826C436.486 41.1011 440.142 37.8269 444.195 36.2677L446.473 35.3922L443.474 34.0849C439.875 32.5138 436.616 29.5754 434.022 25.5695L432.847 22.5472L432.02 25.0898C429.207 29.6713 425.552 32.9455 421.499 34.5047L419.221 35.3802L422.22 36.6875C425.819 38.2587 429.078 41.1971 431.672 45.2029L432.847 48.2253L433.674 45.6826Z" fill="#442A29"/>
<path d="M195.913 13.3864H58.7949C96.4221 14.2198 178.295 14.8864 183.795 18.3864C192.52 23.9386 171.795 27.8864 162.295 32.8864C172.295 35.3864 192.195 38.9864 183.795 47.3864C175.395 55.7864 99.1283 56.5531 58.7949 57.3864H195.913L231.795 35.3864L195.913 13.3864Z" fill="#503332"/>
<path d="M118.056 40.8021C127.448 37.9474 139.655 35.9072 153.189 34.9357L160.795 34.3902L150.78 33.5756C138.762 32.5966 127.881 30.7657 119.22 28.2697L115.295 26.3864L112.534 27.9707C103.142 30.8255 90.9344 32.8657 77.4008 33.8372L69.7949 34.3827L79.8098 35.1973C91.8276 36.1763 102.709 38.0072 111.37 40.5032L115.295 42.3864L118.056 40.8021Z" fill="#503332"/>
<path d="M310.056 40.8021C319.448 37.9474 331.655 35.9072 345.189 34.9357L352.795 34.3902L342.78 33.5756C330.762 32.5966 319.881 30.7657 311.22 28.2697L307.295 26.3864L304.534 27.9707C295.142 30.8255 282.934 32.8657 269.401 33.8372L261.795 34.3827L271.81 35.1973C283.828 36.1763 294.709 38.0072 303.37 40.5032L307.295 42.3864L310.056 40.8021Z" fill="#503332"/>
<path d="M236.676 13.3864H373.795C336.168 14.2198 254.295 14.8864 248.795 18.3864C240.07 23.9386 260.795 27.8864 270.295 32.8864C260.295 35.3864 240.395 38.9864 248.795 47.3864C257.195 55.7864 333.462 56.5531 373.795 57.3864H236.676L200.795 35.3864L236.676 13.3864Z" fill="#503332"/>
<path d="M182.707 21.7308C183.16 21.7308 183.716 21.7534 184.373 21.7988C185.053 21.8441 185.744 21.9121 186.447 22.0028C187.172 22.0708 187.796 22.1501 188.317 22.2408C188.861 22.3088 189.235 22.3881 189.439 22.4788L189.031 27.0688H188.691C188.691 25.8901 188.249 24.9494 187.365 24.2468C186.504 23.5214 185.348 23.1588 183.897 23.1588C182.582 23.1588 181.517 23.4761 180.701 24.1108C179.908 24.7454 179.488 25.5161 179.443 26.4228C179.42 27.1028 179.636 27.6921 180.089 28.1908C180.542 28.6894 181.12 29.1541 181.823 29.5848L188.317 33.8008C189.36 34.3901 190.142 35.1608 190.663 36.1128C191.207 37.0648 191.445 38.1754 191.377 39.4448C191.264 41.6661 190.414 43.4001 188.827 44.6468C187.24 45.8708 185.087 46.4828 182.367 46.4828C181.37 46.4828 180.395 46.3921 179.443 46.2108C178.514 46.0521 177.686 45.8254 176.961 45.5308C176.236 45.2134 175.658 44.8394 175.227 44.4088C175.046 43.9101 174.966 43.3094 174.989 42.6068C175.012 41.9041 175.114 41.1901 175.295 40.4648C175.499 39.7394 175.748 39.1388 176.043 38.6628H176.349C176.258 39.8188 176.462 40.8954 176.961 41.8928C177.482 42.8674 178.23 43.6494 179.205 44.2388C180.202 44.8054 181.381 45.0774 182.741 45.0548C184.237 45.0321 185.393 44.6581 186.209 43.9328C187.025 43.1848 187.433 42.2894 187.433 41.2468C187.433 40.5441 187.218 39.9094 186.787 39.3428C186.379 38.7761 185.699 38.2321 184.747 37.7108L178.797 33.7668C177.596 33.0868 176.723 32.2141 176.179 31.1488C175.635 30.0834 175.42 28.9274 175.533 27.6808C175.646 26.5021 175.998 25.4708 176.587 24.5868C177.176 23.6801 177.981 22.9774 179.001 22.4788C180.044 21.9801 181.279 21.7308 182.707 21.7308ZM189.473 22.0708L189.405 22.7848H185.393V22.0708H189.473ZM205.593 25.7088V46.0068H200.663V25.7088H205.593ZM213.005 25.5728V26.9328H193.285V25.5728H213.005ZM213.005 26.8308V30.4348H212.631V30.1288C212.654 29.1541 212.382 28.3834 211.815 27.8168C211.271 27.2501 210.512 26.9554 209.537 26.9328V26.8308H213.005ZM213.005 25.0628V25.9128L209.401 25.5728C209.832 25.5728 210.297 25.5501 210.795 25.5048C211.294 25.4368 211.747 25.3688 212.155 25.3008C212.563 25.2101 212.847 25.1308 213.005 25.0628ZM200.731 43.8648V46.0068H198.453V45.6668C198.453 45.6668 198.51 45.6668 198.623 45.6668C198.759 45.6668 198.827 45.6668 198.827 45.6668C199.326 45.6668 199.745 45.4968 200.085 45.1568C200.448 44.7941 200.641 44.3634 200.663 43.8648H200.731ZM205.491 43.8648H205.593C205.593 44.3634 205.775 44.7941 206.137 45.1568C206.5 45.4968 206.942 45.6668 207.463 45.6668C207.463 45.6668 207.52 45.6668 207.633 45.6668C207.769 45.6668 207.837 45.6668 207.837 45.6668V46.0068H205.491V43.8648ZM196.753 26.8308V26.9328C195.756 26.9554 194.985 27.2501 194.441 27.8168C193.92 28.3834 193.659 29.1541 193.659 30.1288V30.4348H193.285V26.8308H196.753ZM193.285 25.0628C193.489 25.1081 193.784 25.1761 194.169 25.2668C194.577 25.3574 195.019 25.4368 195.495 25.5048C195.994 25.5501 196.447 25.5728 196.855 25.5728L193.285 25.9128V25.0628ZM222.053 24.6888L232.117 45.8368H226.371L220.047 30.9108L222.053 24.6888ZM215.661 43.7628C215.412 44.3748 215.446 44.8508 215.763 45.1908C216.08 45.5081 216.432 45.6668 216.817 45.6668H217.089V46.0068H210.289V45.6668C210.289 45.6668 210.334 45.6668 210.425 45.6668C210.516 45.6668 210.561 45.6668 210.561 45.6668C211.014 45.6668 211.49 45.5308 211.989 45.2588C212.488 44.9641 212.896 44.4654 213.213 43.7628H215.661ZM222.053 24.6888L222.121 28.7688L214.743 45.9048H212.227L220.183 28.8028C220.228 28.6668 220.33 28.4288 220.489 28.0888C220.648 27.7261 220.818 27.3294 220.999 26.8988C221.18 26.4454 221.35 26.0261 221.509 25.6408C221.668 25.2328 221.758 24.9154 221.781 24.6888H222.053ZM225.011 39.3428V40.6688H216.341V39.3428H225.011ZM225.521 43.7628H231.131C231.471 44.4654 231.89 44.9641 232.389 45.2588C232.888 45.5308 233.364 45.6668 233.817 45.6668C233.817 45.6668 233.862 45.6668 233.953 45.6668C234.044 45.6668 234.089 45.6668 234.089 45.6668V46.0068H224.093V45.6668H224.365C224.75 45.6668 225.102 45.5081 225.419 45.1908C225.736 44.8508 225.77 44.3748 225.521 43.7628ZM241.282 25.6068H244.954C245.883 25.6068 246.79 25.7088 247.674 25.9128C248.558 26.0941 249.351 26.4001 250.054 26.8308C250.757 27.2388 251.312 27.8054 251.72 28.5308C252.151 29.2334 252.366 30.1174 252.366 31.1828C252.366 31.9761 252.196 32.7694 251.856 33.5628C251.539 34.3334 251.029 35.0021 250.326 35.5688C249.646 36.1354 248.751 36.5094 247.64 36.6908C248.297 36.8948 248.921 37.2914 249.51 37.8808C250.122 38.4701 250.598 39.0254 250.938 39.5468C251.029 39.7281 251.187 40.0228 251.414 40.4308C251.641 40.8161 251.924 41.2694 252.264 41.7908C252.627 42.2894 253.001 42.8108 253.386 43.3548C253.839 43.9668 254.236 44.4428 254.576 44.7828C254.916 45.1001 255.267 45.3268 255.63 45.4628C255.993 45.5988 256.412 45.6668 256.888 45.6668V46.0068H254.032C252.808 46.0068 251.765 45.9161 250.904 45.7348C250.065 45.5534 249.329 45.2248 248.694 44.7488C248.082 44.2501 247.515 43.5814 246.994 42.7428C246.79 42.4481 246.575 42.0968 246.348 41.6888C246.121 41.2581 245.895 40.8274 245.668 40.3968C245.441 39.9661 245.237 39.5468 245.056 39.1388C244.897 38.7308 244.784 38.3908 244.716 38.1188C244.421 37.3934 244.081 36.8721 243.696 36.5548C243.333 36.2148 242.993 36.0448 242.676 36.0448V35.7388C242.676 35.7388 242.755 35.7388 242.914 35.7388C243.073 35.7388 243.277 35.7388 243.526 35.7388C244.002 35.7388 244.467 35.6594 244.92 35.5008C245.396 35.3194 245.827 34.9908 246.212 34.5148C246.597 34.0161 246.881 33.2908 247.062 32.3388C247.107 32.2028 247.141 32.0101 247.164 31.7608C247.209 31.5114 247.221 31.2281 247.198 30.9108C247.153 30.0721 246.994 29.4034 246.722 28.9048C246.473 28.3834 246.155 27.9981 245.77 27.7488C245.385 27.4768 244.988 27.2954 244.58 27.2048C244.195 27.0914 243.855 27.0348 243.56 27.0348C243.129 27.0121 242.733 27.0121 242.37 27.0348C242.03 27.0348 241.769 27.0234 241.588 27.0008C241.565 27.0008 241.531 26.8874 241.486 26.6608C241.441 26.4114 241.395 26.1734 241.35 25.9468C241.305 25.7201 241.282 25.6068 241.282 25.6068ZM241.622 25.6068V46.0068H236.692V25.6068H241.622ZM236.794 43.8648L236.93 46.0068H234.482V45.6668C234.505 45.6668 234.561 45.6668 234.652 45.6668C234.765 45.6668 234.845 45.6668 234.89 45.6668C235.389 45.6668 235.808 45.4968 236.148 45.1568C236.511 44.7941 236.703 44.3634 236.726 43.8648H236.794ZM236.794 27.7148H236.726C236.703 27.1934 236.511 26.7741 236.148 26.4568C235.808 26.1168 235.4 25.9468 234.924 25.9468C234.856 25.9468 234.765 25.9468 234.652 25.9468C234.561 25.9468 234.505 25.9468 234.482 25.9468V25.6068H236.93L236.794 27.7148ZM241.554 43.8648H241.622C241.622 44.4314 241.815 44.8734 242.2 45.1908C242.608 45.5081 243.039 45.6668 243.492 45.6668C243.492 45.6668 243.537 45.6668 243.628 45.6668C243.719 45.6668 243.787 45.6668 243.832 45.6668V46.0068H241.384L241.554 43.8648ZM267.451 25.7088V46.0068H262.521V25.7088H267.451ZM274.863 25.5728V26.9328H255.143V25.5728H274.863ZM274.863 26.8308V30.4348H274.489V30.1288C274.511 29.1541 274.239 28.3834 273.673 27.8168C273.129 27.2501 272.369 26.9554 271.395 26.9328V26.8308H274.863ZM274.863 25.0628V25.9128L271.259 25.5728C271.689 25.5728 272.154 25.5501 272.653 25.5048C273.151 25.4368 273.605 25.3688 274.013 25.3008C274.421 25.2101 274.704 25.1308 274.863 25.0628ZM262.589 43.8648V46.0068H260.311V45.6668C260.311 45.6668 260.367 45.6668 260.481 45.6668C260.617 45.6668 260.685 45.6668 260.685 45.6668C261.183 45.6668 261.603 45.4968 261.943 45.1568C262.305 44.7941 262.498 44.3634 262.521 43.8648H262.589ZM267.349 43.8648H267.451C267.451 44.3634 267.632 44.7941 267.995 45.1568C268.357 45.4968 268.799 45.6668 269.321 45.6668C269.321 45.6668 269.377 45.6668 269.491 45.6668C269.627 45.6668 269.695 45.6668 269.695 45.6668V46.0068H267.349V43.8648ZM258.611 26.8308V26.9328C257.613 26.9554 256.843 27.2501 256.299 27.8168C255.777 28.3834 255.517 29.1541 255.517 30.1288V30.4348H255.143V26.8308H258.611ZM255.143 25.0628C255.347 25.1081 255.641 25.1761 256.027 25.2668C256.435 25.3574 256.877 25.4368 257.353 25.5048C257.851 25.5501 258.305 25.5728 258.713 25.5728L255.143 25.9128V25.0628Z" fill="#FCFCFC"/>
<path d="M56.2427 6.40695H392.89L414.325 35.4066L392.89 65.667L56.2427 66.9279L34.1777 35.4066L56.2427 6.40695Z" stroke="#6D4E4D" stroke-width="1.91567" stroke-miterlimit="10"/>
</svg>
